<svg xmlns="http://www.w3.org/2000/svg" viewBox="320 120 320 320" enable-background="new 320 120 320 320"><path fill="#fff" d="M480 140c-77.3 0-140 62.7-140 140s62.7 140 140 140 140-62.7 140-140-62.7-140-140-140zm84.7 116.1c-1.3 12.7-4.2 25-10.1 36.4-3.8 7.2-8.4 13.7-14.4 19.4-2.5 2.3-5.3 4.5-8.2 6.5-6 4.1-12.6 6.6-19.7 8.2-4.8 1-10 1.4-14.9 1-7.4-.6-14.1-3.1-19.9-7.6-2.2-1.7-4.1-3.7-5.7-6-.3-.2-.4-.4-.7-.7-.2.4-.4.8-.4 1.2-1.6 6.4-3.3 12.8-4.8 19.2l-3 11.7c-1.6 6-4.1 11.7-6.9 17.2-4 7.7-8.8 14.9-14.2 21.8-.3.4-.5.7-.8 1-1 .9-2.5.5-2.7-.8s-.4-2.7-.6-4c-.6-4.8-1-9.6-1.3-14.4-.2-3.8-.2-7.6.1-11.4.2-2.7.4-5.4.7-8.1.4-3.3 1.1-6.5 1.9-9.8 2.9-12.3 5.8-24.5 8.7-36.7l6-25.3c.2-.8.2-1.5-.2-2.2-2.6-6.5-3.6-13.2-3.3-20.3.2-4.7 1.2-9.2 3.1-13.6 1.8-4.1 4.3-7.8 7.8-10.7 2.8-2.3 6-3.9 9.7-4.4 2.3-.4 4.5-.2 6.8.3 4.5 1 7.7 3.6 9.8 7.6 1.3 2.4 2 5 2.2 7.8.3 4-.3 7.9-1.2 11.8-1.3 5.9-3.1 11.6-4.9 17.4-1.6 5.4-3.3 10.7-4.5 16.2-1.3 5.4-.3 10.5 3.1 15 2.9 3.9 7 6.3 11.8 7.1 6.3 1.1 12.2-.2 17.6-3.5 4.1-2.5 7.5-5.8 10.3-9.6 3.7-4.8 6.4-10.4 8.4-16.1 2.1-5.7 3.4-11.4 4.3-17.3.9-6.1 1.4-12.2 1.3-18.4-.1-5.7-1-11.1-3.1-16.4-4.2-11.2-12.1-19-23.1-23.7-4.4-1.9-8.9-3-13.6-3.7-4.9-.7-9.9-.8-14.8-.5-11.8.8-22.6 4.4-32.1 11.7-6.4 4.8-11.5 10.9-15.3 17.9-3.2 6-5.3 12.5-6.3 19.3-.5 4.3-.8 8.7-.4 13 .7 7 3.1 13.4 7.6 18.8l.8 1c1.3 1.5 1.6 3.3 1.1 5.2l-2 7.7c-.3 1-.4 2-.8 3-.4 1.4-1.3 2.3-2.7 2.8-.6.2-1.3.3-2 .1-.7-.2-1.4-.4-2-.7-6.4-2.8-11.3-7.1-15.2-12.9-3.1-4.6-5.1-9.7-6.5-15-1.7-6.7-2.3-13.6-2.1-20.5.3-6.6 1.6-13.1 3.9-19.4 6.3-17.6 17.6-31 33.7-40.5 3.9-2.3 8-4.1 12.1-5.9 5.6-2.2 11.2-3.8 17.1-4.8 2.9-.5 5.8-.9 8.7-1.2 3.6-.3 7.1-.5 10.7-.4 10 .1 19.7 1.6 29 5.1 15 5.7 27.2 15 36 28.5 4.9 7.6 8.1 16 9.6 24.9.5 3.1.8 6.4.8 9.6.1 3.6 0 7.4-.3 11.1z"/></svg>