<svg xmlns="http://www.w3.org/2000/svg" viewBox="209 62.8 320 320" enable-background="new 209 62.8 320 320"><path fill="#fff" d="M369 82.8c-77.3 0-140 62.7-140 140s62.7 140 140 140 140-62.7 140-140-62.7-140-140-140zm84 96.4c-1.9 2-4.4 3.6-6.5 5.5-.6.5-1.2 1.5-1.2 2.2.5 18.4-3.3 36-11.4 52.4-14.3 29.3-36.8 49.3-68.6 57.9-30.9 8.3-60.4 4.5-88.1-11.9l-1.7-1.1c20.8 1.5 39.5-3.6 56.7-16.5-10.8-.7-19.6-4.5-26.9-11.8-4.2-4.3-7.3-9.3-9.2-15.3 5.6.7 11 1 16.8-.7-22.3-6-31.1-25-30.4-38.5 2.7 1.1 5.3 2.2 8.1 3 2.7.8 5.5 1.2 8.4 1.5-7.8-6.3-13.3-13.9-15.4-23.8-2.1-9.8-.8-19.1 4.4-28 21.1 24.8 47.5 38.4 80 40.7-.2-1.5-.3-2.8-.5-4.2-2.9-20.7 12.5-40.7 33.1-43.2 12.6-1.6 23.6 1.9 32.9 10.7.7.7 2.2.9 3.3.7 7.8-1.7 15.2-4.7 22.6-9-3.1 9.2-8.4 15.9-15.9 21.2 7.2-.7 14-2.7 20.6-5.5.2.2.4.4.6.7-3.9 4.3-7.7 8.8-11.7 13z"/></svg>