<svg xmlns="http://www.w3.org/2000/svg" viewBox="0 0 175 130" enable-background="new 0 0 175 130"><style type="text/css">.st0{fill:#83CDC2;} .st1{fill:#231F20;} .st2{fill:url(#ear_shadow_1_);} .st3{fill:url(#ear_circle_shadow_2_);} .st4{fill:#E3C84C;} .st5{fill:url(#ear_shadow_2_);} .st6{opacity:0.77;fill:url(#ear_shadow_3_);} .st7{fill:url(#ear_shadow_8_);} .st8{opacity:0.6;fill:url(#ear_1_);} .st9{fill:url(#head_shadow_2_);} .st10{opacity:0.57;fill:url(#head_highlight_2_);} .st11{fill:url(#face_shadow_2_);} .st12{fill:#FFFFFF;} .st13{fill:url(#face_1_);} .st14{opacity:0.63;fill:url(#nose_1_);} .st15{fill:#231F20;stroke:#231F20;stroke-width:0.6564;stroke-miterlimit:10;} .st16{fill:none;stroke:#275D5F;stroke-width:0.6564;stroke-miterlimit:10;stroke-dasharray:2.6256;} .st17{fill:none;stroke:#231F20;stroke-width:0.6564;stroke-miterlimit:10;} .st18{fill:#564337;} .st19{opacity:0.48;fill:url(#ear_highlight_1_);} .st20{fill:url(#eye_shadow_1_);} .st21{fill:url(#eye_shadow_4_);} .st22{fill:url(#eye_colour_2_);} .st23{fill:url(#eye_colour_3_);} .st24{opacity:0.61;fill:#FFFFFF;} .st25{opacity:0.67;fill:url(#ear_highlight_4_);}</style><g id="ear_12_"><path class="st0" d="M147 74.9c-10.5 0-19.9-7.3-22.8-17.7-1.7-6.2-1-12.7 2-18.2 3-5.6 8-9.6 14-11.2 2-.6 4.1-.8 6.1-.8 10.5 0 19.9 7.3 22.8 17.7 1.7 6.2 1 12.7-2 18.2-3 5.6-8 9.6-14 11.2-2 .5-4 .8-6.1.8z"/><path class="st1" d="M146.2 27.2c10.1 0 19.5 6.9 22.5 17.5 3.5 12.6-3.5 25.6-15.7 29.1-2 .6-4 .8-6 .8-10.1 0-19.5-6.9-22.5-17.5-3.5-12.6 3.5-25.6 15.7-29.1 2-.5 4-.8 6-.8m0-.6v.7-.7c-2.1 0-4.2.3-6.2.9-12.5 3.5-19.8 16.9-16.2 29.9 3 10.6 12.5 18 23.1 18 2.1 0 4.2-.3 6.2-.9 12.5-3.5 19.8-16.9 16.2-29.9-2.9-10.6-12.4-18-23.1-18z"/></g><radialGradient id="ear_shadow_1_" cx="-390.462" cy="-608.289" r="31.659" gradientTransform="matrix(.908 -.418 .363 .79 724.15 363.748)" gradientUnits="userSpaceOnUse"><stop offset=".357" stop-color="#83CDC2"/><stop offset=".581" stop-color="#83CDC2"/><stop offset=".771" stop-color="#7EC254"/><stop offset="1" stop-color="#249DA0"/></radialGradient><path id="ear_shadow_7_" class="st2" d="M155.2 59.3c-12.2 3.4-25-4-28.5-16.6-.3-.9-.4-1.8-.6-2.8-2.5 5.1-3.3 11.2-1.6 17.2 3.5 12.6 16.3 20.1 28.5 16.6 11.3-3.2 18.2-14.6 16.3-26.3-2.8 5.7-7.7 10.1-14.1 11.9z"/><radialGradient id="ear_circle_shadow_2_" cx="-401.21" cy="-603.142" r="14.412" gradientTransform="matrix(.908 -.418 .418 .908 757.244 435.709)" gradientUnits="userSpaceOnUse"><stop offset=".214" stop-color="#048688"/><stop offset=".439" stop-color="#048688"/><stop offset=".621" stop-color="#06898C" stop-opacity=".739"/><stop offset=".756" stop-color="#249DA0" stop-opacity=".578"/><stop offset="1" stop-color="#249DA0" stop-opacity="0"/></radialGradient><path id="ear_circle_shadow_1_" class="st3" d="M145.7 70c-9 2.5-18.3-2.9-20.9-12-2.6-9.2 2.6-18.6 11.6-21.1s18.3 2.9 20.9 12c2.5 9.2-2.7 18.6-11.6 21.1z"/><ellipse id="ear_11_" transform="matrix(.27 .963 -.963 .27 153.944 -94.604)" class="st4" cx="139.4" cy="54.2" rx="11.7" ry="11.5"/><g id="ear_9_"><path class="st0" d="M30.3 51.9c-7.5 0-14.3-3.4-18.6-9.3-7.7-10.3-5.2-25.1 5.4-33 4.3-3.2 9.3-4.9 14.6-4.9 7.5 0 14.3 3.4 18.6 9.3 3.7 5 5.2 11.2 4.1 17.4-1 6.2-4.4 11.8-9.6 15.6-4.2 3.2-9.3 4.9-14.5 4.9z"/><path class="st1" d="M31.7 5.1c7.1 0 13.9 3.1 18.4 9.1 7.5 10.2 5.1 24.8-5.4 32.6-4.4 3.2-9.4 4.8-14.4 4.8-7.1 0-13.9-3.1-18.4-9.1-7.5-10.2-5.1-24.8 5.4-32.6 4.4-3.2 9.4-4.8 14.4-4.8m0-.7c-5.3 0-10.4 1.7-14.8 4.9-10.8 8-13.3 23-5.5 33.5 4.4 6 11.3 9.4 18.9 9.4 5.3 0 10.4-1.7 14.8-4.9 5.2-3.9 8.7-9.5 9.7-15.8 1-6.3-.4-12.6-4.2-17.7-4.4-5.9-11.3-9.4-18.9-9.4z"/></g><radialGradient id="ear_shadow_2_" cx="-492.739" cy="-678.763" r="31.962" gradientTransform="matrix(.714 -.7 .587 .6 776.615 87.089)" gradientUnits="userSpaceOnUse"><stop offset=".357" stop-color="#83CDC2"/><stop offset=".581" stop-color="#83CDC2"/><stop offset=".771" stop-color="#7EC254"/><stop offset="1" stop-color="#249DA0"/></radialGradient><path id="ear_shadow_6_" class="st5" d="M50 14.2c-4.6-6.2-11.8-9.3-19.2-9.1 2.5 2.4 4.5 5.4 5.6 8.9 4 12-2.8 25.2-15.2 29.3-2.5.8-5 1.2-7.5 1.3 7.9 8.3 21.2 9.4 30.9 2.2 10.6-7.8 13-22.4 5.4-32.6z"/><radialGradient id="ear_shadow_3_" cx="-409.327" cy="-602" r="14.617" gradientTransform="matrix(.908 -.418 .418 .908 757.244 435.709)" gradientUnits="userSpaceOnUse"><stop offset=".032" stop-color="#C42F28"/><stop offset=".32" stop-color="#F0584A"/><stop offset=".591" stop-color="#EA8F36" stop-opacity=".598"/><stop offset=".608" stop-color="#EA9335" stop-opacity=".573"/><stop offset=".847" stop-color="#F2DE6C" stop-opacity=".308"/><stop offset="1" stop-color="#F2DE6C" stop-opacity="0"/></radialGradient><path id="ear_shadow_5_" class="st6" d="M148.8 50.6c-.2-.4-.5-.8-.8-1.2-4.4-6-13-7.2-19.1-2.6-.7.5-1.3 1.1-1.9 1.7-1 3.1-.8 6.8.8 10.3 3 6.6 10.1 9.9 15.7 7.3 5.4-2.5 7.6-9.2 5.3-15.5z"/><radialGradient id="ear_shadow_8_" cx="-486.802" cy="-668.162" r="14.558" gradientTransform="matrix(.908 -.418 .418 .908 757.244 435.709)" gradientUnits="userSpaceOnUse"><stop offset=".214" stop-color="#048688"/><stop offset=".308" stop-color="#048688"/><stop offset=".469" stop-color="#06898C" stop-opacity=".739"/><stop offset=".647" stop-color="#249DA0" stop-opacity=".578"/><stop offset=".804" stop-color="#048688" stop-opacity=".238"/><stop offset="1" stop-color="#249DA0" stop-opacity="0"/></radialGradient><path id="ear_shadow_4_" class="st7" d="M49.1 20.2c5.6 7.6 3.9 18.3-3.9 24.1-7.7 5.7-18.5 4.2-24.1-3.3-5.6-7.6-3.9-18.3 3.9-24.1 7.7-5.7 18.5-4.2 24.1 3.3z"/><ellipse id="ear_8_" transform="matrix(.804 -.595 .595 .804 -12.992 28.481)" class="st4" cx="36.7" cy="33.9" rx="11.7" ry="11.5"/><radialGradient id="ear_1_" cx="-485.45" cy="-662.25" r="14.953" gradientTransform="matrix(.908 -.418 .418 .908 757.244 435.709)" gradientUnits="userSpaceOnUse"><stop offset=".032" stop-color="#C42F28"/><stop offset=".32" stop-color="#F0584A"/><stop offset=".591" stop-color="#EA8F36" stop-opacity=".598"/><stop offset=".608" stop-color="#EA9335" stop-opacity=".573"/><stop offset=".847" stop-color="#F2DE6C" stop-opacity=".308"/><stop offset="1" stop-color="#F2DE6C" stop-opacity="0"/></radialGradient><path id="ear_5_" class="st8" d="M51.6 27.9c4.9 6.6 3.4 15.9-3.3 20.9-6.7 5-16.1 3.7-20.9-2.9-4.9-6.6-3.4-16 3.3-20.9 6.7-5 16.1-3.7 20.9 2.9z"/><g id="head_1_"><path class="st0" d="M78.3 126.3c-20.9 0-39.9-12.2-48.6-31.1-6.5-14.2-6.5-30.5.1-44.7.4-.8 1.4-2.9 2.3-4.4 2.9-4.9 6.5-9.4 10.7-13.1 2.1-1.9 4.5-3.7 7-5.3 2-1.3 4.2-2.4 6.4-3.4 1.7-.8 3.5-1.5 5.2-2.1 5.6-1.9 11.4-2.9 17.2-2.9 20.9 0 39.9 12.2 48.6 31.1 12.3 26.8.5 58.6-26.4 71-7.2 3.2-14.8 4.9-22.5 4.9z"/><path class="st1" d="M78.6 19.6c20.1 0 39.4 11.4 48.3 30.9 12.3 26.7.5 58.2-26.3 70.6-7.3 3.3-14.9 4.9-22.3 4.9-20.1 0-39.4-11.4-48.3-30.9-6.7-14.7-6.2-30.8.1-44.4.4-.9 1.4-2.9 2.2-4.4 2.8-4.8 6.4-9.2 10.6-13.1 2.1-1.9 4.5-3.7 7-5.3 2-1.3 4.1-2.4 6.3-3.4 1.7-.8 3.5-1.5 5.2-2.1 5.7-1.9 11.4-2.8 17.2-2.8m0-.6c-5.9 0-11.7 1-17.3 2.9-1.8.6-3.5 1.3-5.3 2.1-2.2 1-4.3 2.2-6.4 3.5-2.5 1.6-4.9 3.4-7.1 5.3-4.3 3.7-7.9 8.2-10.8 13.2-.9 1.5-1.9 3.6-2.3 4.4-6.6 14.3-6.7 30.7-.1 45 8.7 19 27.9 31.3 48.9 31.3 7.8 0 15.4-1.7 22.6-5 13.1-6 23.1-16.8 28.1-30.3s4.5-28.1-1.5-41.2c-8.7-19-27.9-31.2-48.8-31.2z"/></g><linearGradient id="head_shadow_2_" gradientUnits="userSpaceOnUse" x1="-467.812" y1="-634.763" x2="-460.678" y2="-578.211" gradientTransform="matrix(.908 -.418 .418 .908 757.244 435.709)"><stop offset=".213" stop-color="#83CDC2"/><stop offset=".718" stop-color="#7EC254"/><stop offset="1" stop-color="#249DA0"/></linearGradient><path id="head_shadow_1_" class="st9" d="M91 21.1c8.8 3.9 16 10.5 20.1 19.4 9.9 21.5-2.2 48.2-27 59.6-19.9 9.1-41.9 5.7-54.9-7.1.3.7.6 1.4.9 2 12.3 26.7 43.9 38.3 70.7 26 26.8-12.3 38.5-43.9 26.3-70.6-7.3-15.3-20.8-25.6-36.1-29.3z"/><linearGradient id="head_highlight_2_" gradientUnits="userSpaceOnUse" x1="-467.78" y1="-611.518" x2="-478.676" y2="-655.711" gradientTransform="matrix(.908 -.418 .418 .908 757.244 435.709)"><stop offset="0" stop-color="#83CDC2"/><stop offset="1" stop-color="#fff"/></linearGradient><path id="head_highlight_1_" class="st10" d="M56.2 24.5c-2.2 1-4.3 2.2-6.3 3.4-2.5 1.6-4.8 3.4-7 5.3-4.3 3.8-7.8 8.2-10.6 13.1-.8 1.4-1.8 3.5-2.2 4.4-2.3 5.1-3.9 10.5-4.6 16 8.2 17.7 29.3 25.4 47.1 17.2 17.9-8.2 25.7-29.3 17.5-47.1-3.6-7.7-9.6-13.5-16.7-17-4 .4-8 1.2-12 2.6-1.7.7-3.5 1.3-5.2 2.1z"/><radialGradient id="face_shadow_2_" cx="-443.932" cy="-638.856" r="31.317" gradientTransform="matrix(1.002 .008 -.024 .817 502.302 635.988)" gradientUnits="userSpaceOnUse"><stop offset=".363" stop-color="#048688"/><stop offset=".627" stop-color="#06898C" stop-opacity=".739"/><stop offset=".726" stop-color="#249DA0" stop-opacity=".578"/><stop offset="1" stop-color="#249DA0" stop-opacity="0"/></radialGradient><path id="face_shadow_1_" class="st11" d="M99.5 110.6c-2.2 10.9-15.4 17.4-29.4 14.5-14-2.9-23.5-14-21.3-24.9 2.2-10.9 15.4-17.4 29.4-14.6 14 2.9 23.5 14.1 21.3 25z"/><g id="face_4_"><path class="st12" d="M71.6 125.3c-2.1 0-4.2-.2-6.3-.6-6.1-1.2-11.4-4.2-15.1-8.2-3.7-4.1-5.2-8.8-4.3-13.3 1.5-7.5 9.8-12.8 20-12.8 2.1 0 4.2.2 6.3.6 12.6 2.6 21.2 12.2 19.3 21.5-1.5 7.6-9.7 12.8-19.9 12.8z"/><path class="st1" d="M65.9 90.7c2 0 4.1.2 6.2.6 12.4 2.6 20.9 12 19.1 21.1-1.5 7.6-9.8 12.6-19.6 12.6-2 0-4.1-.2-6.2-.6-12.4-2.6-20.9-12-19.1-21.1 1.5-7.6 9.8-12.6 19.6-12.6m0-.6c-10.4 0-18.7 5.4-20.3 13-1 4.6.6 9.4 4.3 13.6 3.7 4.1 9.1 7 15.2 8.3 2.1.4 4.2.7 6.3.7 10.4 0 18.7-5.4 20.3-13 1.9-9.4-6.8-19.3-19.6-21.9-1.9-.5-4.1-.7-6.2-.7z"/></g><radialGradient id="face_1_" cx="-488.687" cy="-585.115" r="21.677" gradientTransform="matrix(-.997 -.083 .067 -.806 -379.028 -404.016)" gradientUnits="userSpaceOnUse"><stop offset="0" stop-color="#fff"/><stop offset=".667" stop-color="#F2DB9A"/><stop offset="1" stop-color="#E9C44C"/></radialGradient><path id="face_2_" class="st13" d="M91.2 112.5c-1.9 9.1-13.5 14.4-25.9 11.9-12.4-2.6-20.9-12-19.1-21.1 1.9-9.1 13.5-14.4 25.9-11.9 12.4 2.5 21 12 19.1 21.1z"/><radialGradient id="nose_1_" cx="-489.036" cy="-589.752" r="5.626" gradientTransform="matrix(.908 -.418 .418 .908 757.244 435.709)" gradientUnits="userSpaceOnUse"><stop offset=".066" stop-color="#C42F28"/><stop offset=".46" stop-color="#F0584A"/><stop offset=".718" stop-color="#EA8F36" stop-opacity=".598"/><stop offset=".734" stop-color="#EA9335" stop-opacity=".573"/><stop offset=".847" stop-color="#F2DE6C" stop-opacity=".308"/><stop offset="1" stop-color="#F2DE6C" stop-opacity="0"/></radialGradient><path id="nose_3_" class="st14" d="M71.2 102.1c1.2 2.5 0 5.5-2.5 6.7-2.6 1.2-5.6.1-6.7-2.4-1.2-2.5 0-5.5 2.5-6.7 2.5-1.2 5.5-.1 6.7 2.4z"/><ellipse id="nose_2_" transform="matrix(.908 -.418 .418 .908 -37.726 36.851)" class="st15" cx="65.3" cy="104.6" rx="3.1" ry="3.1"/><path id="head_stitch_1_" class="st16" d="M94.9 22.4c-8.8 8.3-14.3 19.6-17.5 31.2-3.2 11.6-4.3 23.7-5.4 35.8"/><path id="mouth_1_" class="st17" d="M59.2 106.8c-.2 3.8 3 7.4 6.7 7.7 3.8.2 7.4-3 7.6-6.7"/><path id="eyebrow_1_" class="st18" d="M49.5 46.3c2.1-2.7 5.4-4.7 8.9-4.5 3.5.2 6.7 3.2 6.6 6.7-4.1-3.8-10.6-4.7-15.5-2.2z"/><path id="eye_brow_1_" class="st18" d="M95.3 51.6c2.5-3.3 6.5-5.7 10.6-5.5 4.1.2 8.1 3.6 7.9 7.7-4.9-4.3-12.6-5.2-18.5-2.2z"/><linearGradient id="ear_highlight_1_" gradientUnits="userSpaceOnUse" x1="-513.306" y1="-681.778" x2="-485.135" y2="-681.778" gradientTransform="matrix(.908 -.418 .418 .908 757.244 435.709)"><stop offset="0" stop-color="#fff" stop-opacity="0"/><stop offset="1" stop-color="#fff"/></linearGradient><path id="ear_highlight_3_" class="st19" d="M19.4 8.5c-.7.4-1.4.9-2.1 1.4-9.5 7-12.4 19.6-7.3 29.5 4 1.6 8.7 1.7 13-.3 8.2-3.8 11.7-13.4 8-21.5-2.3-4.9-6.7-8.1-11.6-9.1z"/><radialGradient id="eye_shadow_1_" cx="-491.639" cy="-625.418" r="20.245" fx="-491.67" fy="-625.425" gradientTransform="matrix(.908 -.418 .418 .908 757.244 435.709)" gradientUnits="userSpaceOnUse"><stop offset=".526" stop-color="#048688"/><stop offset=".698" stop-color="#06898C" stop-opacity=".739"/><stop offset=".832" stop-color="#249DA0" stop-opacity=".578"/><stop offset="1" stop-color="#249DA0" stop-opacity="0"/></radialGradient><path id="eye_shadow_3_" class="st20" d="M71.1 63.7c5.2 11.3.4 24.6-10.8 29.8s-24.4.1-29.6-11.2c-5.2-11.3-.3-24.7 10.8-29.8s24.5-.1 29.6 11.2z"/><radialGradient id="eye_shadow_4_" cx="-444.407" cy="-596.616" r="22.459" fx="-444.442" fy="-596.623" gradientTransform="matrix(.908 -.418 .418 .908 757.244 435.709)" gradientUnits="userSpaceOnUse"><stop offset=".526" stop-color="#048688"/><stop offset=".698" stop-color="#06898C" stop-opacity=".739"/><stop offset=".832" stop-color="#249DA0" stop-opacity=".578"/><stop offset="1" stop-color="#249DA0" stop-opacity="0"/></radialGradient><path id="eye_shadow_2_" class="st21" d="M128.5 69.1c5.8 12.5.4 27.3-12 33-12.4 5.7-27.1.2-32.9-12.4-5.8-12.5-.4-27.3 12-33s27.1-.1 32.9 12.4z"/><linearGradient id="eye_colour_2_" gradientUnits="userSpaceOnUse" x1="-504.827" y1="-622.268" x2="-475.149" y2="-622.268" gradientTransform="matrix(.908 -.418 .418 .908 757.244 435.709)"><stop offset="0" stop-color="#DA2128"/><stop offset=".522" stop-color="#EC6C30"/><stop offset="1" stop-color="#EF5023"/></linearGradient><path id="eye_colour_4_" class="st22" d="M48.4 76c-2.3-5 0-11.1 5.2-13.5 3-1.4 6.3-1.2 9.1.1l-.3-.5c-.6-.4-15.4-10.4-21.7 12.7 0 0-3.2 13.7 5.2 16.4 2.9.1 5.9-.5 8.7-1.8 4.7-2.1 8.1-5.8 9.9-10.1-.7.6-1.5 1.1-2.4 1.6-5.3 2.3-11.4.2-13.7-4.9z"/><path id="left_eye_1_" class="st12" d="M40.7 74.8c6.3-23.1 21.1-13.1 21.6-12.6-5.1-6.7-14.3-9.2-22.3-5.5-9.2 4.2-13.3 15.1-9.1 24.3 2.5 5.4 7.4 9.1 12.9 10.2.6.1 1.3.1 1.9.1-8.3-2.7-5-16.5-5-16.5z"/><path id="pupil_3_" d="M64.2 65.1c-.4-.8-.8-1.6-1.3-2.4 0 0-.1 0-.1-.1-2.7-1.3-6-1.5-9.1-.1-5.2 2.4-7.6 8.4-5.2 13.5 2.3 5 8.4 7.2 13.6 4.8.9-.4 1.7-1 2.4-1.6.5-1.2.9-2.4 1.2-3.7.5-3.3.1-6.8-1.3-10.1-.1-.1-.2-.2-.2-.3z"/><path id="eyeball_1_" class="st12" d="M96.8 81.9c6.7-26 21.7-16.3 22.8-15.5-5.8-5.9-14.9-7.9-22.9-4.2-10.1 4.7-14.6 16.6-9.9 26.7 3.1 6.7 9.4 10.9 16.3 11.6-10.5-2.3-6.3-18.6-6.3-18.6z"/><linearGradient id="eye_colour_3_" gradientUnits="userSpaceOnUse" x1="-457.555" y1="-591.782" x2="-424.332" y2="-591.782" gradientTransform="matrix(.908 -.418 .418 .908 757.244 435.709)"><stop offset="0" stop-color="#DA2128"/><stop offset=".522" stop-color="#EC6C30"/><stop offset="1" stop-color="#EF5023"/></linearGradient><path id="eye_colour_1_" class="st23" d="M120.9 90.5c-6.2 2.8-13.5.1-16.4-6.1-2.9-6.2-.2-13.6 6-16.4 3.5-1.6 7.4-1.4 10.7.2-.1-.2-.2-.3-.4-.5-.3-.4-.7-.8-1.1-1.2h-.1c-1.1-.8-16.1-10.5-22.8 15.5 0 0-4.2 16.4 6.3 18.5.9.1 1.7.1 2.6.1 2.6-.1 5.2-.7 7.7-1.8 5.1-2.3 8.8-6.5 10.5-11.4-.2.7-.5 1.3-.8 1.9-.6.4-1.4.8-2.2 1.2z"/><path id="pupil_2_" d="M124.8 84.4c.1-.4.2-.8.2-1.3l.1-.9.1-1.2v-2.1c0-.3 0-.6-.1-.9 0-.4-.1-.8-.2-1.2 0-.3-.1-.6-.2-.9l-.3-1.3-.2-.8c-.2-.6-.4-1.2-.7-1.8l-.1-.3s0-.1-.1-.1c-.3-.6-.6-1.2-.9-1.7l-.2-.3c-.3-.6-.7-1.1-1.1-1.6-3.2-1.6-7.1-1.8-10.7-.2-6.2 2.8-8.9 10.2-6 16.4 2.9 6.2 10.2 9 16.4 6.1.9-.4 1.6-.9 2.4-1.4.3-.6.6-1.3.8-1.9l.2-.6c.2-.5.3-.9.4-1.4.1 0 .2-.3.2-.6z"/><ellipse id="eye_shine_9_" transform="matrix(.908 -.418 .418 .908 -25.165 27.075)" class="st24" cx="49.3" cy="71" rx="3.9" ry="4"/><ellipse id="eye_shine_8_" transform="matrix(.908 -.418 .418 .908 -28.347 28.685)" class="st24" cx="51.3" cy="79.1" rx="2.4" ry="2.5"/><ellipse id="eye_shine_7_" transform="matrix(.908 -.418 .418 .908 -37.472 36.351)" class="st24" cx="64.3" cy="103.8" rx="1" ry="1"/><ellipse id="eye_shine_6_" transform="matrix(.908 -.418 .418 .908 -23.138 51.065)" class="st24" cx="105.1" cy="78.4" rx="4.4" ry="4.5"/><ellipse id="eye_shine_5_" transform="matrix(.908 -.418 .418 .908 -26.769 52.902)" class="st24" cx="107.4" cy="87.6" rx="2.7" ry="2.8"/><linearGradient id="ear_highlight_4_" gradientUnits="userSpaceOnUse" x1="-410.185" y1="-617.058" x2="-378.215" y2="-617.058" gradientTransform="matrix(.908 -.418 .418 .908 757.244 435.709)"><stop offset="0" stop-color="#fff" stop-opacity="0"/><stop offset=".724" stop-color="#fff" stop-opacity=".724"/><stop offset="1" stop-color="#fff"/></linearGradient><path id="ear_highlight_2_" class="st25" d="M146 50.1c8-3.7 11.7-12.9 8.1-20.6l-.6-1.1c-4.2-1.5-8.8-1.7-13.4-.4-7.4 2.1-12.8 7.6-15.2 14.5l.2.4c3.6 7.7 12.9 10.9 20.9 7.2z"/></svg>