<svg xmlns="http://www.w3.org/2000/svg" viewBox="0 0 175 130" enable-background="new 0 0 175 130"><style type="text/css">.st0{fill:#83CDC2;} .st1{fill:#231F20;} .st2{fill:url(#leg_shadow_1_);} .st3{fill:none;stroke:#275D5F;stroke-width:0.6564;stroke-miterlimit:10;} .st4{fill:none;stroke:#275D5F;stroke-width:0.6564;stroke-miterlimit:10;stroke-dasharray:2.6132,2.6132;} .st5{opacity:0.52;fill:url(#leg_highlight_1_);} .st6{fill:url(#left_arm_shadow_2_);} .st7{fill:none;stroke:#275D5F;stroke-width:0.6564;stroke-miterlimit:10;stroke-dasharray:2.6256;} .st8{fill:url(#tail_shadow_2_);} .st9{fill:url(#body_shadow_1_);} .st10{fill:url(#body_shadow_4_);} .st11{fill:url(#leg_shadow_2_);} .st12{fill:none;stroke:#275D5F;stroke-width:0.6564;stroke-miterlimit:10;stroke-dasharray:2.6078,2.6078;} .st13{fill:url(#under_arm_shadow_2_);} .st14{opacity:0.56;fill:url(#tail_highlight_2_);} .st15{fill:url(#leg_shadow_6_);} .st16{fill:none;stroke:#231F20;stroke-width:0.6564;stroke-miterlimit:10;} .st17{fill:none;stroke:#231F20;stroke-width:0.6564;stroke-miterlimit:10;stroke-dasharray:2.6132,2.6132;} .st18{opacity:0.55;fill:url(#thigh_highlight_2_);} .st19{opacity:0.58;fill:url(#leg_highlight_4_);} .st20{opacity:0.7;fill:url(#arm_highlight_2_);} .st21{fill:url(#arm_shadow_2_);}</style><g id="left_leg_1_"><path class="st0" d="M150.5 88.1h-1.1c-7.4-.5-21-2.8-28.1-13.1-.4-.6-.8-1.2-1.2-1.9-1.9-3-4.1-6.4-7.4-6.8l-1.2-.1c-4.5 0-8.7 2.6-11.5 4.5l-2.4 1.7c-3 2.2-6 4.4-9.6 5.6-1.7.6-3.5.8-5.3.8-6.7 0-13.2-3.7-16.2-9.3-5-9.2-.7-20.9 5.9-27.1 6.1-5.8 14.9-9.5 26.9-11.3 3.2-.5 5.8-.7 8.2-.7 3.6 0 6.7.5 9.5 1.5 3 1.1 5.7 2.9 8.3 4.7 1.6 1.1 3.3 2.2 5 3.1 4.3 2.3 9 3.7 13.6 5.1 1.7.5 3.5 1 5.2 1.6 5.2 1.7 12.5 4.6 16.9 10.6 4.4 6 5 14.4 1.5 20.9-3.1 6.1-10 10.2-17 10.2z"/><path class="st1" d="M107.6 30.8c3.2 0 6.4.4 9.4 1.5 4.8 1.8 8.7 5.3 13.2 7.7 5.9 3.2 12.5 4.6 18.9 6.7 6.4 2.1 12.8 5.1 16.7 10.5 4.3 5.8 4.9 14.2 1.5 20.6-3.2 6.1-10 10.1-16.8 10.1h-1.1c-10.3-.7-21.7-4.1-27.8-13-2.4-3.4-4.7-8.4-8.8-8.8l-1.2-.1c-4.2 0-8.2 2.2-11.7 4.6-3.8 2.7-7.4 5.8-11.9 7.2-1.7.6-3.5.8-5.2.8-6.4 0-12.8-3.5-15.9-9.1-4.7-8.6-1.3-20 5.8-26.7 7.1-6.8 17-9.7 26.7-11.2 2.7-.5 5.5-.8 8.2-.8m0-.6c-2.4 0-5.1.2-8.3.7-12.1 1.8-21 5.5-27.1 11.3-6.7 6.4-11.1 18.2-6 27.5 3.1 5.7 9.7 9.5 16.5 9.5 1.9 0 3.7-.3 5.4-.9 3.6-1.2 6.7-3.4 9.6-5.6.8-.6 1.6-1.2 2.4-1.7 2.7-1.9 6.9-4.5 11.3-4.5.4 0 .8 0 1.1.1 3.1.3 5.2 3.7 7.1 6.6.4.7.8 1.3 1.2 1.9 7.2 10.4 20.8 12.8 28.3 13.3h1.2c7.1 0 14.1-4.2 17.4-10.4 3.5-6.6 2.9-15.2-1.6-21.3-4.4-6.1-11.9-9-17.1-10.7-1.7-.6-3.5-1.1-5.2-1.6-4.6-1.3-9.3-2.7-13.6-5-1.7-.9-3.3-2-4.9-3.1-2.6-1.7-5.4-3.5-8.4-4.7-2.5-.9-5.7-1.4-9.3-1.4z"/></g><linearGradient id="leg_shadow_1_" gradientUnits="userSpaceOnUse" x1="2136.286" y1="376.053" x2="2162.961" y2="376.053" gradientTransform="matrix(-.411 .912 .912 .411 658.482 -2051.639)"><stop offset=".213" stop-color="#83CDC2"/><stop offset=".718" stop-color="#7EC254"/><stop offset="1" stop-color="#249DA0"/></linearGradient><path id="leg_shadow_5_" class="st2" d="M66.8 69.4c-4.7-8.6-1.3-20 5.8-26.7 6.5-6.2 15.4-9.2 24.4-10.8-.8 5.2 1.8 11.4 3.7 18 2.2 7.7 1.1 14.8 6.8 13.3 3.2-.9 6-3.5 8.9-5.6 2.9-2.1 3.1-1.9 6.3-.8 2.8 1 2.7 5.9 4.1 9.6 3.6 9.7 15.6 12.9 22.8 14.9 4.9 1.4 15.6 0 18.7-5.7l-.9 2c-3.4 6.4-10.7 10.5-18 10-10.3-.7-21.7-4.1-27.8-13-2.4-3.4-4.7-8.4-8.8-8.8-4.6-.5-9.1 1.9-12.9 4.5-3.8 2.7-7.4 5.8-11.9 7.2-7.8 2.8-17.2-.9-21.2-8.1z"/><g id="leg_stitch_6_"><path class="st3" d="M69.9 68.1l1.3.3"/><path class="st4" d="M73.7 68.9c10.2 1.5 20.9-.5 29.9-5.5 3.9-2.2 8.2-5.1 12.5-3.7 3.6 1.1 5.6 4.7 7.8 7.8 8.4 11.4 24.5 16.5 38 12.2"/><path class="st3" d="M163.2 79.1l1.2-.5"/></g><linearGradient id="leg_highlight_1_" gradientUnits="userSpaceOnUse" x1="2134.035" y1="382.325" x2="2133.078" y2="427.762" gradientTransform="matrix(-.411 .912 .912 .411 658.482 -2051.639)"><stop offset="0" stop-color="#fff" stop-opacity="0"/><stop offset="1" stop-color="#fff"/></linearGradient><path id="leg_highlight_2_" class="st5" d="M128.6 44.8c.7-1.6 1.7-2.9 3-4 5.5 2.7 11.6 4.1 17.5 6 6.4 2.1 12.8 5.1 16.7 10.5 1.8 2.4 2.9 5.3 3.4 8.3-4.6 6.7-15.9 8.4-26.5 3.6-11.4-5.3-17.8-16.2-14.1-24.4z"/><g id="left_arm_1_"><path class="st0" d="M135.2 68.4c-1.2 0-2.5-.1-3.7-.3-6.8-1-13.6-4.4-19.8-10-10.6-9.7-15.4-23.3-12.1-34.6 1.3-4.5 4.9-9.4 9.7-9.4h.6c4.6.4 7.3 4.8 9.8 8.6l1.1 1.7c4.6 7.1 12 12.4 20.2 14.6l2.8.7c3.9.9 8 1.8 10.6 4.8 4.2 4.8 2.2 12.6-2.1 17-4.2 4.4-10.4 6.9-17.1 6.9z"/><path class="st1" d="M109.3 14.5h.5c5.1.4 7.8 5.9 10.6 10.2 4.7 7.2 12.1 12.6 20.4 14.7 4.7 1.2 10 1.7 13.2 5.4 4 4.6 2.2 12.1-2 16.5-4.3 4.5-10.6 6.7-16.8 6.7-1.2 0-2.5-.1-3.7-.3-7.4-1-14.1-4.9-19.6-9.9-9.4-8.6-15.6-22-12-34.2 1.3-4.5 4.8-9.1 9.4-9.1m0-.7c-5 0-8.7 5-10 9.6-3.3 11.4 1.5 25.1 12.2 34.9 6.2 5.6 13 9.1 19.9 10.1 1.2.2 2.5.3 3.8.3 6.8 0 13.1-2.5 17.3-6.9 4.3-4.5 6.4-12.5 2.1-17.4-2.7-3.1-6.8-4-10.8-4.9-.9-.2-1.9-.4-2.8-.7-8.1-2.1-15.4-7.4-20-14.5-.4-.5-.7-1.1-1.1-1.7-2.5-3.9-5.3-8.4-10-8.8h-.6z"/></g><linearGradient id="left_arm_shadow_2_" gradientUnits="userSpaceOnUse" x1="250.457" y1="-246.556" x2="284.881" y2="-225.678" gradientTransform="matrix(-.715 -.699 -.699 .715 156.049 399.237)"><stop offset=".213" stop-color="#83CDC2"/><stop offset=".718" stop-color="#7EC254"/><stop offset="1" stop-color="#249DA0"/></linearGradient><path id="left_arm_shadow_1_" class="st6" d="M109.8 14.5c5.1.4 7.8 5.9 10.6 10.2 1 1.5 2.2 3 3.4 4.4-1.1-.3-2.3-.4-3.8-.2-4.1.4-4.9 2.7-8.1 6.1-6.7 7.4 6.4 19.3 15.6 24.5 5.4 3 11.6 5 17.8 4.7 1.3-.1 2.7-.3 4-.6-5 3.7-11.7 5-17.9 4.2-7.4-1-14.1-4.9-19.6-9.9-9.4-8.6-15.6-22-12-34.2 1.4-4.7 5.2-9.6 10-9.2z"/><path id="arm_stitch_3_" class="st7" d="M152.6 60.6c-12.2.4-24.5-4.4-33.3-12.8-8.8-8.5-14.1-19.8-14.2-32.1"/><g id="tail_1_"><path class="st0" d="M20.8 47.3c-7.8 0-14.2-6.6-14.2-14.7s6.4-14.7 14.2-14.7 14.2 6.5 14.2 14.6-6.4 14.8-14.2 14.8z"/><path class="st1" d="M20.8 18.1c7.7 0 13.9 6.5 13.9 14.4 0 8-6.2 14.4-13.9 14.4s-13.9-6.5-13.9-14.4c0-8 6.2-14.4 13.9-14.4m0-.7c-8 0-14.5 6.8-14.5 15.1s6.5 15.1 14.5 15.1 14.5-6.8 14.5-15.1-6.5-15.1-14.5-15.1z"/></g><radialGradient id="tail_shadow_2_" cx="155.864" cy="32.498" r="16.582" fx="171.441" fy="26.81" gradientTransform="matrix(-1 0 0 1 176.445 0)" gradientUnits="userSpaceOnUse"><stop offset=".47" stop-color="#83CDC2"/><stop offset=".718" stop-color="#7EC254"/><stop offset="1" stop-color="#249DA0"/></radialGradient><path id="tail_shadow_1_" class="st8" d="M9 24.9c-.4 1.2-.6 2.5-.6 3.8 0 6.9 5.4 12.6 12.1 12.6 6.7 0 12.1-5.6 12.1-12.6 0-1.9-.4-3.7-1.2-5.3 2 2.5 3.2 5.7 3.2 9.2 0 8-6.2 14.4-13.9 14.4s-13.9-6.5-13.9-14.4c.1-2.9.9-5.5 2.2-7.7z"/><g id="body_1_"><path class="st0" d="M62 73.1c-10.2 0-18.5-2.8-24.6-8.2-5.4-4.8-8.4-12-8.2-19.4.2-7.2 3.7-14.3 9.3-18.9 4-3.3 8.9-5.2 13.7-7.1l3.1-1.2c5.1-2.1 11.4-5.2 14.8-10.7l.1-.2h.2c.1 0 9.7.1 19.3.5 19.6.7 19.7 1.5 19.8 2 1.5 8.9.3 18.1-3.4 25.7l-15.2 26.4c-2.6 3.8-7.2 7.2-11.6 8.7-.1 0-7.8 2.4-17.3 2.4z"/><path class="st1" d="M70.4 7.8s38.5.5 38.7 2.1c1.4 8.6.4 17.6-3.4 25.5l-15.1 26.4c-2.6 3.8-7.1 7.1-11.4 8.5 0 0-7.7 2.5-17.2 2.5-8 0-17.2-1.7-24.4-8.1-5.3-4.7-8.3-12-8.1-19.1.2-7.1 3.7-14.1 9.2-18.6 4.9-3.9 11-5.9 16.8-8.3 5.7-2.4 11.6-5.5 14.9-10.9m-.4-.6l-.2.3c-3.3 5.4-9.6 8.5-14.6 10.6l-3.1 1.2c-4.8 1.9-9.7 3.8-13.8 7.1-5.7 4.6-9.2 11.8-9.4 19.1-.2 7.5 2.9 14.8 8.3 19.6 6.2 5.5 14.5 8.3 24.8 8.3 9.5 0 17.3-2.5 17.4-2.5 4.5-1.5 9.1-4.9 11.7-8.8l15.2-26.3c3.7-7.7 4.9-16.9 3.4-25.9-.1-.8-.3-1.6-20.1-2.2-9.5-.3-19.2-.5-19.3-.5h-.3z"/></g><linearGradient id="body_shadow_1_" gradientUnits="userSpaceOnUse" x1="111.945" y1="45.375" x2="148.944" y2="53.528" gradientTransform="matrix(-1 0 0 1 176.445 0)"><stop offset=".213" stop-color="#83CDC2"/><stop offset=".718" stop-color="#7EC254"/><stop offset="1" stop-color="#249DA0"/></linearGradient><path id="body_shadow_3_" class="st9" d="M38.7 27c4.3-3.5 9.6-5.4 14.7-7.5-5.3 4.5-8.6 11.3-8.8 18.3-.2 7.1 2.8 14.4 8.1 19.1 11.3 10 27.9 8.5 36.3 6.9-2.6 2.9-6.2 5.3-9.8 6.5 0 0-25.9 8.4-41.6-5.6-5.3-4.7-8.3-12-8.1-19.1.2-7.2 3.6-14.1 9.2-18.6z"/><radialGradient id="body_shadow_4_" cx="91.729" cy="2.651" r="36.004" fx="88.321" fy="4.831" gradientTransform="matrix(-1 0 0 .608 176.445 1.039)" gradientUnits="userSpaceOnUse"><stop offset=".408" stop-color="#249DA0"/><stop offset=".655" stop-color="#7EC254"/><stop offset=".94" stop-color="#83CDC2"/></radialGradient><path id="body_shadow_2_" class="st10" d="M59.7 16.7c4.3-2.1 8.2-4.9 10.7-8.9 0 0 38.5.5 38.7 2.1.4 2.7.6 5.4.6 8.2-21.9 9.9-40.6 3.5-50-1.4z"/><radialGradient id="leg_shadow_2_" cx="120.941" cy="61.524" r="25.106" fx="118.608" fy="60.253" gradientTransform="matrix(.962 .274 .184 -.648 -72.161 68.278)" gradientUnits="userSpaceOnUse"><stop offset=".363" stop-color="#048688"/><stop offset=".627" stop-color="#06898C" stop-opacity=".739"/><stop offset=".726" stop-color="#249DA0" stop-opacity=".578"/><stop offset="1" stop-color="#83CDC2" stop-opacity="0"/></radialGradient><path id="leg_shadow_4_" class="st11" d="M79.2 70.3s-25.9 8.4-41.6-5.6c-2.3-2-4.1-4.6-5.5-7.3 1.7-5.7 6.6-10.8 13-12.8 10.9-3.4 23.5 1.8 30.1 10.1 3.5 4.3 5.6 9.3 6.8 14.5-.9.4-1.9.8-2.8 1.1z"/><g id="stitch_1_"><path class="st3" d="M82 11.6c-.2.4-.4.8-.6 1.1"/><path class="st12" d="M79.8 14.8c-2.6 2.7-6.3 4.5-9.9 5.7-4.9 1.7-10.1 2.8-14.3 5.8-6.5 4.7-9.3 13.7-6.9 21.3"/><path class="st3" d="M49.1 48.8l.5 1.2"/></g><radialGradient id="under_arm_shadow_2_" cx="81.494" cy="49.39" r="39.935" fx="79.577" fy="49.524" gradientTransform="matrix(.675 .738 .358 -.327 22.286 5.404)" gradientUnits="userSpaceOnUse"><stop offset=".363" stop-color="#048688"/><stop offset=".627" stop-color="#06898C" stop-opacity=".739"/><stop offset=".708" stop-color="#138D8F" stop-opacity=".632"/><stop offset=".782" stop-color="#249DA0" stop-opacity=".578"/><stop offset="1" stop-color="#83CDC2" stop-opacity="0"/></radialGradient><path id="under_arm_shadow_1_" class="st13" d="M75.4 11.2c7.1-1.3 12.8 5.7 18.2 10.9 4.1 3.9 8.8 7.1 13.8 9.5-.5 1.3-1 2.6-1.6 3.9l-15.2 26.3c-1.5 2.2-3.6 4.2-6 5.8-11.6-9.7-20.1-23.8-19.7-39.3.2-7.3 3.6-15.8 10.5-17.1z"/><linearGradient id="tail_highlight_2_" gradientUnits="userSpaceOnUse" x1="144.32" y1="27.181" x2="165.533" y2="27.181" gradientTransform="matrix(-1 0 0 1 176.445 0)"><stop offset="0" stop-color="#fff" stop-opacity="0"/><stop offset="1" stop-color="#fff"/></linearGradient><path id="tail_highlight_1_" class="st14" d="M10.9 25.9c0-1.7.4-3.2 1.1-4.6 2.4-2 5.4-3.2 8.7-3.2 4.6 0 8.6 2.3 11.2 5.9.1.6.2 1.3.2 1.9 0 5.7-4.7 10.3-10.6 10.3-5.8.1-10.6-4.6-10.6-10.3z"/><g id="right_leg_1_"><path class="st0" d="M110.1 121.8c-3.7 0-7.3-1-10.3-2.9-6.3-4-17.1-12.5-18.4-25l-.2-2.2c-.2-3.6-.5-7.6-3.2-9.5-2.3-1.6-5.4-2.4-9.2-2.4-1.2 0-2.6.1-4 .2-1 .1-1.9.2-2.9.4-2.4.3-4.8.6-7.2.6-1.4 0-2.7-.1-3.9-.3-8.2-1.5-14.8-9.4-14.9-17.7 0-10.5 9.4-18.6 18.2-21 2.8-.7 5.8-1.1 8.9-1.1 6 0 12.6 1.4 20.2 4.1 5.2 1.9 11.1 4.5 15.2 9.2 2.1 2.4 3.6 5.3 5.1 8.1.9 1.7 1.8 3.4 2.9 5.1 2.6 4.1 6.1 7.6 9.5 11 1.3 1.3 2.6 2.6 3.8 3.9 3.7 3.9 8.8 10 9.8 17.4 1 7.4-2.5 15-8.7 19.1-3.1 1.9-6.9 3-10.7 3z"/><path class="st1" d="M63 41.2c6.8 0 13.6 1.8 20.1 4.1 5.6 2 11.1 4.7 15 9.1 3.3 3.9 5.2 8.8 7.9 13.1 3.6 5.6 8.8 10 13.4 14.9s8.8 10.6 9.7 17.2c1 7.2-2.5 14.8-8.5 18.8-3.1 2-6.8 3.1-10.5 3.1-3.5 0-7.1-.9-10.1-2.8-8.8-5.5-17.1-14-18.2-24.8-.4-4.1-.1-9.6-3.5-12-2.7-1.9-6-2.5-9.4-2.5-1.4 0-2.7.1-4.1.2-3.4.4-6.7 1-10.1 1-1.3 0-2.5-.1-3.8-.3-8.1-1.5-14.6-9.2-14.6-17.4 0-9.8 8.5-18.2 17.9-20.7 2.9-.7 5.8-1 8.8-1m0-.7c-3.1 0-6.1.4-8.9 1.1-9 2.4-18.5 10.7-18.5 21.4 0 8.6 6.7 16.6 15.1 18.1 1.2.2 2.5.3 3.9.3 2.4 0 4.9-.3 7.3-.6l2.9-.4c1.5-.2 2.8-.2 4-.2 3.8 0 6.7.8 9 2.3 2.6 1.8 2.8 5.7 3.1 9.2.1.8.1 1.5.2 2.2 1.3 12.6 12.2 21.2 18.5 25.2 3 1.9 6.7 2.9 10.4 2.9 3.9 0 7.7-1.1 10.8-3.2 6.3-4.1 9.8-11.9 8.8-19.4-1-7.4-6.1-13.6-9.9-17.6l-3.8-3.9c-3.4-3.4-6.9-6.9-9.5-10.9-1-1.6-2-3.4-2.9-5.1-1.5-2.8-3-5.7-5.1-8.1-4.2-4.8-10.1-7.4-15.3-9.3-7.5-2.6-14.1-4-20.1-4z"/></g><linearGradient id="leg_shadow_6_" gradientUnits="userSpaceOnUse" x1="2271.341" y1="368.487" x2="2295.979" y2="360.934" gradientTransform="matrix(-.341 .94 .94 .341 516.592 -2185.566)"><stop offset=".213" stop-color="#83CDC2"/><stop offset=".718" stop-color="#7EC254"/><stop offset="1" stop-color="#249DA0"/></linearGradient><path id="leg_shadow_3_" class="st15" d="M100 118.7c-8.8-5.5-17.1-14-18.2-24.8-.4-4.1-.1-9.6-3.5-12-3.8-2.6-8.9-2.7-13.5-2.2s-9.3 1.5-13.9.7c-8.1-1.5-14.6-9.2-14.6-17.4 0-4 1.4-7.7 3.7-10.9v.9c0 8.2 6.5 16 14.6 17.4 4.6.8 9.3-.2 13.9-.7 4.6-.5 9.6-.4 13.5 2.2 3.4 2.3 3.1 7.8 3.5 12 1.1 10.8 9.4 19.2 18.2 24.8 6.1 3.9 14.5 3.8 20.6-.2 2-1.3 3.6-2.9 5-4.8-.4 5.9-3.6 11.6-8.6 14.9-6.2 3.8-14.6 3.9-20.7.1z"/><g id="leg_stitch_2_"><path class="st16" d="M38.4 67.5l1.1.8"/><path class="st17" d="M41.6 69.6c8.8 5.3 19.4 7.6 29.7 6.4 4.5-.5 9.6-1.5 13 1.4 2.9 2.4 3.3 6.5 4.2 10.2 3.4 13.8 16.3 24.6 30.4 25.8"/><path class="st16" d="M120.3 113.4h1.3"/></g><linearGradient id="thigh_highlight_2_" gradientUnits="userSpaceOnUse" x1="2278.801" y1="338.727" x2="2245.959" y2="342.95" gradientTransform="matrix(-.341 .94 .94 .341 516.592 -2185.566)"><stop offset="0" stop-color="#fff" stop-opacity="0"/><stop offset=".724" stop-color="#fff" stop-opacity=".724"/><stop offset="1" stop-color="#fff"/></linearGradient><path id="thigh_highlight_1_" class="st18" d="M54.2 42.3c9.5-2.5 19.6-.4 28.8 3 3.1 1.2 6.3 2.5 9.1 4.2.8 2.4.9 4.8.1 7-2.9 8-16.2 10.6-29.6 5.7-9-3.3-15.7-9-18.4-14.9 2.9-2.3 6.4-4.1 10-5z"/><linearGradient id="leg_highlight_4_" gradientUnits="userSpaceOnUse" x1="2269.385" y1="389.945" x2="2289.559" y2="411.057" gradientTransform="matrix(-.341 .94 .94 .341 516.592 -2185.566)"><stop offset="0" stop-color="#fff" stop-opacity="0"/><stop offset=".724" stop-color="#fff" stop-opacity=".724"/><stop offset="1" stop-color="#fff"/></linearGradient><path id="leg_highlight_3_" class="st19" d="M103.8 81.4c1.2-3.4 3.5-6.2 6.5-8.2 2.9 3.2 6.1 6.2 9 9.3 4.6 4.9 8.8 10.6 9.7 17.2.6 4.6-.5 9.3-3 13.1-.4-.1-.7-.2-1.1-.4-15.7-5.7-25.2-19.6-21.1-31z"/><g id="arm_1_"><path class="st0" d="M101.4 83.9c-5.3 0-10.8-1.9-15.3-5.3-5.5-4.2-9.7-10.5-12.3-18.4-4.5-13.7-2-27.8 6.3-36.1 2.7-2.7 6.3-4.4 9.4-4.4 1.6 0 3 .4 4.2 1.2 3.8 2.6 4.1 7.7 4.3 12.3l.1 2c.6 8.5 4.4 16.7 10.5 22.6l2.1 2c3 2.7 6.1 5.5 6.9 9.4 1.3 6.2-4.3 12-10.1 13.8-2 .6-4 .9-6.1.9z"/><path class="st1" d="M89.5 20c1.4 0 2.8.4 4 1.2 4.2 2.8 3.9 9 4.3 14.1.6 8.6 4.4 16.9 10.6 22.8 3.5 3.4 7.9 6.4 8.9 11.2 1.2 6-4 11.6-9.9 13.4-1.9.6-3.9.9-5.9.9-5.4 0-10.8-2-15.1-5.3-5.9-4.5-9.9-11.2-12.2-18.2-4-12.1-2.8-26.8 6.3-35.7 2.3-2.5 5.8-4.4 9-4.4m0-.7c-3.1 0-6.8 1.7-9.6 4.5-8.4 8.3-11 22.6-6.4 36.4 2.6 7.9 6.9 14.3 12.4 18.6 4.6 3.5 10.1 5.4 15.5 5.4 2.1 0 4.2-.3 6.1-.9 6-1.8 11.6-7.8 10.3-14.2-.8-4-3.9-6.8-7-9.6l-2.1-1.9c-6-5.9-9.8-14-10.4-22.4 0-.6-.1-1.3-.1-2-.2-4.6-.5-9.9-4.4-12.6-1.2-.8-2.6-1.3-4.3-1.3z"/></g><linearGradient id="arm_highlight_2_" gradientUnits="userSpaceOnUse" x1="299.862" y1="-200.796" x2="277.397" y2="-213.702" gradientTransform="matrix(-.723 -.691 -.691 .723 165.364 413.305)"><stop offset="0" stop-color="#fff" stop-opacity="0"/><stop offset=".724" stop-color="#fff" stop-opacity=".724"/><stop offset="1" stop-color="#fff"/></linearGradient><path id="arm_highlight_1_" class="st20" d="M117.2 69.3c1.2 6-4 11.6-9.9 13.4-.8.2-1.6.4-2.5.6-2-1.2-3.9-2.7-5.7-4.4-9.6-9.1-11.9-22.2-5.3-29.1 1.8-1.8 4-3 6.4-3.7 1.8 4.5 4.6 8.6 8.1 12 3.5 3.3 8 6.4 8.9 11.2z"/><linearGradient id="arm_shadow_2_" gradientUnits="userSpaceOnUse" x1="277.04" y1="-225.383" x2="321.372" y2="-201.257" gradientTransform="matrix(-.723 -.691 -.691 .723 165.364 413.305)"><stop offset=".213" stop-color="#83CDC2"/><stop offset=".718" stop-color="#7EC254"/><stop offset="1" stop-color="#249DA0"/></linearGradient><path id="arm_shadow_1_" class="st21" d="M93.5 21.2c.4.3.8.6 1.1.9-1.3.7-2.4 1.6-3.4 2.6-9.1 9-10.2 23.6-6.3 35.7 2.3 7.1 6.3 13.7 12.2 18.2 2.6 2 5.6 3.4 8.7 4.3-6.7 1.5-14.1-.5-19.6-4.7-5.9-4.5-9.9-11.2-12.2-18.2-4-12.1-2.8-26.8 6.3-35.7 3.6-3.4 9.2-5.8 13.2-3.1z"/><path id="arm_stitch_2_" class="st7" d="M108.5 82.2c-10.9-5.5-19.4-15.5-23.1-27.2-3.7-11.6-2.9-24.2 2.8-35"/></svg>