<svg xmlns="http://www.w3.org/2000/svg" viewBox="0 0 229 259" enable-background="new 0 0 229 259"><style type="text/css">.st0{fill:#83CDC2;} .st1{fill:#231F20;} .st2{fill:url(#leg_shadow_1_);} .st3{fill:none;stroke:#275D5F;stroke-width:0.6564;stroke-miterlimit:10;} .st4{fill:none;stroke:#275D5F;stroke-width:0.6564;stroke-miterlimit:10;stroke-dasharray:2.6132,2.6132;} .st5{opacity:0.52;fill:url(#leg_highlight_1_);} .st6{fill:url(#left_arm_shadow_2_);} .st7{fill:none;stroke:#275D5F;stroke-width:0.6564;stroke-miterlimit:10;stroke-dasharray:2.6256;} .st8{fill:url(#tail_shadow_2_);} .st9{fill:url(#body_shadow_1_);} .st10{fill:url(#body_shadow_4_);} .st11{fill:none;stroke:#275D5F;stroke-width:0.6564;stroke-miterlimit:10;stroke-dasharray:2.6078,2.6078;} .st12{opacity:0.56;fill:url(#tail_highlight_2_);} .st13{fill:url(#leg_shadow_2_);} .st14{fill:none;stroke:#231F20;stroke-width:0.6564;stroke-miterlimit:10;} .st15{fill:none;stroke:#231F20;stroke-width:0.6564;stroke-miterlimit:10;stroke-dasharray:2.6132,2.6132;} .st16{opacity:0.55;fill:url(#thigh_highlight_2_);} .st17{opacity:0.58;fill:url(#leg_highlight_4_);} .st18{opacity:0.7;fill:url(#arm_highlight_2_);} .st19{fill:url(#arm_shadow_2_);} .st20{fill:url(#ear_shadow_1_);} .st21{fill:url(#ear_circle_shadow_2_);} .st22{fill:#E3C84C;} .st23{fill:url(#ear_shadow_2_);} .st24{opacity:0.77;fill:url(#ear_shadow_3_);} .st25{fill:url(#ear_shadow_8_);} .st26{opacity:0.6;fill:url(#ear_1_);} .st27{fill:url(#head_shadow_2_);} .st28{opacity:0.57;fill:url(#head_highlight_2_);} .st29{fill:url(#face_shadow_2_);} .st30{fill:#FFFFFF;} .st31{fill:url(#face_1_);} .st32{opacity:0.63;fill:url(#nose_1_);} .st33{fill:#231F20;stroke:#231F20;stroke-width:0.6564;stroke-miterlimit:10;} .st34{fill:#564337;} .st35{opacity:0.48;fill:url(#ear_highlight_1_);} .st36{fill:url(#eye_shadow_1_);} .st37{fill:url(#eye_shadow_4_);} .st38{fill:url(#eye_colour_2_);} .st39{fill:url(#eye_colour_3_);} .st40{opacity:0.61;fill:#FFFFFF;} .st41{opacity:0.67;fill:url(#ear_highlight_4_);}</style><g id="left_leg_1_"><path class="st0" d="M199.4 206.9c-1.5 0-3-.2-4.4-.5-7.2-1.8-20.1-6.5-25.3-18l-.9-2.1c-1.4-3.3-2.9-7.1-6-8-1.1-.3-2.2-.5-3.5-.5-2.8 0-5.9.8-9.8 2.6-.9.4-1.8.8-2.7 1.3-3.3 1.6-6.7 3.2-10.4 3.8-.8.1-1.5.2-2.3.2-7.7 0-15-5.2-17.4-12.4-3.3-10 3-20.6 10.7-25.6 6.5-4.2 14.8-6.3 25.5-6.3 1 0 2 0 3 .1 5.5.2 11.9.8 17.3 4 2.8 1.6 5.1 3.9 7.4 6.1 1.4 1.3 2.8 2.7 4.3 3.9 3.8 3 8.2 5.3 12.5 7.4 1.6.8 3.3 1.6 4.8 2.5 4.8 2.6 11.5 6.8 14.7 13.4 3.3 6.7 2.4 15.1-2.2 20.8-3.5 4.5-9.4 7.3-15.3 7.3z"/><path class="st1" d="M152.9 141.7c1 0 2 0 3 .1 5.9.2 12 .9 17.1 4 4.4 2.6 7.7 6.7 11.6 10 5.2 4.2 11.5 6.8 17.4 10 5.9 3.2 11.7 7.3 14.6 13.3 3.2 6.5 2.3 14.8-2.2 20.5-3.6 4.5-9.4 7.2-15.1 7.2-1.5 0-2.9-.2-4.3-.5-10.1-2.5-20.6-7.9-25.1-17.8-1.7-3.8-3.1-9.1-7.1-10.2-1.2-.3-2.4-.5-3.5-.5-3.4 0-6.8 1.2-9.9 2.6-4.2 1.9-8.4 4.3-13 5-.7.1-1.5.2-2.2.2-7.4 0-14.7-5-17.1-12.1-3.1-9.3 2.3-19.9 10.5-25.3 7.4-5.1 16.5-6.5 25.3-6.5m0-.7c-10.8 0-19.2 2.1-25.7 6.3-7.7 5.1-14.2 15.9-10.8 26 2.4 7.3 9.9 12.6 17.7 12.6.8 0 1.6-.1 2.3-.2 3.7-.5 7.2-2.2 10.5-3.8.9-.4 1.8-.9 2.6-1.3 3.8-1.7 6.9-2.6 9.7-2.6 1.2 0 2.3.2 3.4.5 3 .9 4.5 4.6 5.8 7.8l.9 2.1c5.2 11.6 18.2 16.3 25.5 18.2 1.5.4 3 .5 4.5.5 6 0 12-2.8 15.6-7.4 4.7-5.9 5.6-14.4 2.3-21.2-3.3-6.8-10.1-11-14.9-13.6-1.6-.9-3.3-1.7-4.9-2.5-4.3-2.1-8.7-4.4-12.4-7.4-1.5-1.2-2.9-2.6-4.3-3.9-2.3-2.2-4.6-4.5-7.4-6.1-5.4-3.3-11.9-3.9-17.5-4.1-.9.1-1.9.1-2.9.1z"/></g><linearGradient id="leg_shadow_1_" gradientUnits="userSpaceOnUse" x1="1958.607" y1="604.311" x2="1985.281" y2="604.311" gradientTransform="matrix(-.568 .823 .823 .568 791.024 -1790.649)"><stop offset=".213" stop-color="#83CDC2"/><stop offset=".718" stop-color="#7EC254"/><stop offset="1" stop-color="#249DA0"/></linearGradient><path id="leg_shadow_5_" class="st2" d="M117.1 173.2c-3.1-9.3 2.3-19.9 10.5-25.3 7.5-4.9 16.8-6.3 25.9-6.2-1.7 4.9-.3 11.6.4 18.4.8 7.9-1.5 14.8 4.3 14.3 3.3-.3 6.5-2.3 9.7-3.9 3.2-1.6 3.4-1.3 6.4.4 2.6 1.5 1.6 6.3 2.3 10.2 1.8 10.2 13.1 15.5 19.7 18.8 4.6 2.3 15.4 2.8 19.4-2.2l-1.2 1.8c-4.5 5.7-12.4 8.4-19.5 6.7-10.1-2.5-20.6-7.9-25.1-17.8-1.7-3.8-3.1-9.1-7.1-10.2-4.5-1.3-9.3.2-13.5 2.1-4.2 1.9-8.4 4.3-13 5-8 1-16.6-4.3-19.2-12.1z"/><g id="leg_stitch_6_"><path class="st3" d="M120.3 172.5l1.2.5"/><path class="st4" d="M124 173.9c9.8 3.3 20.6 3.3 30.4-.1 4.3-1.5 9-3.5 13-1.4 3.3 1.7 4.7 5.7 6.3 9 6.2 12.8 21.1 20.6 35.2 18.8"/><path class="st3" d="M210.1 200l1.3-.3"/></g><linearGradient id="leg_highlight_1_" gradientUnits="userSpaceOnUse" x1="1956.355" y1="610.582" x2="1955.398" y2="656.02" gradientTransform="matrix(-.568 .823 .823 .568 791.024 -1790.649)"><stop offset="0" stop-color="#fff" stop-opacity="0"/><stop offset="1" stop-color="#fff"/></linearGradient><path id="leg_highlight_2_" class="st5" d="M182.3 160c1-1.4 2.2-2.6 3.7-3.4 4.9 3.7 10.7 6.1 16.1 9 5.9 3.2 11.7 7.3 14.6 13.3 1.3 2.7 1.9 5.7 1.9 8.8-5.7 5.7-17.1 5.4-26.7-1.2-10.4-7.2-14.7-19.1-9.6-26.5z"/><g id="left_arm_1_"><path class="st0" d="M148.8 145.8c-1.1 0-2.3 0-3.4-.1-14.4-1-26.5-8.7-31-19.6-1.9-4.6-2-10.9 2.2-13.7 1.3-.9 2.8-1.3 4.6-1.3 2.7 0 5.6 1 8.4 2l1.9.7c3.5 1.2 7.2 1.8 11 1.8 4.8 0 9.6-1 13.9-2.9l2.6-1.2c3-1.5 6.2-3 9.4-3 .6 0 1.3.1 1.9.2 6.3 1.2 9.5 8.5 8.9 14.6-.7 7.1-5.4 14-12.2 18-5 2.9-11.3 4.5-18.2 4.5z"/><path class="st1" d="M168.5 108.8c.6 0 1.2.1 1.8.2 6 1.1 9.2 8.2 8.7 14.2-.7 7.4-5.6 14-12.1 17.8-5.4 3.2-11.8 4.5-18.1 4.5-1.1 0-2.2 0-3.4-.1-12.7-.9-25.8-7.6-30.7-19.3-1.9-4.5-1.9-10.6 2.1-13.3 1.4-.9 2.9-1.3 4.4-1.3 3.3 0 6.9 1.6 10.2 2.7 3.6 1.2 7.3 1.8 11.1 1.8 4.8 0 9.6-1 14-2.9 4-1.9 7.9-4.3 12-4.3m0-.7c-3.3 0-6.5 1.5-9.6 3l-2.6 1.2c-4.3 1.9-9 2.8-13.8 2.8-3.8 0-7.4-.6-10.9-1.8-.6-.2-1.2-.4-1.9-.7-2.8-1-5.7-2-8.5-2-1.8 0-3.4.4-4.8 1.4-4.4 2.9-4.3 9.4-2.4 14.1 4.5 11 16.8 18.7 31.3 19.8 1.1.1 2.3.1 3.4.1 7 0 13.3-1.6 18.5-4.6 7-4.1 11.7-11.1 12.4-18.3.6-6.2-2.8-13.7-9.2-14.9-.6 0-1.2-.1-1.9-.1z"/></g><linearGradient id="left_arm_shadow_2_" gradientUnits="userSpaceOnUse" x1="342.066" y1="-74.288" x2="376.491" y2="-53.411" gradientTransform="matrix(-.995 -.104 -.104 .995 500.994 223.626)"><stop offset=".213" stop-color="#83CDC2"/><stop offset=".718" stop-color="#7EC254"/><stop offset="1" stop-color="#249DA0"/></linearGradient><path id="left_arm_shadow_1_" class="st6" d="M116.9 112.6c4.2-2.8 9.8-.2 14.6 1.4 1.8.6 3.6 1 5.4 1.3-1 .4-2 1.1-3.1 2.2-2.9 2.9-2.2 5.2-2.5 9.8-.7 10 17.1 11.1 27.5 9.5 6.1-.9 12.2-3.2 16.9-7.4 1-.9 1.9-1.9 2.8-2.9-1.7 6-6 11.2-11.4 14.4-6.4 3.8-14.1 4.9-21.5 4.4-12.7-.9-25.8-7.6-30.7-19.3-2-4.5-2.1-10.6 2-13.4z"/><path id="arm_stitch_3_" class="st7" d="M179 122.2c-9.3 7.9-21.9 11.8-34.1 10.6-12.2-1.1-23.3-6.8-31.1-16.3"/><g id="tail_1_"><path class="st0" d="M60.5 188.6c-4.3 0-8.5-1.9-11.3-5.3-2.6-3-3.9-6.8-3.6-10.6.2-3.9 1.9-7.4 4.8-9.8 2.5-2.1 5.7-3.3 9.1-3.3 4.3 0 8.5 1.9 11.3 5.3 2.6 3 3.9 6.8 3.6 10.6-.2 3.9-1.9 7.4-4.8 9.8-2.5 2.2-5.8 3.3-9.1 3.3z"/><path class="st1" d="M59.4 159.9c4.1 0 8.2 1.8 11.1 5.2 5.2 6 4.7 15-1.1 20-2.5 2.2-5.7 3.2-8.8 3.2-4.1 0-8.2-1.8-11.1-5.2-5.2-6-4.7-15 1.1-20 2.5-2.1 5.6-3.2 8.8-3.2m0-.6c-3.4 0-6.7 1.2-9.3 3.4-6.1 5.2-6.6 14.6-1.2 20.9 2.9 3.4 7.2 5.4 11.6 5.4 3.4 0 6.7-1.2 9.3-3.4 6.1-5.2 6.6-14.6 1.2-20.9-3-3.5-7.2-5.4-11.6-5.4z"/></g><radialGradient id="tail_shadow_2_" cx="135.678" cy="160.473" r="16.582" fx="151.255" fy="154.784" gradientTransform="matrix(-.759 .651 .651 .759 58.35 -35.907)" gradientUnits="userSpaceOnUse"><stop offset=".47" stop-color="#83CDC2"/><stop offset=".718" stop-color="#7EC254"/><stop offset="1" stop-color="#249DA0"/></radialGradient><path id="tail_shadow_1_" class="st8" d="M46.1 176c.5 1.1 1.2 2.2 2 3.3 4.5 5.3 12.3 6 17.4 1.7 5.1-4.3 5.5-12.1 1-17.4-1.2-1.4-2.7-2.5-4.3-3.3 3.1.6 6.1 2.3 8.4 4.9 5.2 6 4.7 15-1.1 20-5.8 5-14.7 4.1-19.9-1.9-2-2.3-3.1-4.8-3.5-7.3z"/><g id="body_1_"><path class="st0" d="M93.7 187.9c-7.2-.1-14.2-3.6-18.9-9.4-4.6-5.6-6.5-13.3-5.2-20.4.9-5.1 3.4-9.8 5.8-14.3l1.6-3c2.5-4.9 5.3-11.4 4.3-17.7v-.2l.1-.1c2.9-2.4 28.5-23.7 30.9-23.7.1 0 .2 0 .3.1 6.9 5.8 12 13.5 14.2 21.7l5.6 29.9c.5 4.6-.8 10.1-3.1 14.1-.1.2-14.3 23-35 23h-.6z"/><path class="st1" d="M112.3 99.5h.1c6.7 5.6 11.8 13.1 14.1 21.5l5.6 29.8c.5 4.5-.7 10-3.1 13.9 0 0-13.9 22.8-34.7 22.8h-.5c-7.1-.1-14.1-3.7-18.6-9.2-4.5-5.6-6.4-13.1-5.1-20.1 1.1-6.2 4.5-11.6 7.3-17.2s5.3-11.8 4.3-17.9c-.1 0 28.2-23.6 30.6-23.6m0-.7c-2.4 0-24.4 18.2-31.1 23.8l-.3.2.1.4c1 6.3-1.8 12.7-4.2 17.5-.5 1-1 2-1.6 3-2.4 4.5-4.9 9.2-5.8 14.4-1.3 7.2.7 14.9 5.3 20.7 4.7 5.8 11.8 9.3 19.1 9.5h.5c20.9 0 35.1-22.9 35.3-23.1 2.4-4 3.7-9.7 3.2-14.3l-5.6-29.8c-2.2-8.3-7.3-16-14.3-21.9-.2-.3-.4-.4-.6-.4z"/></g><linearGradient id="body_shadow_1_" gradientUnits="userSpaceOnUse" x1="91.759" y1="173.35" x2="128.758" y2="181.502" gradientTransform="matrix(-.759 .651 .651 .759 58.35 -35.907)"><stop offset=".213" stop-color="#83CDC2"/><stop offset=".718" stop-color="#7EC254"/><stop offset="1" stop-color="#249DA0"/></linearGradient><path id="body_shadow_3_" class="st9" d="M69.9 158.2c1-5.4 3.7-10.3 6.3-15.2-1.1 6.9.8 14.2 5.2 19.6 4.5 5.6 11.5 9.1 18.6 9.2 15.1.3 26.7-11.6 32-18.3-.1 3.9-1.3 8.1-3.2 11.3 0 0-14.2 23.2-35.2 22.8-7.1-.1-14.1-3.7-18.6-9.2-4.4-5.6-6.3-13.1-5.1-20.2z"/><radialGradient id="body_shadow_4_" cx="71.543" cy="130.626" r="36.004" fx="68.135" fy="132.805" gradientTransform="matrix(-.759 .651 .396 .462 91.68 2.962)" gradientUnits="userSpaceOnUse"><stop offset=".408" stop-color="#249DA0"/><stop offset=".655" stop-color="#7EC254"/><stop offset=".94" stop-color="#83CDC2"/></radialGradient><path id="body_shadow_2_" class="st10" d="M79.3 136.8c1.8-4.4 3-9.1 2.3-13.7 0 0 29.5-24.7 30.8-23.6 2.1 1.8 4 3.7 5.8 5.8-10.3 21.8-28.6 29.1-38.9 31.5z"/><g id="stitch_1_"><path class="st3" d="M92.8 118.4l.3 1.3"/><path class="st11" d="M93.2 122.3c-.2 3.8-1.8 7.5-3.8 10.8-2.6 4.5-5.8 8.7-7.1 13.7-1.9 7.7 1.9 16.5 8.6 20.6"/><path class="st3" d="M92.1 168l1.2.6"/></g><linearGradient id="tail_highlight_2_" gradientUnits="userSpaceOnUse" x1="124.134" y1="155.155" x2="145.347" y2="155.155" gradientTransform="matrix(-.759 .651 .651 .759 58.35 -35.907)"><stop offset="0" stop-color="#fff" stop-opacity="0"/><stop offset="1" stop-color="#fff"/></linearGradient><path id="tail_highlight_1_" class="st12" d="M48.2 175.5c-1.1-1.3-1.8-2.7-2.2-4.3.5-3.1 2-5.9 4.5-8.1 3.5-3 8.1-3.9 12.3-2.8.5.4 1 .8 1.4 1.3 3.7 4.3 3.1 10.9-1.3 14.8-4.4 3.9-11 3.5-14.7-.9z"/><g id="right_leg_1_"><path class="st0" d="M154.3 253.6c-5.8 0-11.4-2.5-15-6.8-4.8-5.7-12.5-17.1-9.9-29.4.1-.7.3-1.4.5-2.2.8-3.5 1.8-7.4-.2-10-3-3.9-8.3-5.3-12-6.1-1-.2-1.9-.4-2.9-.5-3.6-.6-7.3-1.3-10.6-3.1-7.4-3.9-11.3-13.5-8.8-21.4 3-9.5 13.6-14.5 22.5-14.5h1.2c8.4.4 17.1 4.2 26.7 11.7 4.4 3.4 9.2 7.6 11.7 13.4 1.3 2.9 1.8 6.1 2.4 9.2.3 1.9.7 3.8 1.2 5.7 1.3 4.7 3.5 9.1 5.8 13.3.8 1.6 1.7 3.2 2.5 4.9 2.4 4.9 5.3 12.2 4.1 19.5-1.3 7.3-6.9 13.6-14 15.6-1.7.5-3.4.7-5.2.7z"/><path class="st1" d="M118 159.9h1.2c9.8.5 18.8 5.6 26.6 11.6 4.7 3.6 9.2 7.8 11.5 13.3 2 4.7 2.2 10 3.6 14.9 1.7 6.5 5.3 12.2 8.2 18.3 2.9 6 5.2 12.7 4 19.3-1.3 7.1-6.8 13.4-13.8 15.3-1.6.5-3.3.7-4.9.7-5.6 0-11.1-2.4-14.7-6.7-6.7-7.9-12.1-18.5-9.9-29.1.8-4.1 2.8-9.2.2-12.5-2.9-3.7-7.6-5.3-12.2-6.2-4.6-.9-9.3-1.4-13.4-3.6-7.3-3.8-11.1-13.2-8.6-21 2.8-9 12.7-14.3 22.2-14.3m0-.7c-9 0-19.7 5.1-22.8 14.8-2.6 8.2 1.3 17.8 8.9 21.8 3.3 1.8 7.1 2.4 10.7 3.1l2.9.5c3.6.7 8.8 2.1 11.8 5.9 1.9 2.5 1 6.3.1 9.7-.2.8-.4 1.5-.5 2.2-2.6 12.4 5.2 23.9 10 29.7 3.6 4.3 9.3 6.9 15.2 6.9 1.8 0 3.5-.2 5.1-.7 7.2-2 13-8.4 14.3-15.8 1.3-7.4-1.7-14.8-4.1-19.7-.8-1.6-1.6-3.3-2.5-4.9-2.2-4.2-4.5-8.6-5.7-13.3-.5-1.9-.9-3.8-1.2-5.7-.6-3.1-1.1-6.3-2.4-9.3-2.5-5.8-7.3-10.1-11.8-13.5-9.7-7.5-18.5-11.3-26.9-11.7h-1.1z"/></g><linearGradient id="leg_shadow_2_" gradientUnits="userSpaceOnUse" x1="2083.942" y1="568.041" x2="2108.58" y2="560.487" gradientTransform="matrix(-.61 .793 .793 .61 962.044 -1796.406)"><stop offset=".213" stop-color="#83CDC2"/><stop offset=".718" stop-color="#7EC254"/><stop offset="1" stop-color="#249DA0"/></linearGradient><path id="leg_shadow_3_" class="st13" d="M139.6 246.6c-6.7-7.9-12.1-18.5-9.9-29.1.8-4.1 2.8-9.2.2-12.5-2.9-3.7-7.6-5.3-12.2-6.2-4.6-.9-9.3-1.4-13.4-3.6-7.3-3.8-11.1-13.2-8.6-21 1.2-3.8 3.7-6.9 6.8-9.3l-.3.8c-2.5 7.8 1.3 17.2 8.6 21 4.1 2.2 8.9 2.6 13.4 3.6 4.6.9 9.3 2.5 12.2 6.2 2.5 3.3.6 8.4-.2 12.5-2.2 10.6 3.2 21.2 9.8 29.1 4.7 5.5 12.7 8 19.7 6 2.2-.6 4.3-1.7 6.2-3.1-2.2 5.5-7 10-12.7 11.6-6.9 2-14.9-.5-19.6-6z"/><g id="leg_stitch_2_"><path class="st14" d="M96.4 179.1c.3.4.5.7.8 1"/><path class="st15" d="M98.9 182.2c6.8 7.7 16.2 13.1 26.4 15.1 4.4.8 9.6 1.4 12 5.2 2 3.2 1.2 7.2 1 11-1 14.2 8.1 28.4 21.1 33.8"/><path class="st14" d="M160.5 247.7c.4.2.8.3 1.2.4"/></g><linearGradient id="thigh_highlight_2_" gradientUnits="userSpaceOnUse" x1="2091.403" y1="538.281" x2="2058.56" y2="542.504" gradientTransform="matrix(-.61 .793 .793 .61 962.044 -1796.406)"><stop offset="0" stop-color="#fff" stop-opacity="0"/><stop offset=".724" stop-color="#fff" stop-opacity=".724"/><stop offset="1" stop-color="#fff"/></linearGradient><path id="thigh_highlight_1_" class="st16" d="M119.1 159.9c9.8.5 18.8 5.6 26.6 11.6 2.6 2 5.2 4.3 7.4 6.8 0 2.5-.6 4.9-2 6.7-5.2 6.8-18.6 5.2-30-3.5-7.6-5.8-12.3-13.3-13-19.7 3.5-1.4 7.3-2.1 11-1.9z"/><linearGradient id="leg_highlight_4_" gradientUnits="userSpaceOnUse" x1="2081.986" y1="589.498" x2="2102.16" y2="610.611" gradientTransform="matrix(-.61 .793 .793 .61 962.044 -1796.406)"><stop offset="0" stop-color="#fff" stop-opacity="0"/><stop offset=".724" stop-color="#fff" stop-opacity=".724"/><stop offset="1" stop-color="#fff"/></linearGradient><path id="leg_highlight_3_" class="st17" d="M154.6 212.2c2.2-2.8 5.2-4.8 8.7-5.9 1.8 3.9 3.9 7.7 5.8 11.6 2.9 6 5.2 12.7 4 19.3-.8 4.5-3.3 8.7-6.9 11.6-.3-.2-.6-.4-.9-.7-13.3-10.1-18.1-26.2-10.7-35.9z"/><g id="arm_1_"><path class="st0" d="M143 167.6c-2.8 0-5.7-.3-8.4-.8-8.1-1.6-15-5-19.8-9.9-5.6-5.7-8.3-13.6-7.1-20.6 1-5.8 5.7-11.8 11.7-11.8h.7c4 .3 7.1 3 10.2 5.6l2.2 1.9c6.1 4.9 13.9 7.6 21.8 7.6.7 0 1.3 0 2-.1l2-.1c1.4-.1 2.9-.2 4.4-.2 2.7 0 6.1.3 8.4 3 3.4 3.9 1.6 9.9-1.4 13.8-5.7 7.4-15.4 11.6-26.7 11.6z"/><path class="st1" d="M119.5 124.8h.7c4.8.4 8.4 4.4 12.2 7.4 6.2 5 14.1 7.7 22 7.7.7 0 1.3 0 2-.1 2-.1 4.2-.4 6.4-.4 3.2 0 6.1.5 8.1 2.8 3.2 3.7 1.5 9.6-1.5 13.4-6.1 7.9-16.2 11.5-26.3 11.5-2.8 0-5.6-.3-8.4-.8-7.3-1.4-14.4-4.6-19.6-9.9-5.2-5.3-8.2-13-7-20.3 1-5.6 5.6-11.3 11.4-11.3m0-.6c-6.3 0-11 6.1-12.1 12-1.2 7.1 1.5 15.1 7.2 20.9 4.9 5 11.8 8.4 19.9 10 2.8.5 5.6.8 8.5.8 11.3 0 21.1-4.3 26.8-11.7 3.1-4.1 4.9-10.3 1.4-14.3-2.4-2.7-5.8-3.1-8.6-3.1-1.5 0-3 .1-4.4.2-.7.1-1.3.1-2 .1-.6 0-1.3.1-2 .1-7.8 0-15.5-2.7-21.6-7.6l-2.2-1.8c-3.1-2.7-6.3-5.4-10.4-5.7 0 .1-.3.1-.5.1v.7-.7z"/></g><linearGradient id="arm_highlight_2_" gradientUnits="userSpaceOnUse" x1="349.877" y1="-23.726" x2="327.411" y2="-36.632" gradientTransform="matrix(.776 .631 -.631 .776 -154.214 -49.126)"><stop offset="0" stop-color="#fff" stop-opacity="0"/><stop offset=".724" stop-color="#fff" stop-opacity=".724"/><stop offset="1" stop-color="#fff"/></linearGradient><path id="arm_highlight_1_" class="st18" d="M120.2 124.9c-6.1-.5-11.1 5.5-12.1 11.5l-.3 2.5c1.4 1.8 3.1 3.6 5.1 5.1 10.3 8.3 23.5 9.1 29.6 1.6 1.6-2 2.5-4.3 2.9-6.8-4.7-1.3-9.1-3.5-12.9-6.5-3.9-3-7.5-7.1-12.3-7.4z"/><linearGradient id="arm_shadow_2_" gradientUnits="userSpaceOnUse" x1="327.054" y1="-48.313" x2="371.387" y2="-24.188" gradientTransform="matrix(.776 .631 -.631 .776 -154.214 -49.126)"><stop offset=".213" stop-color="#83CDC2"/><stop offset=".718" stop-color="#7EC254"/><stop offset="1" stop-color="#249DA0"/></linearGradient><path id="arm_shadow_1_" class="st19" d="M170.8 142.4c-.3-.4-.7-.7-1.1-1-.6 1.3-1.3 2.6-2.1 3.7-7.8 10.1-22.2 13.1-34.7 10.6-7.3-1.4-14.4-4.6-19.6-9.9-2.3-2.3-4.1-5.1-5.4-8.1-.7 6.9 2.3 13.9 7.1 18.9 5.2 5.3 12.3 8.4 19.6 9.9 12.5 2.5 26.9-.5 34.7-10.6 3-3.9 4.7-9.8 1.5-13.5z"/><path id="arm_stitch_2_" class="st7" d="M108.3 135.1c6.8 10.1 17.8 17.4 29.8 19.6 12 2.2 24.3-.2 34.3-7.1"/><g id="ear_12_"><path class="st0" d="M27.9 76.1c-2.1 0-4.1-.3-6.1-.8-12.4-3.5-19.5-16.7-15.9-29.5 2.9-10.4 12.3-17.7 22.8-17.7 2.1 0 4.1.3 6.1.8 12.4 3.5 19.5 16.7 15.9 29.5-2.9 10.4-12.3 17.7-22.8 17.7z"/><path class="st1" d="M28.7 28.4c2 0 4 .3 6 .8 12.2 3.4 19.2 16.4 15.7 29.1-3 10.5-12.4 17.5-22.5 17.5-2 0-4-.3-6-.8-12.2-3.5-19.3-16.5-15.7-29.1 2.9-10.6 12.3-17.5 22.5-17.5m0-.7c-10.6 0-20.2 7.4-23.1 18-3.7 12.9 3.6 26.3 16.1 29.9 2 .6 4.1.9 6.2.9 10.6 0 20.2-7.4 23.1-18 3.6-12.9-3.6-26.3-16.2-29.9-2-.6-4-.9-6.1-.9z"/></g><radialGradient id="ear_shadow_1_" cx="-278.073" cy="-545.876" r="31.659" gradientTransform="matrix(-.908 -.418 -.363 .79 -424.457 362.546)" gradientUnits="userSpaceOnUse"><stop offset=".357" stop-color="#83CDC2"/><stop offset=".581" stop-color="#83CDC2"/><stop offset=".771" stop-color="#7EC254"/><stop offset="1" stop-color="#249DA0"/></radialGradient><path id="ear_shadow_7_" class="st20" d="M19.7 60.5c12.2 3.4 25-4 28.5-16.6.3-.9.4-1.8.6-2.8 2.5 5.1 3.3 11.2 1.6 17.2-3.5 12.6-16.3 20.1-28.5 16.6-11.3-3.2-18.2-14.6-16.3-26.3 2.8 5.6 7.7 10.1 14.1 11.9z"/><radialGradient id="ear_circle_shadow_2_" cx="-288.821" cy="-540.729" r="14.412" gradientTransform="matrix(-.908 -.418 -.418 .908 -454.155 427.124)" gradientUnits="userSpaceOnUse"><stop offset=".214" stop-color="#048688"/><stop offset=".439" stop-color="#048688"/><stop offset=".621" stop-color="#06898C" stop-opacity=".739"/><stop offset=".756" stop-color="#249DA0" stop-opacity=".578"/><stop offset="1" stop-color="#249DA0" stop-opacity="0"/></radialGradient><path id="ear_circle_shadow_1_" class="st21" d="M29.2 71.2c9 2.5 18.3-2.9 20.9-12 2.6-9.2-2.6-18.6-11.6-21.1s-18.3 2.9-20.9 12c-2.5 9.1 2.7 18.6 11.6 21.1z"/><ellipse id="ear_11_" transform="matrix(-.27 .963 -.963 -.27 98.466 36.14)" class="st22" cx="35.5" cy="55.4" rx="11.7" ry="11.5"/><g id="ear_9_"><path class="st0" d="M144.6 53.1c-5.3 0-10.3-1.7-14.6-4.9-5.2-3.8-8.6-9.4-9.6-15.6-1-6.2.4-12.4 4.1-17.4 4.4-5.9 11.1-9.3 18.6-9.3 5.3 0 10.3 1.7 14.6 4.9 10.7 7.9 13.1 22.7 5.5 33-4.3 5.9-11.1 9.3-18.6 9.3z"/><path class="st1" d="M143.2 6.3c5 0 10 1.6 14.4 4.8 10.5 7.8 13 22.4 5.4 32.6-4.4 6-11.3 9.1-18.4 9.1-5 0-10-1.6-14.4-4.8-10.5-7.8-13-22.4-5.4-32.6 4.5-6 11.4-9.1 18.4-9.1m0-.7c-7.6 0-14.5 3.4-18.9 9.4-3.8 5.1-5.2 11.4-4.2 17.7 1 6.3 4.5 11.9 9.7 15.8 4.3 3.2 9.5 4.9 14.8 4.9 7.6 0 14.5-3.4 18.9-9.4 7.8-10.5 5.3-25.5-5.5-33.5-4.4-3.2-9.5-4.9-14.8-4.9z"/></g><radialGradient id="ear_shadow_2_" cx="-380.35" cy="-616.35" r="31.962" gradientTransform="matrix(-.714 -.7 -.587 .6 -484.768 129.471)" gradientUnits="userSpaceOnUse"><stop offset=".357" stop-color="#83CDC2"/><stop offset=".581" stop-color="#83CDC2"/><stop offset=".771" stop-color="#7EC254"/><stop offset="1" stop-color="#249DA0"/></radialGradient><path id="ear_shadow_6_" class="st23" d="M124.9 15.4c4.6-6.2 11.9-9.4 19.2-9.1-2.5 2.4-4.5 5.4-5.6 8.9-4 12 2.8 25.2 15.2 29.3 2.5.8 5 1.2 7.5 1.3-7.9 8.3-21.2 9.4-30.9 2.2-10.6-7.8-13-22.4-5.4-32.6z"/><radialGradient id="ear_shadow_3_" cx="-296.938" cy="-539.587" r="14.617" gradientTransform="matrix(-.908 -.418 -.418 .908 -454.155 427.124)" gradientUnits="userSpaceOnUse"><stop offset=".032" stop-color="#C42F28"/><stop offset=".32" stop-color="#F0584A"/><stop offset=".591" stop-color="#EA8F36" stop-opacity=".598"/><stop offset=".608" stop-color="#EA9335" stop-opacity=".573"/><stop offset=".847" stop-color="#F2DE6C" stop-opacity=".308"/><stop offset="1" stop-color="#F2DE6C" stop-opacity="0"/></radialGradient><path id="ear_shadow_5_" class="st24" d="M26.1 51.8c.2-.4.5-.8.8-1.2 4.4-6 13-7.2 19.1-2.6.7.5 1.3 1.1 1.9 1.7 1 3.1.8 6.8-.8 10.3-3 6.6-10.1 9.9-15.7 7.3-5.4-2.5-7.6-9.2-5.3-15.5z"/><radialGradient id="ear_shadow_8_" cx="-374.413" cy="-605.749" r="14.558" gradientTransform="matrix(-.908 -.418 -.418 .908 -454.155 427.124)" gradientUnits="userSpaceOnUse"><stop offset=".214" stop-color="#048688"/><stop offset=".308" stop-color="#048688"/><stop offset=".469" stop-color="#06898C" stop-opacity=".739"/><stop offset=".647" stop-color="#249DA0" stop-opacity=".578"/><stop offset=".804" stop-color="#048688" stop-opacity=".238"/><stop offset="1" stop-color="#249DA0" stop-opacity="0"/></radialGradient><path id="ear_shadow_4_" class="st25" d="M125.8 21.4c-5.6 7.6-3.9 18.3 3.9 24.1 7.7 5.7 18.5 4.2 24.1-3.3 5.6-7.6 3.9-18.3-3.9-24.1-7.7-5.8-18.5-4.3-24.1 3.3z"/><ellipse id="ear_8_" transform="matrix(-.804 -.595 .595 -.804 228.453 145.56)" class="st22" cx="138.2" cy="35.1" rx="11.7" ry="11.5"/><radialGradient id="ear_1_" cx="-373.061" cy="-599.837" r="14.953" gradientTransform="matrix(-.908 -.418 -.418 .908 -454.155 427.124)" gradientUnits="userSpaceOnUse"><stop offset=".032" stop-color="#C42F28"/><stop offset=".32" stop-color="#F0584A"/><stop offset=".591" stop-color="#EA8F36" stop-opacity=".598"/><stop offset=".608" stop-color="#EA9335" stop-opacity=".573"/><stop offset=".847" stop-color="#F2DE6C" stop-opacity=".308"/><stop offset="1" stop-color="#F2DE6C" stop-opacity="0"/></radialGradient><path id="ear_5_" class="st26" d="M123.3 29c-4.9 6.6-3.4 15.9 3.3 20.9 6.7 5 16.1 3.7 20.9-2.9 4.9-6.6 3.4-15.9-3.3-20.9-6.7-4.9-16.1-3.6-20.9 2.9z"/><g id="head_1_"><path class="st0" d="M96.6 127.5c-7.8 0-15.3-1.7-22.5-4.9-13-6-23-16.7-27.9-30.1-5-13.4-4.5-27.9 1.5-40.9 8.7-18.9 27.8-31.1 48.6-31.1 5.9 0 11.7 1 17.2 2.9 1.8.6 3.5 1.3 5.2 2.1 2.2 1 4.3 2.2 6.4 3.4 2.5 1.6 4.9 3.4 7 5.3 4.2 3.8 7.8 8.2 10.7 13.1.8 1.5 1.9 3.6 2.3 4.4 6.6 14.2 6.6 30.5.1 44.7-8.6 18.9-27.7 31.1-48.6 31.1z"/><path class="st1" d="M96.4 20.8c5.7 0 11.5.9 17.1 2.8 1.7.6 3.5 1.3 5.2 2.1 2.2 1 4.3 2.2 6.3 3.4 2.5 1.6 4.8 3.4 7 5.3 4.3 3.8 7.8 8.2 10.6 13.1.8 1.4 1.8 3.5 2.2 4.4 6.3 13.6 6.8 29.8.1 44.4-8.9 19.4-28.2 30.9-48.3 30.9-7.5 0-15.1-1.6-22.3-4.9-26.8-12.4-38.5-44-26.3-70.6 9-19.5 28.2-30.9 48.4-30.9m0-.7c-21 0-40.2 12.3-48.9 31.3-6 13.1-6.5 27.7-1.5 41.2 5 13.5 15 24.2 28.1 30.3 7.2 3.3 14.8 5 22.6 5 21 0 40.2-12.3 48.9-31.3 6.6-14.3 6.5-30.7-.1-45-.4-.8-1.4-2.9-2.3-4.4-2.9-5-6.5-9.4-10.8-13.2-2.2-1.9-4.5-3.7-7.1-5.3-2.1-1.3-4.2-2.5-6.4-3.5-1.7-.8-3.5-1.5-5.3-2.1-5.5-2-11.3-3-17.2-3z"/></g><linearGradient id="head_shadow_2_" gradientUnits="userSpaceOnUse" x1="-355.423" y1="-572.35" x2="-348.289" y2="-515.798" gradientTransform="matrix(-.908 -.418 -.418 .908 -454.155 427.124)"><stop offset=".213" stop-color="#83CDC2"/><stop offset=".718" stop-color="#7EC254"/><stop offset="1" stop-color="#249DA0"/></linearGradient><path id="head_shadow_1_" class="st27" d="M83.9 22.3c-8.8 3.9-16 10.5-20.1 19.4-9.9 21.5 2.2 48.2 27 59.6 19.9 9.1 41.9 5.7 54.9-7.1-.3.7-.6 1.4-.9 2-12.3 26.7-43.9 38.3-70.7 26-26.6-12.3-38.3-43.9-26.1-70.5 7.1-15.4 20.6-25.8 35.9-29.4z"/><linearGradient id="head_highlight_2_" gradientUnits="userSpaceOnUse" x1="-355.39" y1="-549.105" x2="-366.287" y2="-593.297" gradientTransform="matrix(-.908 -.418 -.418 .908 -454.155 427.124)"><stop offset="0" stop-color="#83CDC2"/><stop offset="1" stop-color="#fff"/></linearGradient><path id="head_highlight_1_" class="st28" d="M118.7 25.7c2.2 1 4.3 2.2 6.3 3.4 2.5 1.6 4.8 3.4 7 5.3 4.3 3.8 7.8 8.2 10.6 13.1.8 1.4 1.8 3.5 2.2 4.4 2.3 5.1 3.9 10.5 4.6 16-8.2 17.7-29.3 25.4-47.1 17.2s-25.7-29.3-17.5-47.1c3.6-7.7 9.6-13.5 16.7-17 4 .4 8 1.2 12 2.6 1.7.6 3.5 1.3 5.2 2.1z"/><radialGradient id="face_shadow_2_" cx="-340.766" cy="-563.894" r="31.317" gradientTransform="matrix(-1.002 .008 .024 .817 -225.805 575.068)" gradientUnits="userSpaceOnUse"><stop offset=".363" stop-color="#048688"/><stop offset=".627" stop-color="#06898C" stop-opacity=".739"/><stop offset=".726" stop-color="#249DA0" stop-opacity=".578"/><stop offset="1" stop-color="#249DA0" stop-opacity="0"/></radialGradient><path id="face_shadow_1_" class="st29" d="M75.4 111.7c2.2 10.9 15.4 17.4 29.4 14.5 14-2.9 23.5-14 21.3-24.9-2.2-10.9-15.4-17.4-29.4-14.5-14 2.9-23.5 14.1-21.3 24.9z"/><g id="face_4_"><path class="st30" d="M103.4 126.5c-10.2 0-18.4-5.3-20-12.8-1.9-9.3 6.8-18.9 19.3-21.5 2.1-.4 4.2-.6 6.3-.6 10.2 0 18.4 5.3 20 12.8 1.9 9.3-6.8 18.9-19.3 21.5-2.2.3-4.3.6-6.3.6z"/><path class="st1" d="M109 91.9c9.9 0 18.1 4.9 19.7 12.5 1.9 9.1-6.7 18.6-19.1 21.1-2.1.4-4.2.6-6.2.6-9.9 0-18.1-4.9-19.7-12.5-1.9-9.1 6.7-18.6 19.1-21.1 2.1-.4 4.2-.6 6.2-.6m0-.7c-2.1 0-4.2.2-6.3.7-12.7 2.6-21.5 12.4-19.6 21.9 1.6 7.7 9.9 13 20.3 13 2.1 0 4.2-.2 6.3-.7 6.1-1.3 11.6-4.2 15.2-8.3 3.7-4.1 5.3-9 4.3-13.6-1.5-7.6-9.9-13-20.2-13z"/></g><radialGradient id="face_1_" cx="-376.298" cy="-522.702" r="21.677" gradientTransform="matrix(.997 -.083 -.067 -.806 446.108 -343.219)" gradientUnits="userSpaceOnUse"><stop offset="0" stop-color="#fff"/><stop offset=".667" stop-color="#F2DB9A"/><stop offset="1" stop-color="#E9C44C"/></radialGradient><path id="face_2_" class="st31" d="M83.7 113.6c1.9 9.1 13.5 14.4 25.9 11.9 12.4-2.6 20.9-12 19.1-21.1-1.9-9.1-13.5-14.4-25.9-11.9-12.4 2.6-21 12-19.1 21.1z"/><radialGradient id="nose_1_" cx="-376.647" cy="-527.338" r="5.626" gradientTransform="matrix(-.908 -.418 -.418 .908 -454.155 427.124)" gradientUnits="userSpaceOnUse"><stop offset=".066" stop-color="#C42F28"/><stop offset=".46" stop-color="#F0584A"/><stop offset=".718" stop-color="#EA8F36" stop-opacity=".598"/><stop offset=".734" stop-color="#EA9335" stop-opacity=".573"/><stop offset=".847" stop-color="#F2DE6C" stop-opacity=".308"/><stop offset="1" stop-color="#F2DE6C" stop-opacity="0"/></radialGradient><path id="nose_3_" class="st32" d="M103.7 103.3c-1.2 2.5 0 5.5 2.5 6.7 2.6 1.2 5.6.1 6.7-2.4 1.2-2.5 0-5.5-2.5-6.7-2.5-1.2-5.5-.1-6.7 2.4z"/><ellipse id="nose_2_" transform="matrix(-.908 -.418 .418 -.908 164.989 247.62)" class="st33" cx="109.6" cy="105.8" rx="3.1" ry="3.1"/><path id="head_stitch_1_" class="st7" d="M80 23.6c8.8 8.3 14.3 19.5 17.5 31.2 3.2 11.6 4.3 23.7 5.4 35.8"/><path id="mouth_1_" class="st14" d="M115.7 108c.2 3.8-3 7.4-6.7 7.7-3.8.2-7.4-3-7.6-6.7"/><path id="eyebrow_1_" class="st34" d="M125.4 47.5c-2.1-2.7-5.4-4.7-8.9-4.5-3.5.2-6.7 3.2-6.6 6.7 4.1-3.8 10.6-4.7 15.5-2.2z"/><path id="eye_brow_1_" class="st34" d="M79.6 52.8c-2.5-3.3-6.5-5.7-10.6-5.5-4.1.2-8.1 3.6-7.9 7.7 4.9-4.3 12.6-5.3 18.5-2.2z"/><linearGradient id="ear_highlight_1_" gradientUnits="userSpaceOnUse" x1="-400.917" y1="-619.365" x2="-372.746" y2="-619.365" gradientTransform="matrix(-.908 -.418 -.418 .908 -454.155 427.124)"><stop offset="0" stop-color="#fff" stop-opacity="0"/><stop offset="1" stop-color="#fff"/></linearGradient><path id="ear_highlight_3_" class="st35" d="M155.5 9.7c.7.4 1.4.9 2.1 1.4 9.5 7 12.4 19.6 7.3 29.5-4 1.6-8.7 1.7-13-.3-8.2-3.8-11.7-13.4-8-21.5 2.3-5 6.7-8.2 11.6-9.1z"/><radialGradient id="eye_shadow_1_" cx="-379.25" cy="-563.005" r="20.245" fx="-379.281" fy="-563.012" gradientTransform="matrix(-.908 -.418 -.418 .908 -454.155 427.124)" gradientUnits="userSpaceOnUse"><stop offset=".526" stop-color="#048688"/><stop offset=".698" stop-color="#06898C" stop-opacity=".739"/><stop offset=".832" stop-color="#249DA0" stop-opacity=".578"/><stop offset="1" stop-color="#249DA0" stop-opacity="0"/></radialGradient><path id="eye_shadow_3_" class="st36" d="M103.8 64.8c-5.2 11.3-.4 24.6 10.8 29.8 11.2 5.1 24.4.1 29.6-11.2 5.2-11.3.4-24.6-10.8-29.8s-24.4-.1-29.6 11.2z"/><radialGradient id="eye_shadow_4_" cx="-332.018" cy="-534.203" r="22.459" fx="-332.053" fy="-534.21" gradientTransform="matrix(-.908 -.418 -.418 .908 -454.155 427.124)" gradientUnits="userSpaceOnUse"><stop offset=".526" stop-color="#048688"/><stop offset=".698" stop-color="#06898C" stop-opacity=".739"/><stop offset=".832" stop-color="#249DA0" stop-opacity=".578"/><stop offset="1" stop-color="#249DA0" stop-opacity="0"/></radialGradient><path id="eye_shadow_2_" class="st37" d="M46.4 70.3c-5.8 12.5-.4 27.3 12 33s27.1.2 32.9-12.4c5.8-12.5.4-27.3-12-33s-27.1-.2-32.9 12.4z"/><linearGradient id="eye_colour_2_" gradientUnits="userSpaceOnUse" x1="-392.438" y1="-559.855" x2="-362.76" y2="-559.855" gradientTransform="matrix(-.908 -.418 -.418 .908 -454.155 427.124)"><stop offset="0" stop-color="#DA2128"/><stop offset=".522" stop-color="#EC6C30"/><stop offset="1" stop-color="#EF5023"/></linearGradient><path id="eye_colour_4_" class="st38" d="M126.5 77.2c2.3-5 0-11.1-5.2-13.5-3-1.4-6.3-1.2-9.1.1l.3-.5c.6-.4 15.4-10.5 21.7 12.7 0 0 3.2 13.7-5.2 16.4-2.9.1-5.9-.5-8.7-1.8-4.7-2.1-8.1-5.8-9.9-10.1.7.6 1.5 1.1 2.4 1.6 5.3 2.3 11.4.1 13.7-4.9z"/><path id="left_eye_1_" class="st30" d="M134.2 76c-6.3-23.1-21.1-13.1-21.7-12.7 5.1-6.7 14.3-9.2 22.3-5.5 9.2 4.2 13.3 15.1 9.1 24.3-2.5 5.4-7.4 9.1-12.9 10.2-.6.1-1.3.1-1.9.1 8.4-2.7 5.1-16.4 5.1-16.4z"/><path id="pupil_3_" d="M110.7 66.3c.4-.8.8-1.6 1.3-2.4 0 0 .1 0 .1-.1 2.7-1.3 6-1.5 9.1-.1 5.2 2.4 7.6 8.4 5.2 13.5-2.3 5-8.4 7.2-13.6 4.8-.9-.4-1.7-1-2.4-1.6-.5-1.2-.9-2.4-1.2-3.7-.5-3.3-.1-6.8 1.3-10.1.1-.1.2-.2.2-.3z"/><path id="eyeball_1_" class="st30" d="M78.1 83c-6.7-26-21.7-16.3-22.8-15.5 5.8-5.9 14.9-7.9 22.9-4.2 10.1 4.7 14.5 16.6 9.9 26.7-3.1 6.7-9.4 10.9-16.3 11.6 10.5-2.2 6.3-18.6 6.3-18.6z"/><linearGradient id="eye_colour_3_" gradientUnits="userSpaceOnUse" x1="-345.166" y1="-529.369" x2="-311.942" y2="-529.369" gradientTransform="matrix(-.908 -.418 -.418 .908 -454.155 427.124)"><stop offset="0" stop-color="#DA2128"/><stop offset=".522" stop-color="#EC6C30"/><stop offset="1" stop-color="#EF5023"/></linearGradient><path id="eye_colour_1_" class="st39" d="M54 91.7c6.2 2.8 13.5.1 16.4-6.1 2.9-6.2.2-13.6-6-16.4-3.5-1.6-7.4-1.4-10.7.2.1-.2.2-.3.4-.5.3-.4.7-.8 1.1-1.2h.1c1.1-.9 16.1-10.7 22.8 15.3 0 0 4.2 16.4-6.3 18.5-.9.1-1.7.1-2.6.1-2.6-.1-5.2-.7-7.7-1.8-5.1-2.3-8.8-6.5-10.5-11.4.2.7.5 1.3.8 1.9.6.5 1.4 1 2.2 1.4z"/><path id="pupil_2_" d="M50.1 85.6c-.1-.4-.2-.8-.2-1.3l-.1-.9-.1-1.2v-2.1c0-.3 0-.6.1-.9 0-.4.1-.8.2-1.2 0-.3.1-.6.2-.9l.3-1.3.2-.8c.2-.6.4-1.2.7-1.8l.1-.3s0-.1.1-.1c.3-.6.6-1.2.9-1.7l.2-.3c.3-.6.7-1.1 1.1-1.6 3.2-1.6 7.1-1.8 10.7-.2 6.2 2.8 8.9 10.2 6 16.4-2.9 6.2-10.2 9-16.4 6.1-.9-.4-1.6-.9-2.4-1.4-.3-.6-.6-1.3-.8-1.9l-.2-.6c-.2-.5-.3-.9-.4-1.4-.1-.1-.2-.3-.2-.6z"/><ellipse id="eye_shine_9_" transform="matrix(-.908 -.418 .418 -.908 209.647 190.242)" class="st40" cx="125.6" cy="72.2" rx="3.9" ry="4"/><ellipse id="eye_shine_8_" transform="matrix(-.908 -.418 .418 -.908 202.291 204.777)" class="st40" cx="123.6" cy="80.2" rx="2.4" ry="2.5"/><ellipse id="eye_shine_7_" transform="matrix(-.908 -.418 .418 -.908 167.275 246.462)" class="st40" cx="110.6" cy="104.9" rx="1" ry="1"/><ellipse id="eye_shine_6_" transform="matrix(-.908 -.418 .418 -.908 100.065 180.983)" class="st40" cx="69.8" cy="79.5" rx="4.4" ry="4.5"/><ellipse id="eye_shine_5_" transform="matrix(-.908 -.418 .418 -.908 91.672 197.57)" class="st40" cx="67.5" cy="88.8" rx="2.7" ry="2.8"/><linearGradient id="ear_highlight_4_" gradientUnits="userSpaceOnUse" x1="-297.796" y1="-554.645" x2="-265.825" y2="-554.645" gradientTransform="matrix(-.908 -.418 -.418 .908 -454.155 427.124)"><stop offset="0" stop-color="#fff" stop-opacity="0"/><stop offset=".724" stop-color="#fff" stop-opacity=".724"/><stop offset="1" stop-color="#fff"/></linearGradient><path id="ear_highlight_2_" class="st41" d="M28.9 51.3c-8-3.7-11.7-12.9-8.1-20.6l.6-1.1c4.2-1.5 8.8-1.7 13.4-.4 7.4 2.1 12.8 7.6 15.2 14.5l-.2.4c-3.6 7.7-12.9 10.9-20.9 7.2z"/></svg>