<svg xmlns="http://www.w3.org/2000/svg" viewBox="0 0 67 67" enable-background="new 0 0 67 67"><style type="text/css">.st0{opacity:0.6;fill:#FFFFFF;stroke:#231F20;stroke-width:0.5;stroke-miterlimit:10;} .st1{opacity:0.73;fill:#FFFFFF;stroke:#231F20;stroke-width:0.5;stroke-miterlimit:10;} .st2{fill:#231F20;} .st3{fill:url(#bee_body_1_);stroke:#231F20;stroke-width:0.5;stroke-miterlimit:10;} .st4{fill:#FFFFFF;stroke:#231F20;stroke-width:0.5;stroke-miterlimit:10;} .st5{fill:#231F20;stroke:#231F20;stroke-width:0.5;stroke-miterlimit:10;}</style><ellipse id="wings_7_" transform="matrix(.081 .997 -.997 .081 60.798 -22.673)" class="st0" cx="42.7" cy="21.6" rx="15.2" ry="14.9"/><ellipse id="wings_6_" transform="matrix(.081 .997 -.997 .081 41.473 -8.366)" class="st1" cx="25.3" cy="18.3" rx="11.6" ry="11.7"/><path class="st2" d="M13 44s-.3 0-.8-.1-1.1-.2-1.8-.3c-.6-.2-1.3-.4-1.7-.5-.4-.2-.7-.3-.7-.3s.3 0 .8.1 1.1.2 1.8.3c.6.2 1.3.4 1.7.5.4.1.7.3.7.3z" id="legs_22_"/><path class="st2" d="M14.5 49.1s-.3.2-.7.4c-.4.2-1 .4-1.6.6-.6.2-1.2.3-1.7.4-.5.1-.8.1-.8.1s.3-.2.7-.4c.4-.2 1-.4 1.6-.6.6-.2 1.2-.3 1.7-.4.5-.1.8-.1.8-.1z" id="legs_20_"/><path class="st2" d="M17.5 54.5s-.2.1-.4.1c-.2.1-.5.2-.8.3-.3.1-.6.3-.8.4l-.4.2s0-.2.2-.4.4-.5.8-.7c.3-.2.7-.2 1-.2.2.2.4.3.4.3z" id="stripes_30_"/><linearGradient id="bee_body_1_" gradientUnits="userSpaceOnUse" x1="1335.851" y1="140.848" x2="1372.374" y2="140.848" gradientTransform="matrix(-.972 -.234 -.234 .972 1379.105 224.241)"><stop offset=".011" stop-color="#F5E199"/><stop offset=".511" stop-color="#EBC81A"/><stop offset="1" stop-color="#EA9335"/></linearGradient><path id="bee_body_4_" class="st3" d="M15.6 29.7c-4.5 4.3-2.6 15.3 2.3 23 5.5 8.9 18.6 10.9 25.1 4.5s5.3-14.9-.9-21.7c-6.9-7.3-21.3-10.8-26.5-5.8z"/><path class="st2" d="M19.9 56.9s-.1.3-.2.7c-.2.4-.4 1-.7 1.5-.3.5-.6 1-.9 1.4-.3.4-.5.6-.5.6s.1-.3.2-.7c.2-.4.4-1 .7-1.5.3-.5.6-1 .9-1.4.2-.3.5-.6.5-.6z" id="legs_13_"/><path class="st2" d="M42.7 36.8c-1.4-.5-2.8-.8-4.3-1l-1.1-.1h-2c-.3 0-.7 0-1 .1l-1 .2c-.3.1-.6.2-1 .2l-.9.3c-.3.1-.6.2-.9.4l-.9.4-.8.5-.8.6-.9.6h-.1l-.7.6-.8.7c-.5.5-1 1.1-1.4 1.6-.5.6-.8 1.2-1.2 1.8l-1.1 1.9-.5 1-.4 1-.4 1.1-.3 1.1-.3 1.1c-.1.4-.1.8-.2 1.1l-.2 1.2-.2 1.2-.3-1.2c.1-.2 0-.6 0-1-.1-.4-.1-.8-.1-1.2-.1-.4 0-.8 0-1.2 0-.4 0-.8.1-1.2l.1-1.2c0-.4.2-.8.3-1.2l.3-1.2c.1-.4.2-.8.4-1.2l.5-1.1c.4-.7.8-1.5 1.3-2.2.5-.7 1-1.4 1.6-2l.9-.9c.3-.3.6-.6 1-.9l-.1.1 1-.7c.3-.2.6-.5 1-.7l1.1-.6c.4-.2.8-.3 1.1-.5l1.2-.4 1.2-.3 1.2-.1h1.2c.4 0 .8 0 1.2.1.4 0 .8.1 1.2.2.4.1.8.2 1.1.3.4.1.7.2 1.1.4.7.3 1.4.6 2.1 1 .5.4 1.1.8 1.7 1.3z" id="stripes_28_"/><path class="st2" d="M15.9 49c-.2-.8-.3-1.6-.3-2.3 0-.8-.1-1.6 0-2.4 0-.8.1-1.6.3-2.4.1-.8.3-1.6.6-2.4l.4-1.2c.1-.4.3-.8.5-1.1l.6-1.1c.2-.3.4-.7.7-1l.8-1 .9-.9c.3-.3.6-.6.9-.8l1-.7h-.3c.3-.2.5-.3.7-.5.2-.1.4-.2.7-.4.4-.2.9-.4 1.4-.6.5-.2.9-.3 1.4-.4l1.4-.3 1.4-.2 1.4-.1c.9 0 1.9.1 2.8.2l-1.4.3-1.3.3c-.9.2-1.8.4-2.6.7-.9.3-1.7.6-2.5 1-.4.2-.8.4-1.1.6-.2.1-.4.2-.5.3-.2.1-.4.3-.4.3l-.1.1c-.3.2-.6.5-.8.7l-.8.7-.7.8c-.2.3-.4.6-.7.8l-.6.9c-.2.3-.4.6-.5.9-.2.3-.4.6-.5 1l-.5 1-.4 1c-.1.3-.2.7-.4 1.1l-.3 1.1-.3 1.1c-.5 1.8-.8 3.3-.9 4.9z" id="stripes_26_"/><path class="st2" d="M13.1 39s0-.3.1-.7c.1-.5.2-1.1.4-1.9.2-.8.6-1.6 1-2.5l.8-1.3c.3-.4.6-.9 1-1.3.3-.4.8-.8 1.2-1.1.4-.4.8-.6 1.2-.9.4-.3.9-.5 1.3-.7.4-.2.8-.4 1.2-.5.4-.1.7-.3 1-.3.3-.1.6-.1.8-.2.5-.1.7-.1.7-.1s-.2.1-.7.3l-.7.3c-.3.1-.6.3-.9.5-.3.2-.7.4-1.1.6-.4.3-.8.5-1.1.8-.4.3-.8.6-1.1.9-.4.3-.7.7-1.1 1.1-.4.4-.7.7-1 1.1-.3.4-.6.8-.8 1.2l-.7 1.2c-.2.4-.4.8-.6 1.1-.3.7-.6 1.3-.7 1.7-.1.4-.2.7-.2.7z" id="stripes_17_"/><ellipse id="bee_eyeball_3_" transform="matrix(.081 .997 -.997 .081 81.526 10.764)" class="st4" cx="34.9" cy="49.6" rx="5.3" ry="5.2"/><ellipse id="bee_pupil_3_" transform="matrix(.081 .997 -.997 .081 84.706 10.481)" class="st5" cx="36.7" cy="51.2" rx="2.7" ry="2.6"/><path class="st2" d="M33.7 60.6c-1.2-.2-2.6-.5-3.5-1.4-.4-.4-.7-.9-.8-1.5-.1-.6.1-2.7 1.3-2 .2.1.9-.2.6-.4-1.5-.8-2.7.7-2.7 2.1 0 2.5 2.7 3.2 4.7 3.6.2 0 .9-.4.4-.4z" id="bee_mouth_5_"/></svg>