<svg xmlns="http://www.w3.org/2000/svg" viewBox="0 0 67 67" enable-background="new 0 0 67 67"><style type="text/css">.st0{opacity:0.6;fill:#FFFFFF;stroke:#231F20;stroke-width:0.5;stroke-miterlimit:10;} .st1{opacity:0.73;fill:#FFFFFF;stroke:#231F20;stroke-width:0.5;stroke-miterlimit:10;} .st2{fill:#231F20;} .st3{fill:url(#bee_body_1_);stroke:#231F20;stroke-width:0.5;stroke-miterlimit:10;} .st4{fill:#FFFFFF;stroke:#231F20;stroke-width:0.5;stroke-miterlimit:10;} .st5{fill:#231F20;stroke:#231F20;stroke-width:0.5;stroke-miterlimit:10;}</style><ellipse id="wings_7_" transform="matrix(-.687 .727 -.727 -.687 68.656 7.234)" class="st0" cx="32.8" cy="18.4" rx="15.2" ry="14.9"/><ellipse id="wings_6_" transform="matrix(-.687 .727 -.727 -.687 101.129 9.859)" class="st1" cx="48.4" cy="26.7" rx="11.6" ry="11.7"/><path class="st2" d="M41.9 54.4s.3.1.8.2c.5.2 1.1.4 1.7.7.6.3 1.2.6 1.6.9.4.3.7.5.7.5s-.3-.1-.8-.2c-.5-.2-1.1-.4-1.7-.7-.6-.3-1.2-.6-1.6-.9-.4-.3-.7-.5-.7-.5z" id="legs_22_"/><path class="st2" d="M37.6 57.5l.6.6c.3.4.7.9 1.1 1.4.4.5.7 1.1.9 1.5.2.4.3.7.3.7l-.6-.6c-.3-.4-.7-.9-1.1-1.4-.4-.5-.7-1.1-.9-1.5-.2-.4-.3-.7-.3-.7z" id="legs_20_"/><path class="st2" d="M31.9 59.8s.2 0 .4.2c.2.1.5.4.7.8.2.3.2.7.2 1 0 .3-.1.5-.1.5l-.2-.4c-.1-.2-.2-.5-.4-.8-.1-.3-.3-.6-.4-.8-.1-.3-.2-.5-.2-.5z" id="stripes_30_"/><linearGradient id="bee_body_1_" gradientUnits="userSpaceOnUse" x1="1335.851" y1="140.848" x2="1372.374" y2="140.848" gradientTransform="matrix(.905 .426 -.426 .905 -1136.417 -659.861)"><stop offset=".011" stop-color="#F5E199"/><stop offset=".511" stop-color="#EBC81A"/><stop offset="1" stop-color="#EA9335"/></linearGradient><path id="bee_body_4_" class="st3" d="M48.9 41.6c.8 6.2-7.6 13.6-16.2 16.6-9.9 3.5-21.3-3.2-22.4-12.2-1.1-9.1 5.3-14.9 14.3-16.3 9.9-1.5 23.3 4.8 24.3 11.9z"/><path class="st2" d="M28.5 60.2v.8c0 .5-.1 1.1-.2 1.6-.1.6-.3 1.2-.4 1.6-.1.4-.3.7-.3.7v-.8c0-.5.1-1.1.2-1.6.1-.6.3-1.2.4-1.6.2-.4.3-.7.3-.7z" id="legs_13_"/><path class="st2" d="M23.3 30.3c.8-.1 1.5 0 2.3.1.8.1 1.5.3 2.2.5l1.1.4c.4.1.7.3 1.1.5.4.2.7.4 1 .6.3.2.7.4 1 .7.3.3.7.5.9.8.3.3.6.6.9.8.3.3.5.6.8 1 .3.3.5.7.7 1l.6 1.1.5 1.1c.2.4.3.8.4 1.2l.3 1.2v-.1c.1.5.2.9.3 1.3.1.4.1.8.1 1.3.1.8 0 1.7 0 2.5-.1.8-.2 1.7-.4 2.5l-.3 1.2-.4 1.2c-.1.4-.3.8-.5 1.1-.2.4-.3.8-.6 1.1l-.7 1.1-.7 1-.8.9-.9.9-.9.8c-.3.2-.6.5-1 .7.2-.4.4-.7.6-1 .2-.3.4-.6.6-1 .2-.4.4-.7.5-1l.5-1 .5-1 .4-1.1c.1-.3.2-.7.3-1.1l.3-1.1c.2-.7.3-1.4.4-2.2.1-.7.1-1.4.1-2.2 0-.7 0-1.4-.1-2.2l-.1-1.1c0-.3-.1-.7-.2-1v-.2l-.2-1c-.1-.3-.1-.6-.3-.9l-.3-.9-.4-.9c-.1-.3-.3-.6-.5-.9-.2-.3-.3-.6-.5-.8l-.6-.8c-.2-.3-.5-.5-.7-.7-.2-.3-.5-.5-.7-.7l-.8-.7-.8-.6-.9-.6c-1.4-.7-2.7-1.3-4.1-1.8z" id="stripes_28_"/><path class="st2" d="M36.6 56.5c.8-1.3 1.6-2.7 2.2-4.1l.5-1c.2-.3.3-.7.4-1l.4-1.1.4-1.1.3-1.1.2-1.1.2-1.1.1-1.1v-1.1l-.1-1.1c0-.4-.1-.7-.2-1.1-.1-.3-.2-.7-.2-1.1v-.1c0-.1-.1-.3-.1-.5l-.2-.6c-.1-.4-.3-.8-.5-1.2-.4-.8-.8-1.5-1.3-2.3-.5-.8-1-1.5-1.6-2.2l-.9-1.1c-.3-.3-.6-.7-.9-1.1.8.5 1.6 1 2.3 1.6l1.1.9 1 1c.3.3.6.7.9 1.1.3.4.6.8.8 1.2.3.4.5.8.7 1.3l.3.7.3.8v-.1l.3 1.2c.1.4.2.8.2 1.2l.1 1.2v1.2l-.1 1.2c0 .4-.1.8-.2 1.2l-.3 1.2-.4 1.2c-.3.8-.6 1.5-1 2.2-.4.7-.8 1.4-1.3 2-.5.7-1 1.3-1.5 1.9-.7 1-1.3 1.5-1.9 2z" id="stripes_26_"/><path class="st2" d="M45 50.4s.1-.2.2-.7c.2-.4.3-1.1.5-1.8.1-.4.2-.8.2-1.2.1-.4.1-.9.2-1.4l.1-1.5v-1.5c0-.5-.1-1-.2-1.5s-.2-1-.3-1.4c-.1-.5-.3-.9-.4-1.3l-.4-1.2c-.2-.3-.3-.7-.4-1-.1-.3-.3-.5-.4-.7-.2-.4-.3-.7-.3-.7l.5.5c.1.2.3.4.5.6.2.2.4.6.6.9.2.3.5.7.6 1.1.2.4.4.9.5 1.3l.4 1.5c.1.5.2 1.1.2 1.6v1.6c0 .5-.1 1-.2 1.5-.2 1-.4 1.9-.8 2.6-.3.7-.6 1.3-.9 1.7 0 .8-.2 1-.2 1z" id="stripes_17_"/><ellipse id="bee_eyeball_3_" transform="matrix(-.687 .727 -.727 -.687 68.745 60.539)" class="st4" cx="21.3" cy="45.1" rx="5.3" ry="5.2"/><ellipse id="bee_pupil_3_" transform="matrix(-.687 .727 -.727 -.687 64.883 62.494)" class="st5" cx="19" cy="45.2" rx="2.7" ry="2.6"/><path class="st2" d="M15.2 54.8c1.7.9 3.8 1.8 5.6.7 1.2-.8 2.1-3.1.2-3.6-.2-.1-.9.3-.4.4.9.2 1 1 .8 1.6-.3 1.1-1.4 1.7-2.5 1.6-1.1-.1-2.1-.6-3.1-1.1-.3 0-1 .3-.6.4z" id="bee_mouth_5_"/></svg>