<svg xmlns="http://www.w3.org/2000/svg" viewBox="0 0 800 458.4" enable-background="new 0 0 800 458.4"><style type="text/css">.st0{fill:#FFFFFF;}</style><path class="st0" d="M529.9 220.7s0 .7-.1 2.2c-.1 1.4 0 3.6-.3 6.4-.4 5.6-1.5 13.8-4.6 23.9-.7 2.5-1.7 5.1-2.7 7.8-1.1 2.7-2.2 5.5-3.7 8.3-2.7 5.7-6.1 11.7-10.4 17.6-8.5 11.9-20.5 23.8-35.9 33.3-7.7 4.7-16.2 8.9-25.4 12.1-9.2 3.2-19.1 5.5-29.5 6.6l-3.9.4-3.9.3c-1.3 0-2.6.1-4 .1l-2 .1h-2c-1.3 0-2.6 0-4-.1l-4-.2c-1.4-.1-2.7-.1-4.1-.3l-4.1-.5c-1.4-.1-2.7-.4-4.1-.6-1.4-.2-2.7-.4-4.1-.7-2.7-.6-5.4-1.1-8.1-1.8-5.4-1.3-10.8-3.2-16.1-5.2-21.2-8.3-41-22.6-55.3-41.9-3.5-4.8-6.8-9.9-9.7-15.2-2.8-5.4-5.2-10.9-7.2-16.7-1.9-5.8-3.4-11.7-4.5-17.7-.4-3-.9-6-1.1-9.1-.1-1.5-.3-3-.3-4.6l-.1-4.7c0-5.9.5-12.2 1.4-18.2 1-6 2.4-12 4.3-17.8 1.9-5.8 4.3-11.4 7.1-16.8s6-10.5 9.6-15.4c14.2-19.6 34.1-34.2 55.4-42.7 21.4-8.5 44.1-11.1 65-8.7 10.5 1.2 20.5 3.5 29.8 6.8s17.9 7.6 25.6 12.4c15.5 9.7 27.5 21.8 35.9 33.9 4.2 6 7.6 12.1 10.3 17.8 1.4 2.9 2.5 5.7 3.6 8.4.9 2.8 1.9 5.4 2.6 7.9 3 10.1 4 18.4 4.4 24 .3 2.8.2 5 .3 6.4-.1 1.4-.1 2.2-.1 2.2zm-.6 0s0-.7-.1-2.2c-.1-1.4-.1-3.6-.4-6.4-.5-5.6-1.5-13.8-4.7-23.7-3.1-9.9-8.6-21.6-17.3-33.1-8.7-11.5-20.8-22.9-36.2-31.7-7.7-4.4-16.1-8.2-25.1-11.1-9-2.9-18.7-4.9-28.7-5.9-1.3-.2-2.5-.2-3.7-.3-1.3-.1-2.5-.2-3.8-.2-1.3 0-2.6 0-3.9-.1h-3.9l-3.9.1c-1.3 0-2.6.2-3.9.3l-3.9.3-3.9.5c-1.3.1-2.6.4-3.9.6-1.3.2-2.6.4-3.9.7-2.6.6-5.2 1.1-7.8 1.8-5.2 1.3-10.4 3.1-15.5 5.1-20.4 8-39.4 21.9-53.2 40.3-3.4 4.6-6.6 9.5-9.3 14.6-2.7 5.1-5 10.5-7 16-1.9 5.5-3.3 11.2-4.3 16.9-.9 5.8-1.4 11.5-1.5 17.5l.1 4.3c0 1.5.1 2.9.3 4.4.2 2.9.6 5.8 1 8.7 1 5.8 2.4 11.5 4.2 17 1.9 5.5 4.2 10.9 6.8 16.1 2.7 5.2 5.8 10.1 9.2 14.8 13.7 18.7 32.8 32.9 53.3 41.1 5.2 2 10.3 3.9 15.6 5.2 2.6.8 5.3 1.2 7.9 1.9 1.3.3 2.7.5 4 .7 1.3.2 2.6.5 4 .6 1.3.2 2.6.3 4 .5 1.3.2 2.6.2 3.9.3l3.9.3 4 .1h3.8c1.3 0 2.6 0 3.9-.1l3.9-.2c1.3-.1 2.6-.1 3.8-.3 10.1-1 19.9-3.1 29-6 9.1-3 17.6-6.9 25.3-11.4 7.7-4.5 14.6-9.7 20.6-15.1 6-5.5 11.2-11.3 15.5-17.2 8.6-11.7 14-23.4 17-33.4 3.1-10 4.1-18.2 4.5-23.8.3-2.8.2-4.9.3-6.4v-2.1zM296.4 146.9s-.1 1.3-.2 3.6c-.1.6 0 1.3-.2 2-.1.7-.3 1.5-.4 2.4l-.2 1.3-.3 1.4-.8 3c-1.3 4.2-3.4 9.3-7 14.3-3.5 5.1-8.6 10.2-15.1 14.3-6.5 4.1-14.5 7.2-23.3 8.3l-3.3.3-1.7.1-.9.1h-.9c-1.1 0-2.2-.1-3.4-.1-.6 0-1.1 0-1.7-.1l-1.8-.2c-1.2-.2-2.4-.3-3.5-.5l-3.5-.8c-.6-.1-1.2-.3-1.7-.4l-1.7-.6c-1.1-.4-2.3-.7-3.4-1.2-2.2-1-4.5-1.9-6.7-3.1l-1.7-1-.8-.5-.8-.5-3.1-2.1c-4-3.1-7.7-6.6-10.9-10.7-3.1-4.2-5.6-8.8-7.4-13.7-.7-2.5-1.6-5-1.9-7.7-.2-1.3-.5-2.6-.5-3.9l-.1-2-.1-1v-1.0999999999999999c0-4.9.8-10.6 2.4-15.5 1.7-5 4.1-9.8 7.1-14.1 3.1-4.3 6.8-8 10.8-11.2l3.1-2.2.8-.6.8-.5 1.7-1c2.2-1.4 4.5-2.3 6.8-3.3 1.2-.4 2.4-.8 3.5-1.2l1.8-.6c.6-.2 1.2-.3 1.8-.4 1.2-.3 2.4-.6 3.6-.8l3.6-.5c2.4-.4 4.8-.3 7.1-.5h.9000000000000001l.8.1c.6 0 1.1.1 1.6.1 1.1.1 2.2.1 3.3.3 4.7.6 9 1.6 13 3.2l3 1.1 2.8 1.4c1.9.8 3.5 2 5.2 3 6.6 4.3 11.5 9.7 15 14.9.8 1.3 1.6 2.7 2.3 3.9.7 1.3 1.2 2.6 1.8 3.8.6 1.2 1 2.4 1.4 3.6.4 1.2.9 2.3 1.1 3.4.3 1.1.5 2.1.8 3.1l.3 1.4c.1.5.1.9.2 1.3.1.9.2 1.6.3 2.4.1.7.1 1.4.1 2 .1 2.2.2 3.5.2 3.5zm-.6 0l-.3-3.6c-.1-.6 0-1.2-.2-1.9-.1-.7-.3-1.5-.4-2.3-.1-.4-.2-.9-.2-1.3l-.3-1.4c-.3-.9-.6-1.9-.9-3-.3-1.1-.8-2.1-1.2-3.2-.5-1.1-.9-2.3-1.6-3.4l-1-1.7c-.4-.6-.6-1.2-1.1-1.8-.8-1.1-1.7-2.3-2.5-3.5-3.7-4.7-8.9-9.2-15.4-12.7-1.6-.8-3.2-1.8-5-2.4-.9-.3-1.8-.7-2.6-1.1-.9-.3-1.8-.6-2.8-.9-.9-.3-1.9-.6-2.8-.8l-2.9-.6-1.5-.3-1.5-.2c-1-.1-2-.2-3-.4-1-.1-2.2-.1-3.2-.1h-3.2c-2.1.2-4.2.1-6.4.5l-3.2.5-3.2.8c-.5.1-1.1.2-1.6.4l-1.6.5-3.1 1.1c-2 .9-4.1 1.7-6.1 2.9l-1.5.8-.7.4-.7.5-2.8 1.9c-3.6 2.8-7.1 6-9.9 9.7-2.8 3.8-5.1 7.9-6.7 12.4-1.5 4.6-2.3 8.9-2.5 14.2v1.6l.1 1.8c0 1.2.2 2.4.4 3.6.2 2.4 1 4.7 1.6 7 1.5 4.5 3.8 8.8 6.5 12.7 2.8 3.9 6.2 7.2 9.8 10.1 1 .7 1.9 1.4 2.9 2l.7.5.8.4 1.5.9c2 1.3 4.1 2.1 6.2 3.1l3.2 1.2 1.6.6c.5.2 1.1.3 1.6.4 1.1.3 2.2.6 3.3.8 1.1.2 2.2.3 3.2.5l1.6.3c.5.1 1.1.1 1.7.1l3.3.2h3.2c1.1 0 2.1 0 3.2-.1 8.4-.7 16.2-3.4 22.7-7 6.5-3.7 11.6-8.4 15.3-13.3.9-1.2 1.7-2.5 2.5-3.7.4-.6.7-1.2 1-1.8l.9-1.8c.7-1.1 1.1-2.4 1.5-3.5.4-1.1.9-2.2 1.2-3.3.3-1.1.6-2.1.8-3l.3-1.4c.1-.5.1-.9.2-1.3.1-.8.3-1.6.4-2.3.1-.7.1-1.4.2-2 .1-2.1.2-3.3.2-3.3zM616.3 141.4s-.1 1.3-.2 3.6c-.1.6 0 1.3-.2 2-.1.7-.3 1.5-.4 2.4l-.2 1.3-.3 1.4-.8 3c-1.3 4.2-3.4 9.3-7 14.3-3.5 5.1-8.6 10.2-15.1 14.3-6.5 4.1-14.5 7.2-23.3 8.3l-3.3.3-1.7.1-.9.1h-.9c-1.1 0-2.2-.1-3.4-.1-.6 0-1.1 0-1.7-.1l-1.8-.2c-1.2-.2-2.4-.3-3.5-.5l-3.5-.8c-.6-.1-1.2-.3-1.7-.4l-1.7-.6c-1.1-.4-2.3-.7-3.4-1.2-2.2-1-4.5-1.9-6.7-3.1l-1.6-.9-.8-.5-.8-.5-3.1-2.1c-4-3.1-7.7-6.6-10.9-10.7-3.1-4.2-5.6-8.8-7.4-13.7-1.7-5-2.6-10.3-2.7-15.6l.2-3.9c0-1.2.3-2.6.4-3.9.3-2.7 1.1-5.2 1.8-7.8 1.7-5 4.1-9.8 7.1-14.1 3.1-4.3 6.8-8 10.8-11.2l3.1-2.2.8-.6.8-.5 1.7-1c2.2-1.4 4.5-2.3 6.8-3.3 1.2-.4 2.4-.8 3.5-1.2l1.8-.6c.6-.2 1.2-.3 1.8-.4 1.2-.3 2.4-.6 3.6-.8l3.6-.5c2.4-.4 4.8-.3 7.1-.5h.9000000000000001l.8.1c.6 0 1.1.1 1.6.1 1.1.1 2.2.1 3.3.3 4.7.6 9 1.6 13 3.2l3 1.1 2.8 1.4c1.9.8 3.5 2 5.2 3 6.6 4.3 11.5 9.7 15 14.9.8 1.3 1.6 2.7 2.3 3.9.7 1.3 1.2 2.6 1.8 3.8.6 1.2 1 2.4 1.4 3.6.4 1.2.9 2.3 1.1 3.4.3 1.1.5 2.1.8 3.1l.3 1.4c.1.5.1.9.2 1.3.1.9.2 1.6.3 2.4.1.7.1 1.4.1 2 .2 2.1.2 3.3.2 3.4zm-.6-.1l-.3-3.6c-.1-.6 0-1.2-.2-1.9-.1-.7-.3-1.5-.4-2.3-.1-.4-.2-.9-.2-1.3l-.3-1.4c-.3-.9-.6-1.9-.9-3-.3-1.1-.8-2.1-1.2-3.2-.5-1.1-.9-2.3-1.6-3.4l-1-1.7c-.4-.6-.6-1.2-1.1-1.8-.8-1.1-1.7-2.3-2.5-3.5-3.7-4.7-8.9-9.2-15.4-12.7-1.6-.8-3.2-1.8-5-2.4-.9-.3-1.8-.7-2.6-1.1-.9-.3-1.8-.6-2.8-.9-.9-.3-1.9-.6-2.8-.8l-2.9-.6-1.5-.3-1.5-.2c-1-.1-2-.2-3-.4-1-.1-2.2-.1-3.2-.1h-3.2c-2.1.2-4.2.1-6.4.5l-3.2.5-3.2.8c-.5.1-1.1.2-1.6.4l-1.6.5-3.1 1.1c-2 .9-4.1 1.7-6.1 2.9l-1.5.8-.7.4-.7.5-2.8 1.9c-3.6 2.8-7.1 6-9.9 9.7-2.8 3.8-5.1 7.9-6.7 12.4-.6 2.3-1.4 4.6-1.7 6.8-.2 1.1-.5 2.2-.5 3.5l-.2 3.6c0 4.8.7 9.6 2.1 14.1 1.5 4.5 3.8 8.8 6.5 12.7 2.8 3.9 6.2 7.2 9.8 10.1 1 .7 1.9 1.4 2.9 2l.7.5.8.4 1.5.9c2 1.3 4.1 2.1 6.2 3.1l3.2 1.2 1.6.6c.5.2 1.1.3 1.6.4 1.1.3 2.2.6 3.3.8 1.1.2 2.2.3 3.2.5l1.6.3c.5.1 1.1.1 1.7.1l3.3.2h3.2c1.1 0 2.1 0 3.2-.1 8.4-.7 16.2-3.4 22.7-7 6.5-3.7 11.6-8.4 15.3-13.3.9-1.2 1.7-2.5 2.5-3.7.4-.6.7-1.2 1-1.8l.9-1.8c.7-1.1 1.1-2.4 1.5-3.5.4-1.1.9-2.2 1.2-3.3.3-1.1.6-2.1.8-3l.3-1.4c.1-.5.1-.9.2-1.3.1-.8.3-1.6.4-2.3.1-.7.1-1.4.2-2 .1-1.8.1-3.1.1-3.1zM456.9 263.7s-.1 1.3-.2 3.6c-.1.6 0 1.3-.2 2-.1.7-.3 1.5-.4 2.4l-.2 1.3-.3 1.4-.8 3c-1.3 4.2-3.4 9.3-7 14.3-3.5 5.1-8.6 10.2-15.1 14.3-6.5 4.1-14.5 7.2-23.3 8.3l-3.3.3-1.7.1-.9.1h-.9c-1.1 0-2.2-.1-3.4-.1-.6 0-1.1 0-1.7-.1l-1.8-.2c-1.2-.2-2.4-.3-3.5-.5l-3.5-.8c-.6-.1-1.2-.3-1.7-.4l-1.7-.6c-1.1-.4-2.3-.7-3.4-1.2-2.2-1-4.5-1.9-6.7-3.1l-1.6-.9-.8-.5-.8-.5-3.1-2.1c-4-3.1-7.7-6.6-10.9-10.7-3.1-4.2-5.6-8.8-7.4-13.7-1.7-5-2.6-10.3-2.7-15.6l.2-3.9c0-1.2.3-2.6.4-3.9.3-2.7 1.1-5.2 1.8-7.8 1.7-5 4.1-9.8 7.1-14.1 3.1-4.3 6.8-8 10.8-11.2l3.1-2.2.8-.6.8-.5 1.7-1c2.2-1.4 4.5-2.3 6.8-3.3 1.2-.4 2.4-.8 3.5-1.2l1.8-.6c.6-.2 1.2-.3 1.8-.4 1.2-.3 2.4-.6 3.6-.8l3.6-.5c2.4-.4 4.8-.3 7.1-.5h.9000000000000001l.8.1c.6 0 1.1.1 1.6.1 1.1.1 2.2.1 3.3.3 4.7.6 9 1.6 13 3.2l3 1.1 2.8 1.4c1.9.8 3.5 2 5.2 3 6.6 4.3 11.5 9.7 15 14.9.8 1.3 1.6 2.7 2.3 3.9.7 1.3 1.2 2.6 1.8 3.8.6 1.2 1 2.4 1.4 3.6.4 1.2.9 2.3 1.1 3.4.3 1.1.5 2.1.8 3.1l.3 1.4c.1.5.1.9.2 1.3.1.9.2 1.6.3 2.4.1.7.1 1.4.1 2 .1 2.1.2 3.4.2 3.4zm-.6 0l-.3-3.6c-.1-.6 0-1.2-.2-1.9-.1-.7-.3-1.5-.4-2.3-.1-.4-.2-.9-.2-1.3l-.3-1.4c-.3-.9-.6-1.9-.9-3-.3-1.1-.8-2.1-1.2-3.2-.5-1.1-.9-2.3-1.6-3.4l-1-1.7c-.4-.6-.6-1.2-1.1-1.8-.8-1.1-1.7-2.3-2.5-3.5-3.7-4.7-8.9-9.2-15.4-12.7-1.6-.8-3.2-1.8-5-2.4-.9-.3-1.8-.7-2.6-1.1-.9-.3-1.8-.6-2.8-.9-.9-.3-1.9-.6-2.8-.8l-2.9-.6-1.5-.3-1.5-.2c-1-.1-2-.2-3-.4-1-.1-2.2-.1-3.2-.1h-3.2c-2.1.2-4.2.1-6.4.5l-3.2.5-3.2.8c-.5.1-1.1.2-1.6.4l-1.6.5-3.1 1.1c-2 .9-4.1 1.7-6.1 2.9l-1.5.8-.7.4-.7.5-2.8 1.9c-3.6 2.8-7.1 6-9.9 9.7-2.8 3.8-5.1 7.9-6.7 12.4-.6 2.3-1.4 4.6-1.7 6.8-.2 1.1-.5 2.2-.5 3.5l-.2 3.6c0 4.8.7 9.6 2.1 14.1 1.5 4.5 3.8 8.8 6.5 12.7 2.8 3.9 6.2 7.2 9.8 10.1 1 .7 1.9 1.4 2.9 2l.7.5.8.4 1.5.9c2 1.3 4.1 2.1 6.2 3.1l3.2 1.2 1.6.6c.5.2 1.1.3 1.6.4 1.1.3 2.2.6 3.3.8 1.1.2 2.2.3 3.2.5l1.6.3c.5.1 1.1.1 1.7.1l3.3.2h3.2c1.1 0 2.1 0 3.2-.1 8.4-.7 16.2-3.4 22.7-7 6.5-3.7 11.6-8.4 15.3-13.3.9-1.2 1.7-2.5 2.5-3.7.4-.6.7-1.2 1-1.8l.9-1.8c.7-1.1 1.1-2.4 1.5-3.5.4-1.1.9-2.2 1.2-3.3.3-1.1.6-2.1.8-3l.3-1.4c.1-.5.1-.9.2-1.3.1-.8.3-1.6.4-2.3.1-.7.1-1.4.2-2 0-1.9.1-3.2.1-3.1zM298.3 197.8s0 .8.1 2.4c0 .4 0 .8.1 1.3l.2 1.5c.1.6.2 1.1.2 1.8.1.6.3 1.3.5 2 .3 1.4.9 2.9 1.4 4.6.7 1.6 1.5 3.3 2.5 5 2.1 3.4 5.1 6.9 9 9.7 3.9 2.9 8.9 4.8 14.3 5.4.7.1 1.4.1 2 .1h2l2.2-.2c.8 0 1.4-.2 2.1-.3 1.4-.2 2.7-.7 4.1-1.1l2-.8 1-.4 1-.5c2.6-1.3 5-3.2 7.1-5.3 2.2-2.1 4-4.6 5.5-7.3 1.6-2.7 2.6-5.6 3.4-8.6l.5-2.3.3-2.3.1-1.2v-1.2l.1-2.2-.2-2.5c0-.4 0-.8-.1-1.2l-.2-1.1c-.1-.7-.2-1.5-.4-2.2l-.6-2.2c-.9-2.9-2-5.8-3.7-8.3-1.6-2.5-3.4-4.9-5.6-6.9-2.2-1.9-4.5-3.7-7-4.9l-.9-.5-1-.4c-.6-.2-1.3-.5-1.9-.8-1.3-.4-2.6-.8-3.9-1-1.3-.3-2.6-.3-4-.4h-3.6.1l-.5.1c-1.2.2-2.4.3-3.6.6l-1.8.4-1.8.6c-.6.2-1.1.4-1.7.7l-1.7.7c-.5.3-1 .6-1.6.9l-1.5.9c-3.9 2.6-7 5.8-9.1 9.1-1.1 1.6-1.9 3.3-2.7 4.8-.6 1.6-1.2 3.1-1.6 4.5-.2.7-.4 1.3-.5 2l-.3 1.8c-.1.6-.2 1.1-.3 1.5 0 .5-.1.9-.1 1.3.2 1.6.1 2.4.1 2.4zm-.6 0s0-.8.1-2.4v-1.3c.1-.5.1-1 .2-1.6l.2-1.8c.1-.6.2-1.3.4-2.1.5-2.9 1.6-6.4 3.4-10.1 1.8-3.7 4.6-7.8 8.5-11.3.5-.5 1-.8 1.6-1.3.5-.4 1.1-.8 1.7-1.2 1.2-.7 2.4-1.5 3.7-2.1l2-.9c.7-.3 1.4-.5 2.1-.7 1.4-.5 3-.8 4.6-1.1l.6-.1h.5l1.1-.1 1.1-.1h1.3c1.6.1 3.2.1 4.9.4 1.6.2 3.3.7 4.9 1.1l2.4.9 1.2.5 1.1.6c3.1 1.5 5.9 3.7 8.4 6.1 2.5 2.4 4.6 5.3 6.3 8.4l1.2 2.3 1 2.4c.4.8.6 1.7.9 2.5.2.8.6 1.7.7 2.5l.6 2.6.4 2.7.2 1.4v1.3l.1 2.5v1.5l-.1 1.3c0 .4 0 .9-.1 1.3l-.2 1.3c-.1.9-.2 1.7-.4 2.6l-.6 2.6c-1 3.3-2.3 6.6-4.1 9.6-1.8 2.9-3.9 5.7-6.4 8-2.5 2.3-5.2 4.3-8.2 5.7l-1.1.6-1.1.4c-.8.3-1.5.6-2.3.8-1.6.4-3.1.9-4.7 1.1-1.6.3-3.1.3-4.6.4h-1.2999999999999998l-1.1-.1c-.8-.1-1.5-.1-2.2-.2-1.5-.3-2.9-.5-4.3-1-.7-.2-1.4-.4-2-.7-.6-.3-1.3-.6-1.9-.8l-1.8-.9-1.8-1-1.6-1.2c-.5-.4-1.1-.7-1.5-1.2-3.9-3.3-6.7-7.1-8.7-10.7-2-3.6-3.1-7-3.7-9.8-.2-.7-.3-1.4-.5-2-.1-.6-.2-1.3-.3-1.8-.1-.6-.2-1.1-.2-1.6s-.1-.9-.1-1.3c-.5-2-.5-2.8-.5-2.9zM442.2 197.8s0 .8.1 2.4c0 .4 0 .8.1 1.3l.2 1.5c.1.6.2 1.1.2 1.8.1.6.3 1.3.5 2 .3 1.4.9 2.9 1.4 4.6.7 1.6 1.5 3.3 2.5 5 2.1 3.4 5.1 6.9 9 9.7 3.9 2.9 8.9 4.8 14.3 5.4.7.1 1.4.1 2 .1h2l2.2-.2c.8 0 1.4-.2 2.1-.3 1.4-.2 2.7-.7 4.1-1.1l2-.8 1-.4 1-.5c2.6-1.3 5-3.2 7.1-5.3 2.2-2.1 4-4.6 5.5-7.3 1.6-2.7 2.6-5.6 3.4-8.6l.5-2.3.3-2.3.1-1.2v-1.2l.1-2.2-.2-2.5c0-.4 0-.8-.1-1.2l-.2-1.1c-.1-.7-.2-1.5-.4-2.2l-.6-2.2c-.9-2.9-2-5.8-3.7-8.3-1.6-2.5-3.4-4.9-5.6-6.9-2.2-1.9-4.5-3.7-7-4.9l-.9-.5-1-.4c-.6-.2-1.3-.5-1.9-.8-1.3-.4-2.6-.8-3.9-1-1.3-.3-2.6-.3-4-.4h-3.6.1l-.5.1c-1.2.2-2.4.3-3.6.6l-1.8.4-1.8.6c-.6.2-1.1.4-1.7.7l-1.7.7c-.5.3-1 .6-1.6.9l-1.5.9c-3.9 2.6-7 5.8-9.1 9.1-1.1 1.6-1.9 3.3-2.7 4.8-.6 1.6-1.2 3.1-1.6 4.5-.2.7-.4 1.3-.5 2l-.3 1.8c-.1.6-.2 1.1-.3 1.5 0 .5-.1.9-.1 1.3.1 1.6.1 2.4.1 2.4zm-.6 0s0-.8.1-2.4v-1.3c.1-.5.1-1 .2-1.6l.2-1.8c.1-.6.2-1.3.4-2.1.5-2.9 1.6-6.4 3.4-10.1 1.8-3.7 4.6-7.8 8.5-11.3.5-.5 1-.8 1.6-1.3.5-.4 1.1-.8 1.7-1.2 1.2-.7 2.4-1.5 3.7-2.1l2-.9c.7-.3 1.4-.5 2.1-.7 1.4-.5 3-.8 4.6-1.1l.6-.1h.5l1.1-.1 1.1-.1h1.3c1.6.1 3.2.1 4.9.4 1.6.2 3.3.7 4.9 1.1l2.4.9 1.2.5 1.1.6c3.1 1.5 5.9 3.7 8.4 6.1 2.5 2.4 4.6 5.3 6.3 8.4l1.2 2.3 1 2.4c.4.8.6 1.7.9 2.5.2.8.6 1.7.7 2.5l.6 2.6.4 2.7.2 1.4v1.3l.1 2.5v1.5l-.1 1.3c0 .4 0 .9-.1 1.3l-.2 1.3c-.1.9-.2 1.7-.4 2.6l-.6 2.6c-1 3.3-2.3 6.6-4.1 9.6-1.8 2.9-3.9 5.7-6.4 8-2.5 2.3-5.2 4.3-8.2 5.7l-1.1.6-1.1.4c-.8.3-1.5.6-2.3.8-1.6.4-3.1.9-4.7 1.1-1.6.3-3.1.3-4.6.4h-1.2999999999999998l-1.1-.1c-.8-.1-1.5-.1-2.2-.2-1.5-.3-2.9-.5-4.3-1-.7-.2-1.4-.4-2-.7-.6-.3-1.3-.6-1.9-.8l-1.8-.9-1.8-1-1.6-1.2c-.5-.4-1.1-.7-1.5-1.2-3.9-3.3-6.7-7.1-8.7-10.7-2-3.6-3.1-7-3.7-9.8-.2-.7-.3-1.4-.5-2-.1-.6-.2-1.3-.3-1.8-.1-.6-.2-1.1-.2-1.6s-.1-.9-.1-1.3c-.5-2-.5-2.8-.5-2.9zM362.8 199.6s0 .6-.1 1.7c0 .6-.1 1.3-.2 2.1s-.2 1.8-.4 2.8l-.3 1.6-.5 1.8c-.1.6-.4 1.2-.6 1.9-.2.7-.5 1.3-.8 2-1.2 2.7-2.9 5.7-5.5 8.4-1.3 1.4-2.9 2.6-4.6 3.7-1.8 1-3.8 1.9-6 2.2-.5.1-1.1.2-1.7.2l-.8.1h-.8c-.5 0-1.1 0-1.6-.1-.5 0-1.2-.2-1.8-.3-2.4-.4-4.7-1.3-6.8-2.5-2.1-1.3-4.1-2.8-5.7-4.7-1.7-1.9-3.1-4-4.2-6.2-.6-1.1-1-2.3-1.5-3.5l-.6-1.8-.3-.9-.2-.9c-.7-2.5-.9-5.1-1-7.6v-2.8l.1-1 .2-2 .3-1.9.2-1 .2-.9.5-1.9c.4-1.2.8-2.5 1.4-3.6 1-2.4 2.4-4.6 4-6.6s3.6-3.8 5.8-5.2c2.2-1.4 4.6-2.4 7.1-2.8.6-.1 1.2-.2 1.9-.3l1.9-.1h1l.8.1c.5.1 1 .1 1.7.2.6.1 1.2.3 1.9.4l1.7.6.8.3.8.4 1.5.8c1.8 1.2 3.5 2.5 4.8 4 2.6 2.9 4.2 6.1 5.3 9 .3.7.5 1.4.7 2.1.2.7.4 1.3.5 2l.4 1.8.3 1.7c.2 1.1.2 2 .3 2.8.1.8.1 1.5.1 2.1-.2 1.2-.2 1.8-.2 1.8zm-.6 0s0-.6-.1-1.7c0-.3 0-.6-.1-.9 0-.3-.1-.7-.2-1.1-.1-.8-.3-1.7-.6-2.7-.5-2-1.4-4.4-2.8-6.8-1.4-2.4-3.5-4.9-6.1-6.9-1.3-1.1-2.8-1.8-4.3-2.6l-1.2-.4-.6-.2-.6-.1-1.2-.3-1.2-.1c-.3-.1-.9-.1-1.4-.1h-1.5000000000000002.1l-1.3.1c-.4 0-.9.2-1.3.3-1.7.4-3.5 1-5.1 2.1-1.6 1-3.2 2.3-4.5 3.8-1.3 1.5-2.6 3.2-3.6 5.1-.5.9-.9 1.9-1.3 2.9l-.5 1.6-.3.8-.2.8-.4 1.6-.2 1.6-.1.8-.1.9-.1 1.7c0 2.2.1 4.5.6 6.7l.1.8.2.8.4 1.6c.4 1 .7 2.1 1.2 3.1.9 2 2 3.9 3.4 5.5 1.3 1.7 2.9 3.1 4.6 4.2 1.7 1.2 3.6 1.9 5.5 2.4l1.4.3 1.6.1h1.4c.5 0 1 0 1.4-.1l1.4-.2 1.4-.4.7-.2.6-.3 1.3-.5c1.6-.8 3.2-1.7 4.5-2.9 2.7-2.2 4.6-4.9 5.9-7.5 1.3-2.6 2.1-5 2.5-7.1.3-1 .3-1.9.4-2.7.1-.8.1-1.5.1-2.1.2-1.1.2-1.7.2-1.7zM506.7 197.9s0 .6-.1 1.7c0 .6-.1 1.3-.2 2.1s-.2 1.8-.4 2.8l-.3 1.6-.5 1.8c-.1.6-.4 1.2-.6 1.9-.2.7-.5 1.3-.8 2-1.2 2.7-2.9 5.7-5.5 8.4-1.3 1.4-2.9 2.6-4.6 3.7-1.8 1-3.8 1.9-6 2.2-.5.1-1.1.2-1.7.2l-.8.1h-.8c-.5 0-1.1 0-1.6-.1-.5 0-1.2-.2-1.8-.3-2.4-.4-4.7-1.3-6.8-2.5-2.1-1.3-4.1-2.8-5.7-4.7-1.7-1.9-3.1-4-4.2-6.2-.6-1.1-1-2.3-1.5-3.5l-.6-1.8-.3-.9-.2-.9c-.7-2.5-.9-5.1-1-7.6v-2.8l.1-1 .2-2 .3-1.9.2-1 .2-.9.5-1.9c.4-1.2.8-2.5 1.4-3.6 1-2.4 2.4-4.6 4-6.6s3.6-3.8 5.8-5.2c2.2-1.4 4.6-2.4 7.1-2.8.6-.1 1.2-.2 1.9-.3l1.9-.1h1l.8.1c.5.1 1 .1 1.7.2.6.1 1.2.3 1.9.4l1.7.6.8.3.8.4 1.5.8c1.8 1.2 3.5 2.5 4.8 4 2.6 2.9 4.2 6.1 5.3 9 .3.7.5 1.4.7 2.1.2.7.4 1.3.5 2l.4 1.8.3 1.7c.2 1.1.2 2 .3 2.8.1.8.1 1.5.1 2.1-.2 1.1-.2 1.7-.2 1.8zm-.6-.1s0-.6-.1-1.7c0-.3 0-.6-.1-.9 0-.3-.1-.7-.2-1.1-.1-.8-.3-1.7-.6-2.7-.5-2-1.4-4.4-2.8-6.8-1.4-2.4-3.5-4.9-6.1-6.9-1.3-1.1-2.8-1.8-4.3-2.6l-1.2-.4-.6-.2-.6-.1-1.2-.3-1.2-.1c-.3-.1-.9-.1-1.4-.1h-1.5000000000000002.1l-1.3.1c-.4 0-.9.2-1.3.3-1.7.4-3.5 1-5.1 2.1-1.6 1-3.2 2.3-4.5 3.8-1.3 1.5-2.6 3.2-3.6 5.1-.5.9-.9 1.9-1.3 2.9l-.5 1.6-.3.8-.2.8-.4 1.6-.2 1.6-.1.8-.1.9-.1 1.7c0 2.2.1 4.5.6 6.7l.1.8.2.8.4 1.6c.4 1 .7 2.1 1.2 3.1.9 2 2 3.9 3.4 5.5 1.3 1.7 2.9 3.1 4.6 4.2 1.7 1.2 3.6 1.9 5.5 2.4l1.4.3 1.6.1h1.4c.5 0 1 0 1.4-.1l1.4-.2 1.4-.4.7-.2.6-.3 1.3-.5c1.6-.8 3.2-1.7 4.5-2.9 2.7-2.2 4.6-4.9 5.9-7.5 1.3-2.6 2.1-5 2.5-7.1.3-1 .3-1.9.4-2.7.1-.8.1-1.5.1-2.1.1-1.1.2-1.7.2-1.7zM360.3 190.2s0 .3-.1 1c0 .3-.1.7-.1 1.2-.1.5-.1 1-.3 1.6-.3 1.2-.7 2.6-1.4 4.1-.7 1.5-1.8 3.2-3.4 4.6-1.6 1.5-3.7 2.7-6.3 3.2-.3.1-.6.1-1 .1l-.5.1h-.5c-.6 0-1.2 0-1.9-.1-1.5-.2-2.8-.6-4.1-1.2-2.6-1.2-4.9-3.3-6.5-5.8-.8-1.3-1.4-2.7-1.9-4.2-.2-.7-.4-1.5-.5-2.2-.1-.4-.1-.8-.1-1.1v-2.7l.1-.6.1-1.2.2-1.2c.3-1.5.8-3 1.6-4.4 1.4-2.8 3.7-5.2 6.5-6.7 1.4-.7 2.9-1.2 4.4-1.4.8-.1 1.5-.1 2.2-.2h.6000000000000001l.4.1.4.1h.2l.3.1c.8.2 1.6.3 2.2.6.7.2 1.3.5 1.8.9.6.3 1.1.7 1.6 1.1.5.4.9.8 1.3 1.2 1.6 1.7 2.6 3.6 3.2 5.2.7 1.7.9 3.1 1.1 4.3.1.6.1 1.1.2 1.6 0 .5.1.9 0 1.2.2.3.2.7.2.7zm-.6 0s0-.3-.1-.9c0-.3-.1-.7-.2-1.1 0-.2-.1-.4-.2-.7-.1-.2-.2-.5-.3-.8-.2-.5-.5-1.1-.7-1.7-.4-.6-.7-1.2-1.2-1.8-1-1.2-2.3-2.3-3.9-3l-1.2-.5c-.4-.1-.8-.3-1.3-.4-.4-.1-.8-.2-1.3-.2-.5-.1-.8-.1-1.2-.1h-1.4000000000000001.1l-1.3.2c-.9.2-1.8.5-2.6.9-1.7.8-3.3 2.2-4.5 3.9-.6.9-1.1 1.9-1.4 2.9l-.2.8-.2.8-.1.4v.5l-.1 1v-.1.1.1.2.4.9c0 .6.1 1.1.2 1.7.3 1.1.6 2.2 1.1 3.2 1 2 2.6 3.7 4.5 4.8.5.3 1 .5 1.4.7.5.2 1 .4 1.5.4.4.1 1.1.2 1.6.2h1.6-.1c2-.2 4-.8 5.6-1.8 1.6-1 2.9-2.3 3.7-3.6.4-.7.8-1.3 1.1-2 .2-.7.5-1.2.6-1.8l.2-.8c0-.3.1-.5.1-.7.1-.4.1-.8.1-1.1.1-.7.1-1 .1-1zM504.6 190.2s0 .3-.1 1c0 .3-.1.7-.1 1.2-.1.5-.1 1-.3 1.6-.3 1.2-.7 2.6-1.4 4.1-.7 1.5-1.8 3.2-3.4 4.6-1.6 1.5-3.7 2.7-6.3 3.2-.3.1-.6.1-1 .1l-.5.1h-.5c-.6 0-1.2 0-1.9-.1-1.5-.2-2.8-.6-4.1-1.2-2.6-1.2-4.9-3.3-6.5-5.8-1.6-2.6-2.5-5.6-2.6-8.7 0-.9 0-1.3.1-2.2l.1-1.2.2-1.2c.3-1.5.8-3 1.6-4.4 1.4-2.8 3.7-5.2 6.5-6.7 1.4-.7 2.9-1.2 4.4-1.4.8-.1 1.5-.1 2.2-.2h.6000000000000001l.4.1.4.1h.2l.3.1c.8.2 1.6.3 2.2.6.7.2 1.3.5 1.8.9.6.3 1.1.7 1.6 1.1.5.4.9.8 1.3 1.2 1.6 1.7 2.6 3.6 3.2 5.2.7 1.7.9 3.1 1.1 4.3.1.6.1 1.1.2 1.6 0 .5.1.9 0 1.2.3.4.3.8.3.8zm-.6 0s0-.3-.1-.9c0-.3-.1-.7-.2-1.1 0-.2-.1-.4-.2-.7-.1-.2-.2-.5-.3-.8-.2-.5-.5-1.1-.7-1.7-.4-.6-.7-1.2-1.2-1.8-1-1.2-2.3-2.3-3.9-3l-1.2-.5c-.4-.1-.8-.3-1.3-.4-.4-.1-.8-.2-1.3-.2-.5-.1-.8-.1-1.2-.1h-1.4000000000000001.1l-1.3.2c-.9.2-1.8.5-2.6.9-1.7.8-3.3 2.2-4.5 3.9-.6.9-1.1 1.9-1.4 2.9l-.2.8-.2.8-.2 1.8c-.1 2.3.4 4.6 1.4 6.6 1 2 2.6 3.7 4.5 4.8.5.3 1 .5 1.4.7.5.2 1 .4 1.5.4.4.1 1.1.2 1.6.2h1.6-.1c2-.2 4-.8 5.6-1.8 1.6-1 2.9-2.3 3.7-3.6.4-.7.8-1.3 1.1-2 .2-.7.5-1.2.6-1.8l.2-.8c0-.3.1-.5.1-.7.1-.4.1-.8.1-1.1v-1z"/><ellipse class="st0" cx="403.2" cy="245.8" rx="8.2" ry="7.8"/><path class="st0" d="M385.2 267.3s.5.5 1.4 1.3c.5.4 1 .8 1.7 1.3s1.5 1 2.3 1.6c.9.5 1.8 1.1 2.9 1.6 1 .5 2.1 1 3.3 1.4 1.2.4 2.4.7 3.6.9 1.2.2 2.5.2 3.7.2 1.2-.1 2.4-.3 3.5-.7l3.2-1.3 1.5-.7 1.5-.7 1.4-.7c.5-.2.9-.5 1.3-.7l1.3-.7 1.2-.7c.7-.4 1.4-.7 2-1.1 1.1-.6 1.8-.9 1.8-.9l.5.4s-.2.7-.7 2c-.2.6-.6 1.3-1.1 2.1-.2.4-.5.8-.8 1.2-.3.4-.6.8-1 1.3-.3.5-.8.9-1.2 1.3-.5.4-.9.9-1.5 1.3-.5.4-1.1.8-1.7 1.2-.6.4-1.3.7-2 1-1.4.6-2.9 1-4.5 1.1l-1.2.1h-1.2c-.8 0-1.6 0-2.4-.1-1.6-.2-3.1-.4-4.6-.9-1.5-.4-2.8-1.1-4-1.7-2.5-1.3-4.5-3-6.1-4.5-1.6-1.5-2.7-2.9-3.5-3.9-.7-1-1.1-1.6-1.1-1.6l.5-.4z"/></svg>