<svg xmlns="http://www.w3.org/2000/svg" viewBox="0 0 800 458.4" enable-background="new 0 0 800 458.4"><style type="text/css">.st0{fill:#FFFFFF;}</style><path class="st0" d="M333.8 165s.3.3.9.8c.6.5 1.5 1.4 2.7 2.3 2.4 1.9 6 4.7 11.1 7.4 5.1 2.6 11.7 5.2 19.6 6.3 7.9 1.2 17.1 1 26.5-1.6 4.7-1.3 9.5-3.1 14.1-5.5s9.1-5.5 13.3-9.1c1-.9 2-1.9 3.1-2.8.9-1 2-2 2.9-3.1l1.4-1.6c.5-.6.9-1.1 1.3-1.7l2.6-3.4c1.6-2.4 3.2-4.9 4.5-7.5 1.4-2.6 2.5-5.4 3.5-8.2 4-11.3 4.9-24.1 2.1-36.2-.7-3-1.6-6-2.8-9-1.1-2.9-2.5-5.7-4.1-8.5-1.6-2.7-3.4-5.3-5.3-7.8-1-1.2-2-2.4-3.1-3.6-.5-.6-1.1-1.2-1.6-1.7l-1.6-1.6c-2.6-2.3-4.8-4.1-7.5-5.9-2.6-1.7-5.3-3.3-8.1-4.6-2.8-1.3-5.7-2.5-8.7-3.3-3-.9-6-1.5-9-2-12.2-1.7-24.5.2-35.2 4.8-5.4 2.3-10.3 5.3-14.7 8.7-1.1.9-2.2 1.7-3.2 2.7l-1.5 1.4-1.5 1.5-.7.7-.7.8-1.5 1.6c-.9 1-1.7 2-2.5 3l-2.4 3.2c-.4.5-.8 1.1-1.1 1.6-.4.6-.7 1.1-1 1.7-.7 1.1-1.3 2.2-2 3.4-.6 1.1-1.2 2.3-1.7 3.4-2.1 4.6-3.8 9.3-4.9 13.9-2.2 9.3-2.1 18.3-.8 26.1 1.3 7.8 4.1 14.3 6.9 19.3 2.8 5 5.6 8.5 7.7 10.8 1 1.2 1.9 2 2.4 2.6.3.4.6.7.6.7zm-.6.6l-.9-.9c-.6-.6-1.5-1.4-2.5-2.5-2.1-2.3-5.2-5.7-8.3-10.7-1.6-2.5-3.1-5.3-4.6-8.5-1.5-3.2-2.8-6.8-3.9-10.8-2.1-7.9-3.2-17.4-1.8-27.7 1.4-10.2 5.3-21.2 12.4-30.9 7-9.7 17.1-18.1 29.2-23.3 12.1-5.2 26.1-7 39.7-4.6 3.4.6 6.7 1.5 10 2.5 3.3 1.1 6.5 2.4 9.6 4 3.1 1.6 6.1 3.4 8.9 5.4 2.8 2 5.6 4.4 7.9 6.6l1.9 1.9 1.8 1.9c1.2 1.3 2.2 2.6 3.3 4 2.1 2.8 4 5.6 5.6 8.7 1.6 3 3.1 6.2 4.2 9.4 1.2 3.2 2.1 6.5 2.8 9.8 2.8 13.3 1.4 27-3.1 39-1.1 3-2.4 5.9-4 8.7-1.5 2.8-3.2 5.4-5 7.9-.9 1.2-1.8 2.5-2.8 3.6-.5.6-1 1.2-1.5 1.7l-1.5 1.6c-1 1.2-2.1 2.1-3.2 3.2-1.1 1-2.2 2-3.3 2.9-4.5 3.7-9.3 6.7-14.3 9.1-4.9 2.3-10 4-14.9 5-9.9 2.1-19.3 1.8-27.2.4-4-.7-7.7-1.7-11-3-3.3-1.2-6.3-2.5-8.8-3.9-5.1-2.7-8.9-5.4-11.3-7.4-1.2-1-2.1-1.8-2.7-2.3-.3-.5-.7-.8-.7-.8z" id="wings_7_"/><path class="st0" d="M414.9 190.3s1 .8 2.8 2.4c.5.4.9.9 1.5 1.3s1.2.9 1.9 1.4c.7.5 1.4 1 2.3 1.6.9.5 1.8 1 2.8 1.5l1.5.8c.5.2 1.1.5 1.7.7 1.1.5 2.3 1 3.6 1.5 1.3.4 2.6.8 4 1.2 1.4.3 2.9.6 4.4.9 6.1 1 13.1.9 20.4-.9 7.2-1.9 14.6-5.6 21-11.1.4-.3.8-.7 1.2-1.1l1.1-1.1 1.1-1.1.6-.6.5-.6c1.4-1.7 3-3.5 4.1-5.3l1.8-2.7c.5-1 1-2 1.6-3 .6-1 .9-2.1 1.4-3.1.4-1.1.9-2.1 1.2-3.2l1-3.3c.3-1.1.5-2.3.7-3.4l.3-1.7.2-1.7c.1-1.2.3-2.3.3-3.5.2-4.7-.4-9.4-1.5-14.1-1.2-4.6-3.1-9-5.5-13.2-2.5-4.1-5.6-7.8-9.1-11.1l-2.8-2.3c-.5-.4-1-.9-1.5-1.2l-1.4-1-1.4-1-.7-.5c-.3-.2-.5-.3-.8-.4l-3.1-1.7c-4.3-2-8.8-3.5-13.4-4.2-4.6-.6-9.3-.8-13.8-.2-1.1.1-2.2.4-3.3.6l-1.7.3-1.6.5c-1.1.3-2.2.6-3.2.9l-3.1 1.2c-4 1.7-7.9 3.8-11.2 6.5-1.8 1.2-3.2 2.7-4.8 4.1l-.3.3-.1.1-.1.1.1-.1-.6.6-1.1 1.2-1.1 1.2c-.4.4-.8.8-1 1.2-.6.8-1.1 1.6-1.7 2.3-.3.4-.6.7-.8 1.2l-.8 1.3-1.5 2.5c-.4.9-.8 1.8-1.3 2.6-.9 1.7-1.5 3.5-2.2 5.3-.4.9-.6 1.8-.8 2.7l-.7 2.7c-1.6 7.1-1.5 14-.4 19.9.3 1.5.6 2.9 1 4.3l1.3 3.9c.4 1.2 1 2.4 1.5 3.5.3.6.5 1.1.7 1.6l.9 1.5c.6 1 1.1 1.9 1.6 2.7.5.8 1.1 1.5 1.6 2.2.5.7 1 1.3 1.4 1.9.4.6.9 1 1.3 1.5 1.2 1.8 2 2.7 2 2.7zm-.5.6l-2.6-2.6c-.4-.4-.9-.9-1.4-1.5-.5-.6-1-1.2-1.5-1.9s-1.2-1.4-1.8-2.2c-.6-.8-1.2-1.7-1.8-2.7-2.4-3.8-5.2-8.7-7-14.8-1.9-6.1-3-13.5-2.2-21.5l.5-3c.2-1 .3-2.1.6-3.1.5-2 1-4.2 1.9-6.2l1.2-3.1 1.5-3 .8-1.5.9-1.5 2-3 1-1.4 1.1-1.3 1.1-1.3.5-.7.2-.2.1-.1.2-.2.3-.3c1.7-1.7 3.4-3.5 5.4-5 3.8-3.2 8.3-5.7 13.1-7.7 1.2-.4 2.4-.9 3.7-1.4 1.2-.4 2.5-.7 3.8-1l1.9-.5 2-.3c1.3-.2 2.6-.5 3.9-.5 5.3-.5 10.7-.1 16 .8l3.9.9c.7.1 1.3.4 1.9.6l1.9.7 1.9.7c.6.3 1.2.5 1.9.8l3.7 1.7 3.5 2 .9.5.9.6 1.7 1.2 1.7 1.2c.6.4 1 .8 1.5 1.3l3 2.6c3.8 3.9 7.2 8.1 9.8 12.8 2.5 4.7 4.5 9.7 5.7 14.9 1.1 5.2 1.6 10.4 1.2 15.6-.1 1.3-.3 2.6-.4 3.8l-.2 1.9-.4 1.9c-.3 1.2-.5 2.5-.9 3.7l-1.2 3.6c-1.8 4.7-3.9 9.1-6.9 13-1.4 2.1-2.9 3.7-4.4 5.4l-.3.3-.1.2-.1.1s-.2.2-.1.2l-.6.6-1.3 1.2-1.3 1.2c-.4.4-.8.8-1.3 1.1-7.1 5.7-15.2 9.1-22.9 10.5-7.7 1.4-15 1-21.1-.3-6.2-1.2-11.2-3.5-15.2-5.6-1-.6-1.9-1.1-2.8-1.6-.9-.5-1.6-1.1-2.3-1.6-.7-.5-1.4-1-2-1.4-.6-.4-1.1-.9-1.6-1.3-2.1-1.4-3.1-2.3-3.1-2.3z" id="wings_6_"/><path class="st0" d="M424.3 290.4s1.5.2 3.7.6c1.1.2 2.4.4 3.8.8 1.4.3 2.8.6 4.2 1 1.4.4 3 .4 4.3.9.6.3 1.2.6 1.7 1.1.5.4.9.9 1.3 1.4.4.5.7.9 1 1.4l.4.7.3.6c.2.4.3.7.4 1 .1.2.1.4.1.4l-.5.7s-.1.1-.4.2c-.2.1-.6.2-1 .4-.2.1-.4.1-.7.2-.2 0-.5.1-.8.1-.5.1-1.1.2-1.7.2-.6 0-1.2 0-1.9-.1-.6-.1-1.3-.3-1.9-.6-1.2-.6-2.2-1.9-3.5-2.7-1.2-.8-2.4-1.7-3.5-2.6-1.1-.8-2.1-1.7-3-2.4-1.7-1.4-2.8-2.5-2.8-2.5l.5-.8z" id="legs_22_"/><path class="st0" d="M404.9 304.1s1.2.9 2.8 2.3c.8.7 1.8 1.6 2.8 2.5 1 .9 2 1.9 3 3 1 1 2.4 1.8 3.1 2.9.4.5.7 1.1.8 1.7.2.6.3 1.2.4 1.8.1.6.1 1.2.1 1.7v.8l-.1.7c-.1.4-.1.8-.2 1-.1.2-.1.4-.1.4l-.7.4h-.4c-.3 0-.6-.1-1-.2-.2-.1-.4-.1-.7-.2-.2-.1-.5-.2-.7-.2-.5-.2-1-.4-1.5-.7-.5-.3-1-.6-1.5-1s-.9-.9-1.3-1.4c-.7-1.1-.9-2.7-1.5-4-.6-1.3-1.2-2.6-1.6-3.9-.5-1.3-.9-2.5-1.3-3.5-.7-2.1-1.1-3.5-1.1-3.5l.7-.6z" id="legs_20_"/><path class="st0" d="M379.5 314.6s.2 0 .6.1c.2 0 .4.1.7.2l.9.3c.3.1.7.3 1.1.5.4.2.7.4 1.1.7.4.3.8.5 1.1.9.4.3.7.7 1 1 .3.4.7.7 1.1 1.1.4.4.7.8.9 1.2.2.5.2.9.1 1.4-.1.5-.2.9-.5 1.3-.2.4-.5.8-.8 1.1-.2.1-.3.3-.4.4l-.5.3c-.3.2-.5.3-.7.4-.2.1-.3.1-.3.1h-.8s-.1 0-.3-.1c-.2-.1-.4-.2-.7-.4-.1-.1-.3-.1-.5-.2-.1-.1-.3-.2-.5-.2l-.5-.3-.5-.3c-.3-.2-.6-.4-.8-.6-.2-.2-.4-.4-.5-.6-.1-.2 0-.5.1-.9.1-.3.2-.7.2-1 0-.6-.1-1.3-.2-2l-.4-1.9c-.2-.6-.3-1-.5-1.4-.2-.4-.2-.6-.2-.6l.7-.5z" id="stripes_30_"/><path class="st0" d="M455.5 233.5s0 .5.1 1.4c0 .5.1 1 .1 1.7v2.4c-.2 3.5-1.2 8.7-3.9 14.7s-7.2 12.7-13.4 19.4c-6.2 6.8-14 13.6-23.3 20-4.7 3.2-9.7 6.2-15.1 9s-11.1 5.4-17.3 7.6c-1.5.5-3 1.1-4.7 1.5-1.6.4-3.3.9-4.9 1.2l-2.5.5c-.8.1-1.7.2-2.5.4-1.7.3-3.4.4-5.1.5-6.9.5-14 0-21.1-1.3-7.1-1.3-14.1-3.7-20.8-6.8-3.3-1.6-6.6-3.4-9.8-5.5-1.6-1-3.1-2.1-4.6-3.2l-2.2-1.8-1.1-.9-1.1-.9c-5.8-5-10.8-10.9-14.8-17.6-2-3.4-3.6-6.9-5-10.6-1.3-3.7-2.2-7.6-2.8-11.5l-.3-2.9c-.1-.9-.2-1.9-.2-2.9-.2-2-.1-3.9-.1-5.9.1-3.9.5-7.8 1.3-11.7 1.5-7.7 4.6-15.1 9-21.7 4.3-6.6 9.9-12.1 16.1-16.6 6.2-4.5 12.9-7.9 19.8-10.4s13.9-4.2 20.8-5.2l.4-.1h.3l.6-.1 1.2-.1c.8-.1 1.6-.2 2.5-.3l2.7-.2c.9-.1 1.8-.1 2.6-.1 1.7 0 3.4-.1 5.1 0 .8 0 1.7 0 2.5.1.8 0 1.7.1 2.5.2l2.5.2 2.4.3 4.8.6c1.6.2 3.1.5 4.7.8 1.6.3 3.1.6 4.6 1 6 1.4 11.7 3.3 17.1 5.3 10.7 4.1 19.9 9.2 27.4 14.6 3.8 2.7 7.1 5.4 10 8.1 2.9 2.7 5.4 5.4 7.4 8.1 4.1 5.2 6.3 10.1 7.3 13.4.2.9.5 1.6.6 2.3.1.7.2 1.2.3 1.7-.2.8-.1 1.3-.1 1.3zm-.8.1s-.1-.5-.3-1.3c-.1-.4-.2-1-.3-1.6-.2-.6-.4-1.4-.7-2.2-1.1-3.2-3.3-7.9-7.5-12.8s-10.2-10.1-17.9-14.7c-7.7-4.6-17-8.7-27.5-11.9-10.5-3.1-22.3-5.3-34.6-5.8-.8 0-1.6-.1-2.3-.1h-2.3c-1.6 0-3.1.1-4.7.2-.8 0-1.6.1-2.3.1l-2.3.2c-.8.1-1.6.2-2.5.3l-1.2.2-.6.1h-.5c-6.4 1.1-12.9 2.6-19.1 4.9-6.3 2.3-12.4 5.3-18 9.2-5.5 3.9-10.6 8.6-14.6 14.3-3.9 5.6-6.9 12-8.4 18.9-.8 3.4-1.2 6.9-1.4 10.5 0 1.8-.1 3.6 0 5.3 0 .9 0 1.7.1 2.7l.2 2.7c.4 3.5 1.2 6.9 2.3 10.3 1.2 3.3 2.6 6.6 4.3 9.7 3.5 6.2 8 11.7 13.3 16.5l1 .9 1 .8 2 1.7c1.4 1 2.8 2.2 4.3 3.1 2.9 2 6 3.7 9.1 5.3 6.3 3.1 12.8 5.5 19.5 6.8 6.7 1.4 13.4 2 19.9 1.6 1.6-.1 3.3-.2 4.9-.4l2.4-.3 2.4-.4c.8-.2 1.6-.3 2.3-.4.8-.2 1.5-.4 2.3-.5 1.5-.3 3.1-.9 4.6-1.3 11.9-3.9 22.9-9.2 32.3-15.1 9.5-5.8 17.5-12.3 23.8-18.8 3.1-3.3 5.9-6.5 8.1-9.7 2.3-3.2 4-6.3 5.4-9.3 1.4-2.9 2.3-5.7 2.9-8.1.3-1.2.5-2.4.7-3.4.1-1.1.2-2 .3-2.9v-2.3c0-.7-.1-1.2-.1-1.7-.3-.8-.3-1.3-.3-1.3z" id="bee_body_4_"/><path class="st0" d="M364.5 316.8s.2 1.4.4 3.5c.1 1 .2 2.3.2 3.5.1 1.3.1 2.7.1 4 0 1.4.4 2.8.2 4-.1.6-.3 1.2-.6 1.7s-.6 1-1 1.5l-1.1 1.2-.6.5c-.2.1-.4.3-.5.4-.3.2-.6.4-.9.5-.2.1-.3.2-.3.2l-.8-.2s-.1-.1-.2-.3c-.2-.2-.4-.5-.6-.8l-.3-.6-.3-.6-.6-1.5c-.2-.5-.3-1.1-.3-1.7-.1-.6-.1-1.2.1-1.8.3-1.2 1.2-2.4 1.7-3.7.5-1.3 1-2.5 1.6-3.7.5-1.2 1.1-2.3 1.6-3.2 1-1.9 1.7-3.1 1.7-3.1l.5.2z" id="legs_13_"/><path class="st0" d="M340.9 182.6c1.7.1 3.3.4 4.9.7 1.6.3 3.3.7 4.9 1.1 1.6.4 3.2.9 4.8 1.4 1.6.5 3.2 1.1 4.7 1.7 1.6.6 3.1 1.3 4.6 2 .8.3 1.5.7 2.3 1.1l2.2 1.2c1.5.8 2.9 1.7 4.3 2.6l2.1 1.5 2 1.5 2 1.6 1.9 1.7 1.8 1.8 1.7 1.9c.6.6 1.1 1.3 1.6 2l.8 1 .8 1 1.5 2.1 1.4 2.2c.5.7.8 1.5 1.3 2.3l1.2 2.3 1.1 2.4c.4.8.6 1.6.9 2.4.7 1.6 1.1 3.3 1.6 4.9l1.3 5-.1-.3c.3 1 .5 1.9.7 2.8.2.9.4 1.8.5 2.7.3 1.8.6 3.6.8 5.4.4 3.6.6 7.3.5 10.9 0 1.8-.1 3.7-.3 5.5-.1 1.8-.4 3.6-.7 5.5l-.5 2.7-.6 2.7c-.2.9-.5 1.8-.7 2.6-.2.9-.5 1.8-.8 2.6-.6 1.7-1.3 3.4-2 5.1-.4.8-.8 1.7-1.1 2.5-.4.8-.8 1.6-1.2 2.5l-1.3 2.4-1.4 2.3c-.9 1.6-2 3.1-3 4.5-1.1 1.4-2.1 2.9-3.3 4.3l-1.8 2-1.9 1.9c-1.2 1.3-2.6 2.5-3.9 3.7-1.3 1.2-2.8 2.3-4.2 3.3l-.6-.6 1.5-2.2c.5-.7 1-1.4 1.5-2.2l2.8-4.4 1.4-2.2 1.3-2.2c.9-1.5 1.6-3 2.4-4.5.4-.7.7-1.5 1.1-2.3.4-.8.8-1.5 1.1-2.3l1-2.3c.3-.8.6-1.6.9-2.3.7-1.5 1.1-3.1 1.7-4.7.5-1.6 1-3.2 1.4-4.8.2-.8.5-1.6.6-2.4l.6-2.4.5-2.4.5-2.4c.3-1.6.6-3.3.8-4.9.2-1.6.4-3.3.6-5 .2-1.7.3-3.3.3-5 .1-1.7.1-3.3 0-5-.1-1.7-.2-3.3-.4-5l-.3-2.5c-.1-.8-.3-1.7-.4-2.3l-.1-.3c-.3-1.5-.5-3.1-.9-4.6-.4-1.5-.7-3.1-1.2-4.5l-.7-2.2-.9-2.2c-.3-.7-.6-1.4-1-2.1l-1-2.1-1.1-2.1-1.2-2-.6-1-.7-1-1.4-1.9-1.5-1.8-1.6-1.8c-.5-.6-1.1-1.2-1.7-1.7l-1.7-1.7-1.8-1.6-1.9-1.5c-1.3-1-2.6-1.9-3.9-2.8-.7-.5-1.3-.9-2-1.3l-2.1-1.2c-1.4-.8-2.8-1.6-4.3-2.3-1.5-.7-2.9-1.4-4.4-2-1.5-.6-3-1.2-4.6-1.7-1.5-.5-3.1-1-4.7-1.5-1.6-.4-3.2-.8-4.8-1.1l.1-.7z" id="stripes_28_"/><path class="st0" d="M400 299.9c2.2-2.7 4.1-5.6 6-8.4 1.9-2.9 3.6-5.9 5.2-8.9.8-1.5 1.6-3.1 2.3-4.6l1.1-2.3 1-2.4c.6-1.6 1.3-3.2 1.8-4.8.6-1.6 1.1-3.2 1.6-4.8l.7-2.4.6-2.5c.2-.8.4-1.6.5-2.5.2-.8.4-1.6.5-2.5l.4-2.5.3-2.5.2-2.5.1-2.5v-2.5l-.1-2.5c0-.8-.1-1.6-.2-2.4-.1-.8-.2-1.6-.4-2.4l-.5-2.4-.6-2.4c-.4-1.6-1-3.1-1.5-4.6l-.1-.6c0-.1-.2-.7-.3-1-.1-.4-.3-.8-.5-1.3-.3-.9-.7-1.7-1.1-2.6l-1.2-2.6-1.3-2.6c-.5-.8-.9-1.7-1.4-2.6l-1.5-2.5-1.6-2.5-.8-1.3-.8-1.2-1.7-2.5-1.8-2.4-1.8-2.4-1.8-2.4-1.9-2.4c-.6-.8-1.2-1.6-1.9-2.5-1.3-1.6-2.6-3.2-3.9-4.9l.5-.6c1.8 1 3.6 2.1 5.4 3.3l2.6 1.8c.8.6 1.7 1.2 2.5 1.9l2.4 2 2.4 2.1 2.3 2.2 2.2 2.4 2.1 2.4c.7.8 1.4 1.7 2 2.5l1.9 2.6c.6.9 1.2 1.8 1.7 2.8l1.6 2.9c.5 1 1 2 1.4 3 .4 1 .8 2.1 1.2 3.2l.5 1.7c.2.6.3 1.1.4 2l-.1-.6.6 2.7.3 1.4.2 1.4.4 2.7.3 2.8c.1.9.1 1.8.2 2.8l.1 2.7v2.7l-.2 2.7c0 .9-.2 1.8-.3 2.7-.1.9-.2 1.8-.4 2.7l-.5 2.7-.6 2.6c-.2.9-.4 1.7-.7 2.6-.2.9-.5 1.7-.8 2.6l-.8 2.5-.9 2.5c-.7 1.7-1.3 3.3-2.1 4.9-.7 1.6-1.5 3.2-2.3 4.8l-1.3 2.3-1.3 2.3c-.9 1.5-1.8 3-2.8 4.5-1.9 2.9-4 5.8-6.2 8.5-1.1 1.4-2.2 2.7-3.4 4-1.2 1.3-2.3 2.6-3.6 3.8l-.5.1z" id="stripes_26_"/><path class="st0" d="M437.4 272.7s.5-1 1.2-3c.7-1.9 1.6-4.7 2.3-8 .8-3.3 1.4-7.3 1.7-11.5.1-2.1.2-4.3.2-6.5l-.1-3.3-.3-3.3c-.3-2.2-.7-4.4-1.3-6.4-.1-.5-.3-1-.4-1.6l-.5-1.5-.9-3-.4-1.5c-.2-.5-.3-1-.4-1.4l-.8-2.8c-.5-1.8-1.1-3.5-1.6-5.1-.3-.8-.5-1.6-.8-2.3l-.3-1.1c-.1-.4-.2-.7-.4-1-.2-.7-.4-1.3-.6-1.9-.2-.6-.3-1.1-.5-1.6-.3-1-.6-1.8-.7-2.3-.2-.6-.2-.9-.2-.9l.6-.5s.3.2.7.5c.5.3 1.1.9 2 1.6.8.7 1.7 1.6 2.8 2.7 1.1 1.1 2 2.4 3.2 3.9 1 1.5 2.1 3.2 3 5.1l.7 1.5.6 1.5c.4 1 .8 2.1 1.1 3.2.3 1.1.6 2.3.8 3.5l.3 1.8.2 1.8c.2 2.4.3 4.9.3 7.3 0 1.2 0 2.4-.1 3.7-.1 1.2-.1 2.4-.3 3.6-.2 2.4-.6 4.7-1.1 6.9-.5 2.2-1 4.3-1.7 6.3-.6 2-1.3 3.8-2 5.4-.7 1.7-1.4 3.1-2 4.4-.6 1.3-1.2 2.4-1.8 3.3-1 1.8-1.7 2.8-1.7 2.8l-.8-.3z" id="stripes_17_"/><path class="st0" d="M316.3 265.8s.4.4 1.2 1.1c.4.4.9.8 1.5 1.2.3.2.6.5 1 .7.4.2.8.4 1.2.7 1.8.9 4 1.8 6.8 2.1 2.7.3 5.8.1 9-.9 3.1-1 6.2-2.8 8.9-5.2.3-.3.6-.7 1-1l.5-.5.2-.3.1-.1.1-.1c.6-.8 1.3-1.6 1.7-2.4.2-.4.5-.7.7-1.2.2-.4.4-.8.6-1.3l.6-1.3c.2-.5.4-.9.5-1.4.6-1.8.9-3.8 1-5.8 0-2-.2-4-.7-5.9-.5-1.9-1.3-3.8-2.3-5.5-.6-.8-1.1-1.7-1.8-2.4-.3-.4-.6-.8-1-1.1l-.5-.5-.3-.3-.1-.1-.1-.1.1.1-1.3-1.1c-.2-.2-.5-.4-.7-.5l-.6-.4c-.4-.2-.7-.5-1.2-.7l-1.3-.6c-1.8-.7-3.7-1.3-5.5-1.5-1.9-.2-3.8-.1-5.6.2-1.8.4-3.6.8-5.2 1.5s-3.2 1.5-4.5 2.6l-2 1.6-.1.1-.1.1s.2-.3.1-.1l-.2.5-.5.5-.5.5c-.2.2-.4.4-.4.5-.4.6-1 1.1-1.4 1.8l-.7 1-.6 1c-.8 1.4-1.4 2.8-1.9 4.3-1 2.9-1.3 5.9-1 8.5.2 2.6 1 4.9 1.9 6.6l.6 1.2c.2.4.5.7.7 1l.6.9c.2.3.4.5.6.7.5.9.9 1.3.9 1.3zm-.6.6l-1.2-1.2c-.4-.4-.8-.9-1.4-1.5-.3-.3-.6-.6-.8-1l-.9-1.2c-1.2-1.7-2.5-3.9-3.5-6.7-1-2.8-1.7-6.3-1.5-10.1.2-1.9.4-4 1.1-6l.5-1.5.7-1.5c.4-1 1.2-2 1.8-3.1.2-.3.3-.4.5-.6l.5-.6.5-.6.2-.3.2-.2.1-.1.2-.2c.8-.8 1.6-1.7 2.6-2.5 1.8-1.6 4-2.8 6.3-3.9 2.3-1 4.9-1.6 7.4-1.9 2.6-.2 5.2 0 7.8.4 2.6.5 5.1 1.5 7.4 2.7 1.1.7 2.3 1.3 3.4 2.2l.8.6.7.6 1.3 1.2c.3.2.1.1.2.2l.1.1.2.2.3.4.7.7c.5.5.8 1 1.2 1.5.8 1 1.4 2.2 2.1 3.3 1.2 2.3 2.1 4.7 2.6 7.2s.6 5 .4 7.4c-.3 2.4-.8 4.8-1.7 7-.9 2.2-2 4.2-3.4 6.1-.7 1-1.4 1.7-2.1 2.4l-.3.4-.3.3-.6.5-1.2 1c-3.4 2.6-7.2 4.1-10.8 4.7-3.6.6-6.9.3-9.7-.3-2.8-.6-5.1-1.6-6.9-2.6l-1.3-.7-1.1-.7c-.7-.4-1.2-.8-1.6-1.2-1-.5-1.5-.9-1.5-.9z" id="bee_eyeball_3_"/><path class="st0" d="M313.5 258.3l.6.6c.2.2.5.4.8.6.3.2.7.4 1.1.7.9.4 2.1.8 3.4.9 1.4 0 2.9-.2 4.4-.9 1.5-.7 2.9-1.7 4.1-2.9.2-.2.3-.3.4-.5l.2-.2.1-.1-.1.1.1-.1c.3-.4.7-.9.8-1.2l.3-.5.3-.6c.2-.4.3-.8.5-1.3.2-.9.4-1.8.4-2.7 0-.9-.1-1.8-.3-2.6-.2-.8-.6-1.6-1.1-2.4-.5-.7-1.1-1.3-1.7-1.9l.1.1-.1-.1-.2-.1-.4-.3-.5-.3c-.2-.1-.7-.3-1-.5-.8-.2-1.6-.4-2.4-.4-.8 0-1.6.1-2.3.3-.7.2-1.4.5-2.1.8-.7.3-1.3.7-1.9 1.1-.3.2-.6.4-.9.7h-.1s.2-.3.1-.1l-.1.1-.3.3-.5.5c-.2.2-.4.3-.6.6l-.7.8c-.5.5-.9 1.1-1.2 1.8-.7 1.2-1.2 2.6-1.3 3.9-.1 1.3.1 2.5.5 3.4.2.5.4.9.6 1.2.2.3.4.6.5.8.3.2.5.4.5.4zm-.6.6l-.6-.6c-.4-.4-1-1-1.7-1.9-.7-.9-1.5-2-2.1-3.5-.7-1.5-1.2-3.4-1.2-5.6 0-1.1.1-2.3.5-3.4.3-1.2.8-2.3 1.6-3.6l.5-.7.2-.3.1-.2.3-.3c.5-.5.9-1 1.5-1.5 1-.9 2.3-1.7 3.6-2.3 1.3-.6 2.8-1 4.3-1.1 1.5-.1 3-.1 4.5.2 1.5.3 2.9.9 4.3 1.6.7.4 1.3.8 2 1.3.3.3.7.5.9.7l.8.7c1 1.1 1.9 2.3 2.6 3.7.6 1.3 1.1 2.8 1.3 4.2.2 1.4.2 2.8 0 4.2-.2 1.4-.6 2.6-1.2 3.8-.3.6-.6 1.2-.9 1.7l-.5.8-.6.8c-.4.6-.8.8-1.1 1.2l-.2.2-.2.1-.3.3c-.2.2-.4.4-.7.5-1.9 1.4-4 2.1-5.9 2.3-1.9.3-3.7.1-5.1-.3-1.5-.3-2.6-.9-3.6-1.4-.9-.5-1.6-1-2.1-1.3-.7-.1-1-.3-1-.3z" id="bee_pupil_3_"/><path class="st0" d="M305.9 291.7s.6.3 1.7.7c1.1.4 2.6 1.1 4.5 1.8.9.3 2 .6 3 .9.5.1 1.1.2 1.7.3.5.1 1.1.2 1.7.2 2.3.2 4.8-.1 6.9-1.1l.2-.1s.1-.1.2-.1c.1-.1.3-.2.4-.2.2-.1.4-.3.7-.4.4-.3.9-.7 1.2-1.1.7-.8 1.3-1.7 1.9-2.5.5-.8 1-1.7 1.3-2.5.3-.8.5-1.6.5-2.3 0-.7-.1-1.3-.3-1.9-.2-.6-.6-1.1-.9-1.5-.3-.4-.7-.6-.9-.8-.3-.2-.4-.2-.4-.2v-.5s.2-.1.5-.1c.4-.1.9-.1 1.6.1.7.2 1.5.5 2.3 1.2.8.7 1.6 1.8 2 3 .4 1.3.5 2.7.3 4.2-.2 1.4-.8 2.9-1.6 4.1-.8 1.3-2 2.4-3.3 3.3-.6.5-1.3.9-2 1.2l-1.1.5-.5.2-.3.1-.3.1c-1.5.5-3 .7-4.5.7s-2.9-.2-4.2-.5c-.7-.2-1.3-.3-1.9-.5-.6-.2-1.2-.4-1.7-.7-1.1-.5-2.1-1-3-1.5-1.8-1-3.2-1.9-4.2-2.6-1-.7-1.5-1.1-1.5-1.1v-.4z" id="bee_mouth_5_"/></svg>