<svg xmlns="http://www.w3.org/2000/svg" width="800" height="458.4" viewBox="0 0 800 458.4"><style type="text/css">.st0{fill:none;stroke:#FFFFFF;stroke-width:4;stroke-miterlimit:10;}</style><ellipse id="wings_7_" transform="matrix(-.687 .727 -.727 -.687 723.452 -85.74)" class="st0" cx="380.2" cy="112.9" rx="68" ry="66.7"/><ellipse id="wings_6_" transform="matrix(-.687 .727 -.727 -.687 868.481 -74.017)" class="st0" cx="450.2" cy="150" rx="51.7" ry="52.3"/><path id="legs_22_" class="st0" d="M424.1 290.8c7 3.3 14 6.5 21.1 9.8"/><path id="legs_20_" class="st0" d="M404.6 304.3c4.2 6.2 8.4 12.5 12.7 18.7"/><path id="stripes_30_" class="st0" d="M379.2 315c3.4 2.4 5.5 6.6 5.4 10.7"/><path id="bee_body_4_" class="st0" d="M455.1 233.6c3.7 27.8-33.9 60.6-72.2 74.1-44 15.5-95.2-14-100.2-54.4-5-40.5 23.5-66.8 63.8-72.8 44.6-6.9 104.4 21.4 108.6 53.1z"/><path id="legs_13_" class="st0" d="M364.1 316.7l-4.2 21"/><path id="stripes_28_" class="st0" d="M340.9 183s46.7 5.4 54.7 49.6c0 0 11.4 41.5-23.6 76.9"/><path id="stripes_26_" class="st0" d="M400.3 300.2s34.9-37.7 22.5-76.6c0 0-2.9-17.1-28.9-39.3"/><path id="stripes_17_" class="st0" d="M437.8 272.9s20.7-35.1-5.1-70.4"/><ellipse id="bee_eyeball_3_" transform="matrix(-.687 .727 -.727 -.687 741.263 178.824)" class="st0" cx="332.1" cy="249.1" rx="23.5" ry="23.3"/><ellipse id="bee_pupil_3_" transform="matrix(-.687 .727 -.727 -.687 724.018 187.559)" class="st0" cx="321.6" cy="249.7" rx="12.2" ry="11.6"/><path id="bee_mouth_5_" class="st0" d="M305.8 291.9c3.2 1.7 6.4 3.5 9.9 4.5s7.3 1.2 10.7-.2c2.9-1.2 5.3-3.5 6.5-6.3.8-1.8 1.2-3.9.6-5.8s-2.3-3.5-4.3-3.6"/></svg>