<svg xmlns="http://www.w3.org/2000/svg" viewBox="0 0 387.7 137" enable-background="new 0 0 387.7 137"><style type="text/css">.st0{opacity:0.73;fill:#FFFFFF;}</style><path class="st0" d="M369.5 65.1c0-7.6-8.9-14.5-23.1-19.2l.1-.8c0-12.7-27.1-23-60.6-23-7.5 0-14.7.5-21.3 1.5-3.8-.9-7.7-1.7-11.7-2.5-9.7-6.4-24.5-10.5-41.1-10.5-9.5 0-18.4 1.4-26.1 3.7-4.2-.1-8.4-.2-12.6-.2-87.4 0-158.3 23-158.3 51.4s70.9 51.4 158.3 51.4h6c13.2 3.4 29.1 5.4 46.2 5.4 44.1 0 80.1-13.1 82-29.5 1.5-.8 2.9-1.5 4.2-2.3 33-2 58-12.6 58-25.4z"/></svg>