<svg xmlns="http://www.w3.org/2000/svg" width="202.5" height="225.9" viewBox="718.1 -14 202.5 225.9" enable-background="new 718.1 -14 202.5 225.9"><style type="text/css">.st0{fill:none;stroke:#FFFFFF;stroke-width:4;stroke-miterlimit:10;} .st1{fill:#FFFFFF;}</style><ellipse class="st0" cx="819.6" cy="51.7" rx="51.3" ry="47.8"/><ellipse class="st0" cx="754.4" cy="21.7" rx="21.6" ry="20.1"/><ellipse class="st0" cx="884.4" cy="19.4" rx="21.6" ry="20.1"/><ellipse class="st0" cx="819.6" cy="69.1" rx="21.6" ry="20.1"/><ellipse class="st0" cx="789.9" cy="42.4" rx="13.1" ry="14.3"/><ellipse class="st0" cx="848.3" cy="42.4" rx="13.1" ry="14.3"/><ellipse class="st0" cx="794.2" cy="43.1" rx="8.8" ry="11"/><ellipse class="st0" cx="852.6" cy="42.4" rx="8.8" ry="11"/><ellipse class="st0" cx="796.7" cy="39.3" rx="5.3" ry="5.8"/><ellipse class="st0" cx="855.3" cy="39.3" rx="5.3" ry="5.8"/><ellipse class="st1" cx="819.5" cy="61.9" rx="3.3" ry="3.2"/><path class="st0" d="M812.1 70.7s7.5 9.5 15.4 0"/><path class="st1" d="M738.2 118.7c2.5-.4 6.1-.7 10.2-.7 5 0 8.5.8 10.9 2.7 2 1.6 3.1 4 3.1 7 0 4.3-3.1 7.3-6 8.3v.2c2.4 1 3.6 3.2 4.5 6.3 1.1 3.8 2.1 8.2 2.8 9.5h-7.8c-.5-1-1.4-3.7-2.4-7.9-.9-4.2-2.4-5.4-5.5-5.4h-2.3v13.3h-7.6v-33.3zm7.5 14.5h3c3.8 0 6.1-1.9 6.1-4.9 0-3.1-2.1-4.7-5.6-4.7-1.9 0-2.9.2-3.5.2v9.4zM787.9 137.7h-12.4v8h13.9v6.2h-21.5v-33.7h20.8v6.2h-13.2v7h12.4v6.3zM801.3 124.7h-9.1v-6.4h25.9v6.4h-9.2v27.3h-7.7v-27.3zM829.8 118.3v19.4c0 5.8 2.2 8.8 6.1 8.8 4 0 6.2-2.8 6.2-8.8v-19.4h7.6v18.9c0 10.4-5.2 15.4-14.1 15.4-8.5 0-13.5-4.7-13.5-15.5v-18.8h7.7zM856.3 118.7c2.5-.4 6.1-.7 10.2-.7 5 0 8.5.8 10.9 2.7 2 1.6 3.1 4 3.1 7 0 4.3-3.1 7.3-6 8.3v.2c2.4 1 3.7 3.2 4.5 6.3 1 3.8 2.1 8.2 2.8 9.5h-7.8c-.5-1-1.3-3.7-2.3-7.9-.9-4.2-2.4-5.4-5.5-5.4h-2.3v13.3h-7.6v-33.3zm7.5 14.5h3c3.8 0 6.1-1.9 6.1-4.9 0-3.1-2.1-4.7-5.6-4.7-1.8 0-2.9.2-3.5.2v9.4zM885.9 152v-33.7h8.9l7 12.4c2 3.6 4 7.8 5.5 11.6h.2c-.5-4.5-.7-9-.7-14.1v-9.9h7v33.7h-8l-7.2-13c-2-3.6-4.2-8-5.9-11.9h-.1c.2 4.5.3 9.2.3 14.7v10.2h-7zM755.4 176.7h-9.1v-6.4h25.9v6.4h-9.2v27.3h-7.7v-27.3zM805.7 186.8c0 11.1-6.7 17.8-16.6 17.8-10 0-15.9-7.5-15.9-17.2 0-10.1 6.5-17.7 16.4-17.7 10.5 0 16.1 7.8 16.1 17.1zm-24.3.4c0 6.6 3.1 11.3 8.2 11.3 5.2 0 8.1-4.9 8.1-11.5 0-6-2.9-11.3-8.2-11.3-5.1.1-8.1 5-8.1 11.5zM825.4 176.7h-9.1v-6.4h25.9v6.4h-9.2v27.3h-7.7v-27.3zM875.7 186.8c0 11.1-6.7 17.8-16.6 17.8-10 0-15.9-7.5-15.9-17.2 0-10.1 6.5-17.7 16.4-17.7 10.4 0 16.1 7.8 16.1 17.1zm-24.4.4c0 6.6 3.1 11.3 8.2 11.3 5.2 0 8.1-4.9 8.1-11.5 0-6-2.9-11.3-8.2-11.3-5.1.1-8.1 5-8.1 11.5zM880.6 170.7c2.4-.4 5.7-.7 10.3-.7 4.7 0 8.1.9 10.3 2.7 2.2 1.7 3.6 4.5 3.6 7.8s-1.1 6.1-3.1 8c-2.6 2.5-6.5 3.6-11 3.6-1 0-1.9-.1-2.6-.2v12.1h-7.6v-33.3zm7.6 15.3c.7.2 1.5.2 2.5.2 4.1 0 6.6-2 6.6-5.5 0-3.1-2.2-5-6-5-1.5 0-2.6.2-3.2.3v10z"/></svg>