<?xml version="1.0" encoding="utf-8"?>
<!-- Generator: Adobe Illustrator 18.1.1, SVG Export Plug-In . SVG Version: 6.00 Build 0)  -->
<svg version="1.1" id="Layer_1" xmlns="http://www.w3.org/2000/svg" xmlns:xlink="http://www.w3.org/1999/xlink" x="0px" y="0px"
	 width="800px" height="458.4px" viewBox="0 0 800 458.4" style="enable-background:new 0 0 800 458.4;" xml:space="preserve">
<style type="text/css">
	.st0{fill:none;stroke:#FFFFFF;stroke-width:4;stroke-miterlimit:10;}
	.st1{fill:#FFFFFF;}
	.st2{fill:#D8D8D8;}
</style>
<path class="st0" d="M397.5,341.9c0,0-137.7-58.1-208.3-25.3l22.1-50.6l173.4,4.7l194.9-14.1l20.6,54.3
	C600.1,311,500.3,280,397.5,341.9z"/>
<path class="st1" d="M212.9,80.8c0,0,112.7-40,173.5,26.7c0,0,37.1-65.2,152.7-23.7l66.7,213.5c0,0-116.4-53.4-208.3,34.1
	c0,0-55.6-72.7-208.3-43l20.5-179.6L212.9,80.8z"/>
<path class="st0" d="M175.8,331.4c0,0,97.5,15.1,214.7,25.5l20.3-0.9l209.6-31.3L546.7,77.7l-158.9,41.7L201,74.9L175.8,331.4z"/>
<g>
	<path class="st2" d="M232.6,104.5c0,0,0.5-0.2,1.5-0.6c1-0.4,2.4-1,4.3-1.6c1.9-0.6,4.1-1.4,6.8-2.1c2.6-0.7,5.6-1.5,9-2.2
		c1.7-0.4,3.4-0.7,5.2-1c1.8-0.3,3.7-0.6,5.6-0.8c3.8-0.5,7.9-0.9,12.2-1.1c4.2-0.1,8.6-0.3,13.1,0c4.5,0.2,9,0.6,13.5,1.2
		c2.2,0.4,4.5,0.7,6.7,1.1c2.2,0.5,4.4,0.9,6.6,1.4c2.2,0.6,4.3,1,6.4,1.7c2.1,0.7,4.2,1.3,6.1,2c4,1.4,7.8,3,11.3,4.7
		c1.7,0.9,3.5,1.7,5.1,2.5c1.6,0.9,3.1,1.8,4.6,2.6c0.7,0.4,1.4,0.8,2.1,1.3c0.7,0.4,1.3,0.9,2,1.3c1.3,0.9,2.5,1.6,3.6,2.4
		c2.2,1.6,4.2,3,5.7,4.3c3,2.5,4.7,4,4.7,4s-1.9-1.2-5.2-3.3c-0.8-0.6-1.7-1.1-2.8-1.7c-1-0.6-2.1-1.2-3.3-1.9
		c-1.1-0.7-2.5-1.3-3.8-2.1c-1.4-0.7-2.7-1.5-4.2-2.2c-1.5-0.7-3.1-1.5-4.7-2.2c-1.6-0.7-3.3-1.4-5.1-2.2c-0.4-0.2-0.9-0.4-1.3-0.6
		c-0.5-0.2-0.9-0.3-1.4-0.5c-0.9-0.3-1.8-0.7-2.8-1c-1.9-0.7-3.8-1.3-5.8-2c-3.9-1.3-8.1-2.3-12.3-3.4c-2.1-0.5-4.3-0.9-6.4-1.3
		c-2.2-0.4-4.3-0.7-6.5-1c-4.4-0.6-8.8-1.1-13.1-1.3c-4.3-0.3-8.6-0.3-12.8-0.3c-4.1,0.1-8.2,0.2-12,0.5c-3.8,0.3-7.4,0.7-10.7,1.1
		c-3.3,0.4-6.3,0.9-9,1.4c-2.7,0.5-5,0.9-6.9,1.4c-1.9,0.4-3.4,0.8-4.4,1C233.2,104.3,232.6,104.5,232.6,104.5z"/>
</g>
<g>
	<path class="st2" d="M232.6,114.5c0,0,0.5-0.2,1.5-0.6c1-0.4,2.4-1,4.3-1.6c1.9-0.6,4.1-1.4,6.8-2.1c2.6-0.7,5.6-1.5,9-2.2
		c1.7-0.4,3.4-0.7,5.2-1c1.8-0.3,3.7-0.6,5.6-0.8c3.8-0.5,7.9-0.9,12.2-1.1c4.2-0.1,8.6-0.3,13.1,0c4.5,0.2,9,0.6,13.5,1.2
		c2.2,0.4,4.5,0.7,6.7,1.1c2.2,0.5,4.4,0.9,6.6,1.4c2.2,0.6,4.3,1,6.4,1.7c2.1,0.7,4.2,1.3,6.1,2c4,1.4,7.8,3,11.3,4.7
		c1.7,0.9,3.5,1.7,5.1,2.5c1.6,0.9,3.1,1.8,4.6,2.6c0.7,0.4,1.4,0.8,2.1,1.3c0.7,0.4,1.3,0.9,2,1.3c1.3,0.9,2.5,1.6,3.6,2.4
		c2.2,1.6,4.2,3,5.7,4.3c3,2.5,4.7,4,4.7,4s-1.9-1.2-5.2-3.3c-0.8-0.6-1.7-1.1-2.8-1.7c-1-0.6-2.1-1.2-3.3-1.9
		c-1.1-0.7-2.5-1.3-3.8-2.1c-1.4-0.7-2.7-1.5-4.2-2.2c-1.5-0.7-3.1-1.5-4.7-2.2c-1.6-0.7-3.3-1.4-5.1-2.2c-0.4-0.2-0.9-0.4-1.3-0.6
		c-0.5-0.2-0.9-0.3-1.4-0.5c-0.9-0.3-1.8-0.7-2.8-1c-1.9-0.7-3.8-1.3-5.8-2c-3.9-1.3-8.1-2.3-12.3-3.4c-2.1-0.5-4.3-0.9-6.4-1.3
		c-2.2-0.4-4.3-0.7-6.5-1c-4.4-0.6-8.8-1.1-13.1-1.3c-4.3-0.3-8.6-0.3-12.8-0.3c-4.1,0.1-8.2,0.2-12,0.5c-3.8,0.3-7.4,0.7-10.7,1.1
		c-3.3,0.4-6.3,0.9-9,1.4c-2.7,0.5-5,0.9-6.9,1.4c-1.9,0.4-3.4,0.8-4.4,1C233.2,114.3,232.6,114.5,232.6,114.5z"/>
</g>
<g>
	<path class="st2" d="M232.6,133.4c0,0,0.5-0.2,1.5-0.6c1-0.4,2.4-1,4.3-1.6c1.9-0.6,4.1-1.4,6.8-2.1c2.6-0.7,5.6-1.5,9-2.2
		c1.7-0.4,3.4-0.7,5.2-1c1.8-0.3,3.7-0.6,5.6-0.8c3.8-0.5,7.9-0.9,12.2-1.1c4.2-0.1,8.6-0.3,13.1,0c4.5,0.2,9,0.6,13.5,1.2
		c2.2,0.4,4.5,0.7,6.7,1.1c2.2,0.5,4.4,0.9,6.6,1.4c2.2,0.6,4.3,1,6.4,1.7c2.1,0.7,4.2,1.3,6.1,2c4,1.4,7.8,3,11.3,4.7
		c1.7,0.9,3.5,1.7,5.1,2.5c1.6,0.9,3.1,1.8,4.6,2.6c0.7,0.4,1.4,0.8,2.1,1.3c0.7,0.4,1.3,0.9,2,1.3c1.3,0.9,2.5,1.6,3.6,2.4
		c2.2,1.6,4.2,3,5.7,4.3c3,2.5,4.7,4,4.7,4s-1.9-1.2-5.2-3.3c-0.8-0.6-1.7-1.1-2.8-1.7c-1-0.6-2.1-1.2-3.3-1.9
		c-1.1-0.7-2.5-1.3-3.8-2.1c-1.4-0.7-2.7-1.5-4.2-2.2c-1.5-0.7-3.1-1.5-4.7-2.2c-1.6-0.7-3.3-1.4-5.1-2.2c-0.4-0.2-0.9-0.4-1.3-0.6
		c-0.5-0.2-0.9-0.3-1.4-0.5c-0.9-0.3-1.8-0.7-2.8-1c-1.9-0.7-3.8-1.3-5.8-2c-3.9-1.3-8.1-2.3-12.3-3.4c-2.1-0.5-4.3-0.9-6.4-1.3
		c-2.2-0.4-4.3-0.7-6.5-1c-4.4-0.6-8.8-1.1-13.1-1.3c-4.3-0.3-8.6-0.3-12.8-0.3c-4.1,0.1-8.2,0.2-12,0.5c-3.8,0.3-7.4,0.7-10.7,1.1
		c-3.3,0.4-6.3,0.9-9,1.4c-2.7,0.5-5,0.9-6.9,1.4c-1.9,0.4-3.4,0.8-4.4,1C233.2,133.2,232.6,133.4,232.6,133.4z"/>
</g>
<g>
	<path class="st2" d="M227.8,169.4c0,0,0.5-0.2,1.5-0.6c1-0.4,2.4-1,4.3-1.6c1.9-0.6,4.1-1.4,6.8-2.1c2.6-0.7,5.6-1.5,9-2.2
		c1.7-0.4,3.4-0.7,5.2-1c1.8-0.3,3.7-0.6,5.6-0.8c3.8-0.5,7.9-0.9,12.2-1.1c4.2-0.1,8.6-0.3,13.1,0c4.5,0.2,9,0.6,13.5,1.2
		c2.2,0.4,4.5,0.7,6.7,1.1c2.2,0.5,4.4,0.9,6.6,1.4c2.2,0.6,4.3,1,6.4,1.7c2.1,0.7,4.2,1.3,6.1,2c4,1.4,7.8,3,11.3,4.7
		c1.7,0.9,3.5,1.7,5.1,2.5c1.6,0.9,3.1,1.8,4.6,2.6c0.7,0.4,1.4,0.8,2.1,1.3c0.7,0.4,1.3,0.9,2,1.3c1.3,0.9,2.5,1.6,3.6,2.4
		c2.2,1.6,4.2,3,5.7,4.3c3,2.5,4.7,4,4.7,4s-1.9-1.2-5.2-3.3c-0.8-0.6-1.7-1.1-2.8-1.7c-1-0.6-2.1-1.2-3.3-1.9
		c-1.1-0.7-2.5-1.3-3.8-2.1c-1.4-0.7-2.7-1.5-4.2-2.2c-1.5-0.7-3.1-1.5-4.7-2.2c-1.6-0.7-3.3-1.4-5.1-2.2c-0.4-0.2-0.9-0.4-1.3-0.6
		c-0.5-0.2-0.9-0.3-1.4-0.5c-0.9-0.3-1.8-0.7-2.8-1c-1.9-0.7-3.8-1.3-5.8-2c-3.9-1.3-8.1-2.3-12.3-3.4c-2.1-0.5-4.3-0.9-6.4-1.3
		c-2.2-0.4-4.3-0.7-6.5-1c-4.4-0.6-8.8-1.1-13.1-1.3c-4.3-0.3-8.6-0.3-12.8-0.3c-4.1,0.1-8.2,0.2-12,0.5c-3.8,0.3-7.4,0.7-10.7,1.1
		c-3.3,0.4-6.3,0.9-9,1.4c-2.7,0.5-5,0.9-6.9,1.4c-1.9,0.4-3.4,0.8-4.4,1C228.4,169.3,227.8,169.4,227.8,169.4z"/>
</g>
<g>
	<path class="st2" d="M227.8,178.9c0,0,0.5-0.2,1.5-0.6c1-0.4,2.4-1,4.3-1.6c1.9-0.6,4.1-1.4,6.8-2.1c2.6-0.7,5.6-1.5,9-2.2
		c1.7-0.4,3.4-0.7,5.2-1c1.8-0.3,3.7-0.6,5.6-0.8c3.8-0.5,7.9-0.9,12.2-1.1c4.2-0.1,8.6-0.3,13.1,0c4.5,0.2,9,0.6,13.5,1.2
		c2.2,0.4,4.5,0.7,6.7,1.1c2.2,0.5,4.4,0.9,6.6,1.4c2.2,0.6,4.3,1,6.4,1.7c2.1,0.7,4.2,1.3,6.1,2c4,1.4,7.8,3,11.3,4.7
		c1.7,0.9,3.5,1.7,5.1,2.5c1.6,0.9,3.1,1.8,4.6,2.6c0.7,0.4,1.4,0.8,2.1,1.3c0.7,0.4,1.3,0.9,2,1.3c1.3,0.9,2.5,1.6,3.6,2.4
		c2.2,1.6,4.2,3,5.7,4.3c3,2.5,4.7,4,4.7,4s-1.9-1.2-5.2-3.3c-0.8-0.6-1.7-1.1-2.8-1.7c-1-0.6-2.1-1.2-3.3-1.9
		c-1.1-0.7-2.5-1.3-3.8-2.1c-1.4-0.7-2.7-1.5-4.2-2.2c-1.5-0.7-3.1-1.5-4.7-2.2c-1.6-0.7-3.3-1.4-5.1-2.2c-0.4-0.2-0.9-0.4-1.3-0.6
		c-0.5-0.2-0.9-0.3-1.4-0.5c-0.9-0.3-1.8-0.7-2.8-1c-1.9-0.7-3.8-1.3-5.8-2c-3.9-1.3-8.1-2.3-12.3-3.4c-2.1-0.5-4.3-0.9-6.4-1.3
		c-2.2-0.4-4.3-0.7-6.5-1c-4.4-0.6-8.8-1.1-13.1-1.3c-4.3-0.3-8.6-0.3-12.8-0.3c-4.1,0.1-8.2,0.2-12,0.5c-3.8,0.3-7.4,0.7-10.7,1.1
		c-3.3,0.4-6.3,0.9-9,1.4c-2.7,0.5-5,0.9-6.9,1.4c-1.9,0.4-3.4,0.8-4.4,1C228.4,178.8,227.8,178.9,227.8,178.9z"/>
</g>
<g>
	<path class="st2" d="M219.4,242.2c0,0,0.6-0.2,1.8-0.5c1.1-0.3,2.8-0.7,5-1.2c2.2-0.5,4.8-1,7.8-1.5c3-0.5,6.5-1,10.2-1.4
		c3.8-0.5,7.9-0.8,12.2-1.1c4.3-0.2,8.9-0.4,13.7-0.3c4.7,0,9.7,0.2,14.6,0.6c5,0.4,10,0.9,15,1.7l3.8,0.6c1.2,0.2,2.5,0.5,3.7,0.7
		c2.5,0.4,4.9,1,7.4,1.6c4.9,1.1,9.6,2.6,14.1,4c1.1,0.3,2.2,0.8,3.3,1.2c1.1,0.4,2.2,0.8,3.3,1.2c2.1,0.8,4.2,1.8,6.2,2.6
		c4,1.8,7.7,3.6,11,5.5c3.4,1.8,6.2,3.8,8.9,5.4c2.5,1.8,4.7,3.3,6.5,4.7c1.7,1.4,3,2.5,4,3.3c0.9,0.8,1.4,1.2,1.4,1.2
		s-0.5-0.3-1.5-1c-1-0.6-2.5-1.6-4.3-2.8c-1.9-1.1-4.2-2.5-6.8-4c-1.3-0.7-2.8-1.5-4.3-2.3c-1.5-0.8-3.1-1.6-4.8-2.4
		c-1.7-0.8-3.4-1.7-5.3-2.4c-1.9-0.7-3.7-1.7-5.8-2.4c-2-0.7-4-1.6-6.2-2.3c-2.1-0.7-4.3-1.5-6.5-2.1c-4.5-1.4-9.1-2.5-13.9-3.6
		c-2.4-0.5-4.8-1.1-7.2-1.5c-1.2-0.2-2.4-0.4-3.7-0.7l-3.7-0.6c-4.9-0.8-9.9-1.3-14.8-1.8c-4.9-0.4-9.7-0.8-14.4-0.9
		c-4.7-0.2-9.2-0.2-13.5-0.2c-4.3,0.1-8.4,0.2-12.1,0.4c-7.5,0.4-13.8,0.9-18.1,1.4c-2.2,0.2-3.9,0.4-5.1,0.6
		C220.1,242.1,219.4,242.2,219.4,242.2z"/>
</g>
<g>
	<path class="st2" d="M227.8,219.7c0,0,0.6-0.1,1.7-0.4c1.1-0.2,2.7-0.6,4.8-1c2.1-0.4,4.6-0.8,7.5-1.2c2.9-0.4,6.2-0.8,9.8-1
		c1.8-0.2,3.7-0.2,5.6-0.4c1.9-0.1,4-0.2,6-0.2c4.1-0.1,8.5,0,13,0.2c4.5,0.2,9.2,0.6,13.9,1.2c2.4,0.3,4.7,0.6,7.1,1
		c2.4,0.4,4.7,0.8,7.1,1.3c2.4,0.4,4.7,1.1,7.1,1.6c2.3,0.6,4.6,1.2,6.9,1.8c2.3,0.7,4.5,1.4,6.7,2.1c2.2,0.8,4.4,1.5,6.5,2.3
		c2.1,0.9,4.2,1.6,6.2,2.5c2,0.9,3.9,1.8,5.8,2.7c1.8,1,3.6,1.9,5.4,2.8c1.7,0.9,3.3,1.9,4.9,2.8c1.6,0.9,3,1.8,4.4,2.7
		c1.4,0.9,2.7,1.7,3.9,2.6c2.4,1.7,4.4,3.2,6.1,4.5c1.6,1.3,2.9,2.4,3.7,3.1c0.9,0.7,1.3,1.1,1.3,1.1s-0.5-0.3-1.4-0.9
		c-0.9-0.6-2.3-1.5-4.1-2.7c-1.8-1.1-4-2.4-6.4-3.9c-1.3-0.7-2.6-1.4-4.1-2.2c-0.7-0.4-1.4-0.8-2.2-1.2c-0.7-0.4-1.5-0.8-2.3-1.2
		c-1.6-0.8-3.2-1.6-5-2.4c-1.7-0.8-3.6-1.6-5.4-2.4c-1.9-0.8-3.8-1.5-5.8-2.3c-2-0.7-4-1.5-6.1-2.3c-2.1-0.7-4.3-1.4-6.4-2.1
		c-2.2-0.6-4.4-1.3-6.6-1.9c-2.3-0.6-4.5-1.2-6.8-1.7c-2.3-0.5-4.6-1.1-6.9-1.5c-2.3-0.5-4.6-0.9-7-1.3c-2.3-0.4-4.6-0.7-7-1.1
		c-1.2-0.2-2.3-0.3-3.5-0.4c-1.1-0.1-2.3-0.3-3.4-0.4c-2.3-0.2-4.5-0.5-6.7-0.6c-4.4-0.3-8.7-0.6-12.8-0.7
		c-4.1-0.1-7.9-0.2-11.5-0.2c-3.6,0-6.8,0.1-9.7,0.2c-2.9,0.2-5.4,0.3-7.5,0.4c-2.1,0.2-3.7,0.3-4.8,0.4
		C228.4,219.7,227.8,219.7,227.8,219.7z"/>
</g>
<g>
	<path class="st2" d="M227.8,200.1c0,0,0.5-0.2,1.6-0.5c1-0.3,2.6-0.8,4.5-1.3c2-0.5,4.4-1.1,7.1-1.7c2.8-0.6,5.9-1.2,9.4-1.7
		c1.7-0.3,3.5-0.5,5.4-0.7c1.9-0.2,3.8-0.4,5.8-0.5c4-0.3,8.2-0.5,12.6-0.5c4.4,0,8.9,0.1,13.5,0.5c1.1,0.1,2.3,0.2,3.5,0.3
		c1.2,0.1,2.3,0.3,3.5,0.4c2.3,0.2,4.6,0.6,6.9,1c2.3,0.4,4.6,0.9,6.9,1.3c2.3,0.5,4.5,1,6.8,1.6c4.5,1.2,8.8,2.6,12.9,4.1
		c1,0.4,2,0.8,3,1.2c1,0.4,2,0.8,3,1.2c1.9,0.9,3.8,1.7,5.6,2.5c1.8,0.9,3.5,1.8,5.2,2.6c1.6,0.9,3.2,1.8,4.7,2.7
		c1.5,0.8,2.9,1.8,4.3,2.6c1.3,0.9,2.6,1.7,3.8,2.5c2.3,1.7,4.3,3.1,5.9,4.4c3.1,2.6,4.9,4.1,4.9,4.1s-2-1.2-5.3-3.5
		c-1.7-1.1-3.8-2.3-6.2-3.7c-1.2-0.7-2.5-1.4-3.9-2.1c-1.4-0.7-2.8-1.6-4.4-2.3c-1.5-0.7-3.2-1.5-4.8-2.3c-1.7-0.7-3.5-1.5-5.3-2.3
		c-1.8-0.8-3.7-1.4-5.6-2.2c-1.9-0.7-3.9-1.4-6-2.1c-2-0.7-4.1-1.3-6.2-1.9c-1-0.3-2.1-0.6-3.2-0.9c-1.1-0.3-2.2-0.6-3.2-0.9
		c-2.2-0.5-4.4-1-6.6-1.5c-2.2-0.4-4.5-0.9-6.7-1.2c-2.3-0.3-4.5-0.8-6.8-1c-1.1-0.1-2.3-0.3-3.4-0.4c-1.1-0.1-2.3-0.2-3.4-0.3
		c-2.2-0.2-4.5-0.3-6.7-0.5c-2.2-0.1-4.4-0.2-6.5-0.3c-4.3-0.1-8.4-0.1-12.4,0c-3.9,0.1-7.7,0.3-11.1,0.6c-3.4,0.3-6.6,0.6-9.4,0.9
		c-2.8,0.4-5.2,0.7-7.2,1c-2,0.3-3.6,0.6-4.6,0.8C228.4,200,227.8,200.1,227.8,200.1z"/>
</g>
<path class="st2" d="M398.1,111.2c0,0,56.1-50.5,122-14.4l19.5,57.8c0,0-85.5-16.6-141.5,31.1V111.2z"/>
<g>
	<path class="st2" d="M398.1,207.1c0,0,0.4-0.5,1.1-1.3c0.8-0.8,1.9-2,3.4-3.4c1.5-1.4,3.4-3.1,5.6-4.9c2.3-1.8,4.9-3.8,7.8-5.8
		c3-2,6.3-4,9.9-6c3.6-2,7.5-3.8,11.6-5.6c4.1-1.7,8.5-3.4,13-4.7c1.1-0.3,2.3-0.7,3.4-1c1.1-0.3,2.3-0.6,3.4-0.9
		c2.3-0.6,4.6-1.1,7-1.6c2.3-0.5,4.7-0.8,7.1-1.2c2.4-0.3,4.7-0.6,7-0.9c2.3-0.2,4.7-0.4,7-0.5c2.3-0.1,4.6-0.1,6.8-0.2
		c2.2,0,4.4,0,6.6,0.1c2.1,0.1,4.2,0.3,6.3,0.4c2,0.1,4,0.4,5.9,0.6c1.9,0.2,3.8,0.4,5.5,0.7c1.8,0.3,3.4,0.6,5,0.8
		c1.6,0.2,3.1,0.6,4.5,0.9c2.8,0.6,5.3,1.1,7.3,1.7c2,0.5,3.6,1,4.6,1.3c1.1,0.3,1.6,0.5,1.6,0.5s-0.6-0.1-1.7-0.2
		c-1.1-0.2-2.7-0.4-4.7-0.7c-2-0.4-4.5-0.6-7.4-1c-2.8-0.4-6.1-0.6-9.6-1c-1.7-0.2-3.6-0.2-5.5-0.3c-1.9-0.1-3.8-0.3-5.9-0.3
		c-2,0-4.1-0.1-6.2-0.1c-2.1,0.1-4.3,0.1-6.4,0.1c-2.2,0.1-4.4,0.3-6.7,0.4c-2.2,0.2-4.5,0.4-6.8,0.6c-2.3,0.3-4.6,0.6-6.9,0.9
		c-2.3,0.4-4.6,0.8-6.9,1.2c-2.3,0.5-4.6,0.9-6.8,1.5c-1.1,0.3-2.2,0.6-3.4,0.8c-1.1,0.3-2.2,0.6-3.3,0.9c-4.4,1.3-8.7,2.7-12.8,4.2
		c-4.1,1.6-8,3.2-11.6,5c-3.6,1.8-7,3.5-10,5.3c-6.1,3.5-10.9,6.9-14.2,9.4c-1.6,1.3-2.9,2.3-3.7,3
		C398.5,206.7,398.1,207.1,398.1,207.1z"/>
</g>
<g>
	<path class="st2" d="M402.9,218.2c0,0,0.4-0.5,1.1-1.3c0.8-0.8,1.9-2,3.4-3.4c1.5-1.4,3.4-3.1,5.6-4.9c2.3-1.8,4.9-3.8,7.8-5.8
		c3-2,6.3-4,9.9-6c3.6-2,7.5-3.8,11.6-5.6c4.1-1.7,8.5-3.4,13-4.7c1.1-0.3,2.3-0.7,3.4-1c1.1-0.3,2.3-0.6,3.4-0.9
		c2.3-0.6,4.6-1.1,7-1.6c2.3-0.5,4.7-0.8,7.1-1.2c2.4-0.3,4.7-0.6,7-0.9c2.3-0.2,4.7-0.4,7-0.5c2.3-0.1,4.6-0.1,6.8-0.2
		c2.2,0,4.4,0,6.6,0.1c2.1,0.1,4.2,0.3,6.3,0.4c2,0.1,4,0.4,5.9,0.6c1.9,0.2,3.8,0.4,5.5,0.7c1.8,0.3,3.4,0.6,5,0.8
		c1.6,0.2,3.1,0.6,4.5,0.9c2.8,0.6,5.3,1.1,7.3,1.7c2,0.5,3.6,1,4.6,1.3c1.1,0.3,1.6,0.5,1.6,0.5s-0.6-0.1-1.7-0.2
		c-1.1-0.2-2.7-0.4-4.7-0.7c-2-0.4-4.5-0.6-7.4-1c-2.8-0.4-6.1-0.6-9.6-1c-1.7-0.2-3.6-0.2-5.5-0.3c-1.9-0.1-3.8-0.3-5.9-0.3
		c-2,0-4.1-0.1-6.2-0.1c-2.1,0.1-4.3,0.1-6.4,0.1c-2.2,0.1-4.4,0.3-6.7,0.4c-2.2,0.2-4.5,0.4-6.8,0.6c-2.3,0.3-4.6,0.6-6.9,0.9
		c-2.3,0.4-4.6,0.8-6.9,1.2c-2.3,0.5-4.6,0.9-6.8,1.5c-1.1,0.3-2.2,0.6-3.4,0.8c-1.1,0.3-2.2,0.6-3.3,0.9c-4.4,1.3-8.7,2.7-12.8,4.2
		c-4.1,1.6-8,3.2-11.6,5c-3.6,1.8-7,3.5-10,5.3c-6.1,3.5-10.9,6.9-14.2,9.4c-1.6,1.3-2.9,2.3-3.7,3
		C403.3,217.8,402.9,218.2,402.9,218.2z"/>
</g>
<g>
	<path class="st2" d="M402.9,244.1c0,0,0.4-0.4,1.3-1.2c0.9-0.7,2.2-1.9,3.9-3.2c1.7-1.3,3.9-2.9,6.4-4.5c1.3-0.8,2.6-1.7,4.1-2.6
		c1.5-0.9,3-1.8,4.6-2.7c3.3-1.8,6.9-3.6,10.8-5.4c3.9-1.7,8.1-3.5,12.5-5c2.2-0.8,4.5-1.5,6.8-2.3c2.3-0.7,4.6-1.4,7-2
		c2.4-0.6,4.8-1.2,7.2-1.7c1.2-0.3,2.4-0.5,3.7-0.8l3.7-0.7c4.9-0.8,9.9-1.4,14.8-1.8c2.4-0.2,4.9-0.3,7.3-0.4
		c2.4-0.1,4.8-0.1,7.1-0.1c4.7,0,9.2,0.2,13.4,0.6c1.1,0.1,2.1,0.2,3.2,0.2c1,0.1,2,0.2,3,0.4c2,0.3,3.9,0.5,5.8,0.7
		c3.7,0.6,7.1,1.1,10,1.8c3,0.6,5.5,1.2,7.6,1.8c2.1,0.5,3.7,1,4.9,1.3c1.1,0.3,1.7,0.5,1.7,0.5s-0.6-0.1-1.8-0.3
		c-1.1-0.2-2.8-0.4-5-0.8c-2.1-0.4-4.7-0.6-7.7-1c-1.5-0.2-3.1-0.4-4.7-0.5c-1.7-0.2-3.4-0.3-5.3-0.5c-1.8-0.2-3.8-0.2-5.7-0.4
		c-1-0.1-2-0.1-3-0.2c-1,0-2.1-0.1-3.1-0.1c-4.2-0.2-8.6-0.1-13.2,0c-2.3,0.1-4.6,0.2-7,0.3c-1.2,0.1-2.4,0.2-3.5,0.3
		c-1.2,0.1-2.4,0.1-3.6,0.3c-4.8,0.5-9.6,1.1-14.4,1.9l-3.6,0.6c-1.2,0.2-2.4,0.5-3.6,0.7c-2.4,0.5-4.7,1-7.1,1.6
		c-1.2,0.3-2.3,0.6-3.5,0.9c-1.2,0.3-2.3,0.6-3.4,0.9c-2.3,0.7-4.5,1.3-6.7,2c-1.1,0.4-2.2,0.7-3.2,1.1c-1.1,0.4-2.1,0.7-3.2,1.1
		c-2.1,0.7-4.1,1.5-6.1,2.3c-3.9,1.6-7.6,3.1-10.9,4.7c-3.3,1.6-6.3,3.1-9,4.5c-2.6,1.4-4.9,2.7-6.7,3.9c-1.8,1.1-3.3,2-4.2,2.7
		C403.4,243.8,402.9,244.1,402.9,244.1z"/>
</g>
<g>
	<path class="st2" d="M402.9,270.1c0,0,0.5-0.4,1.5-1.1c1-0.7,2.4-1.8,4.3-3c1.9-1.3,4.2-2.7,7-4.3c2.7-1.6,5.9-3.3,9.4-5
		c3.5-1.7,7.3-3.5,11.5-5.2c4.1-1.7,8.6-3.4,13.2-4.9c4.6-1.5,9.5-2.9,14.5-4.2c5-1.2,10.1-2.3,15.3-3.1l3.9-0.6
		c1.3-0.2,2.6-0.3,3.9-0.5c1.3-0.1,2.6-0.3,3.9-0.4c1.3-0.1,2.6-0.2,3.9-0.3c1.3-0.1,2.6-0.3,3.8-0.3c1.3-0.1,2.5-0.1,3.8-0.2
		c2.5-0.1,5-0.1,7.4-0.1c2.4,0,4.8,0,7.2,0.1c1.2,0,2.3,0.1,3.5,0.1c1.1,0.1,2.3,0.2,3.4,0.3c4.5,0.3,8.7,0.9,12.5,1.3
		c1.9,0.3,3.8,0.6,5.5,0.9c0.9,0.1,1.7,0.3,2.6,0.4c0.8,0.2,1.6,0.3,2.4,0.5c1.5,0.3,3,0.6,4.3,0.9c0.7,0.1,1.3,0.3,1.9,0.4
		c0.6,0.2,1.2,0.3,1.7,0.5c2.2,0.6,3.9,1.1,5.1,1.4c1.2,0.3,1.8,0.5,1.8,0.5s-0.6-0.1-1.8-0.3c-1.2-0.2-3-0.4-5.2-0.8
		c-0.6-0.1-1.1-0.2-1.8-0.3c-0.6-0.1-1.3-0.2-1.9-0.2c-1.3-0.2-2.8-0.4-4.4-0.6c-0.8-0.1-1.6-0.2-2.4-0.3c-0.8-0.1-1.7-0.2-2.6-0.2
		c-1.8-0.2-3.6-0.3-5.5-0.5c-3.9-0.2-8-0.5-12.4-0.6c-1.1,0-2.2-0.1-3.4-0.1c-1.1,0-2.3,0-3.4,0c-2.3,0-4.7,0-7.1,0.1
		c-2.4,0.1-4.8,0.1-7.3,0.3c-2.5,0.2-5,0.3-7.5,0.6c-1.3,0.1-2.5,0.2-3.8,0.4c-1.3,0.1-2.5,0.3-3.8,0.5c-1.3,0.2-2.5,0.3-3.8,0.5
		l-3.8,0.6c-5.1,0.8-10.1,1.8-15,2.9c-4.9,1.2-9.7,2.4-14.3,3.8c-4.6,1.4-9,2.8-13.2,4.3c-4.1,1.5-8,3-11.6,4.5
		c-3.5,1.5-6.8,2.9-9.6,4.3c-2.8,1.4-5.3,2.6-7.3,3.6C405.1,268.8,402.9,270.1,402.9,270.1z"/>
</g>
</svg>
