<svg xmlns="http://www.w3.org/2000/svg" viewBox="0 0 800 458.4" enable-background="new 0 0 800 458.4"><style type="text/css">.st0{fill:none;stroke:#FFFFFF;stroke-width:5;stroke-miterlimit:10;} .st1{fill:#FFFFFF;} .st2{fill:#D8D8D8;}</style><path class="st0" d="M397.5 341.9s-137.7-58.1-208.3-25.3l22.1-50.6 173.4 4.7 194.9-14.1 20.6 54.3c-.1.1-99.9-30.9-202.7 31z"/><path class="st1" d="M212.9 80.8s112.7-40 173.5 26.7c0 0 37.1-65.2 152.7-23.7l66.7 213.5s-116.4-53.4-208.3 34.1c0 0-55.6-72.7-208.3-43l20.5-179.6 3.2-28zm-36.6 250.2l26.4 3.1 26.9 3 26.9 2.9 26.9 2.8c17.9 1.9 35.8 3.6 53.7 5.3l13.4 1.3 13.4 1.2 26.9 2.3h-.5l20.3-1h-.4l26.2-4 26.2-3.9 13.1-1.9 13.1-1.8 13.1-1.8 13.1-1.8 26.3-3.5 26.3-3.4 26.3-3.5 26.3-3.5-1.4 2.3-8.9-31-9.1-30.9-9.3-30.8-9.4-30.8c-3.1-10.3-6.4-20.5-9.6-30.8l-9.6-30.7-19.3-61.5 4.1 2.3-39.7 10.9-39.6 10.7-79.4 21.2-1.1.3-1.1-.3-46.8-10.8-46.7-11.1-11.7-2.8-11.6-2.8-23.3-5.7c-15.5-3.8-31.1-7.5-46.6-11.4l5.4-3.8c-2.3 21.4-4.5 42.7-6.9 64.1l-3.5 32-3.6 32-3.6 32-3.7 32-3.8 32c-1.4 10.6-2.8 21.1-4.1 31.6zm-.9.3c.8-10.7 1.5-21.4 2.4-32.1l2.5-32.1 2.6-32.1 2.7-32.1 2.7-32.1 2.8-32.1c1.8-21.4 3.8-42.8 5.7-64.2l.4-5 4.9 1.1c15.6 3.6 31.2 7.2 46.8 10.9l23.4 5.5 11.7 2.7 11.7 2.8 46.7 11.2 46.7 11.3h-2.2l79.6-20.4 39.5-10.2 39.8-10 3.2-.8.9 3.1 17.5 62 8.8 31c3 10.3 5.8 20.7 8.9 31l9 30.9 9.2 30.9 9.3 30.8 9.5 30.8.6 1.9-2 .3-26.1 4.3-26.1 4.4-26.1 4.4-26.1 4.3-13.1 2.1-13.2 2.2-13.1 2.1-13.1 2-26.2 4-26.2 3.8h-.4l-20.3.8h-.5c-9-.9-18-1.7-26.9-2.7l-13.5-1.4-13.4-1.5c-4.5-.5-9-1-13.4-1.6l-13.4-1.6-13.4-1.7-13.4-1.7-26.8-3.7c-8.9-1.3-17.8-2.6-26.8-4l-13.4-2.1-13.3-2.2c-4.4-.7-8.9-1.5-13.3-2.3l-13.7-2.5-.1-.4z"/><path class="st2" d="M232.6 104.5l1.5-.6c1-.4 2.4-1 4.3-1.6 1.9-.6 4.1-1.4 6.8-2.1 2.6-.7 5.6-1.5 9-2.2 1.7-.4 3.4-.7 5.2-1 1.8-.3 3.7-.6 5.6-.8 3.8-.5 7.9-.9 12.2-1.1 4.2-.1 8.6-.3 13.1 0 4.5.2 9 .6 13.5 1.2l6.7 1.1 6.6 1.4c2.2.6 4.3 1 6.4 1.7 2.1.7 4.2 1.3 6.1 2 4 1.4 7.8 3 11.3 4.7 1.7.9 3.5 1.7 5.1 2.5 1.6.9 3.1 1.8 4.6 2.6.7.4 1.4.8 2.1 1.3l2 1.3c1.3.9 2.5 1.6 3.6 2.4 2.2 1.6 4.2 3 5.7 4.3 3 2.5 4.7 4 4.7 4s-1.9-1.2-5.2-3.3c-.8-.6-1.7-1.1-2.8-1.7-1-.6-2.1-1.2-3.3-1.9-1.1-.7-2.5-1.3-3.8-2.1-1.4-.7-2.7-1.5-4.2-2.2-1.5-.7-3.1-1.5-4.7-2.2-1.6-.7-3.3-1.4-5.1-2.2l-1.3-.6-1.4-.5c-.9-.3-1.8-.7-2.8-1-1.9-.7-3.8-1.3-5.8-2-3.9-1.3-8.1-2.3-12.3-3.4-2.1-.5-4.3-.9-6.4-1.3-2.2-.4-4.3-.7-6.5-1-4.4-.6-8.8-1.1-13.1-1.3-4.3-.3-8.6-.3-12.8-.3-4.1.1-8.2.2-12 .5-3.8.3-7.4.7-10.7 1.1-3.3.4-6.3.9-9 1.4-2.7.5-5 .9-6.9 1.4-1.9.4-3.4.8-4.4 1-1 .3-1.6.5-1.6.5zm0 10l1.5-.6c1-.4 2.4-1 4.3-1.6 1.9-.6 4.1-1.4 6.8-2.1 2.6-.7 5.6-1.5 9-2.2 1.7-.4 3.4-.7 5.2-1 1.8-.3 3.7-.6 5.6-.8 3.8-.5 7.9-.9 12.2-1.1 4.2-.1 8.6-.3 13.1 0 4.5.2 9 .6 13.5 1.2l6.7 1.1 6.6 1.4c2.2.6 4.3 1 6.4 1.7 2.1.7 4.2 1.3 6.1 2 4 1.4 7.8 3 11.3 4.7 1.7.9 3.5 1.7 5.1 2.5 1.6.9 3.1 1.8 4.6 2.6.7.4 1.4.8 2.1 1.3l2 1.3c1.3.9 2.5 1.6 3.6 2.4 2.2 1.6 4.2 3 5.7 4.3 3 2.5 4.7 4 4.7 4s-1.9-1.2-5.2-3.3c-.8-.6-1.7-1.1-2.8-1.7-1-.6-2.1-1.2-3.3-1.9-1.1-.7-2.5-1.3-3.8-2.1-1.4-.7-2.7-1.5-4.2-2.2-1.5-.7-3.1-1.5-4.7-2.2-1.6-.7-3.3-1.4-5.1-2.2l-1.3-.6-1.4-.5c-.9-.3-1.8-.7-2.8-1-1.9-.7-3.8-1.3-5.8-2-3.9-1.3-8.1-2.3-12.3-3.4-2.1-.5-4.3-.9-6.4-1.3-2.2-.4-4.3-.7-6.5-1-4.4-.6-8.8-1.1-13.1-1.3-4.3-.3-8.6-.3-12.8-.3-4.1.1-8.2.2-12 .5-3.8.3-7.4.7-10.7 1.1-3.3.4-6.3.9-9 1.4-2.7.5-5 .9-6.9 1.4-1.9.4-3.4.8-4.4 1-1 .3-1.6.5-1.6.5zm0 18.9l1.5-.6c1-.4 2.4-1 4.3-1.6 1.9-.6 4.1-1.4 6.8-2.1 2.6-.7 5.6-1.5 9-2.2 1.7-.4 3.4-.7 5.2-1 1.8-.3 3.7-.6 5.6-.8 3.8-.5 7.9-.9 12.2-1.1 4.2-.1 8.6-.3 13.1 0 4.5.2 9 .6 13.5 1.2l6.7 1.1 6.6 1.4c2.2.6 4.3 1 6.4 1.7 2.1.7 4.2 1.3 6.1 2 4 1.4 7.8 3 11.3 4.7 1.7.9 3.5 1.7 5.1 2.5 1.6.9 3.1 1.8 4.6 2.6.7.4 1.4.8 2.1 1.3l2 1.3c1.3.9 2.5 1.6 3.6 2.4 2.2 1.6 4.2 3 5.7 4.3 3 2.5 4.7 4 4.7 4s-1.9-1.2-5.2-3.3c-.8-.6-1.7-1.1-2.8-1.7-1-.6-2.1-1.2-3.3-1.9-1.1-.7-2.5-1.3-3.8-2.1-1.4-.7-2.7-1.5-4.2-2.2-1.5-.7-3.1-1.5-4.7-2.2-1.6-.7-3.3-1.4-5.1-2.2l-1.3-.6-1.4-.5c-.9-.3-1.8-.7-2.8-1-1.9-.7-3.8-1.3-5.8-2-3.9-1.3-8.1-2.3-12.3-3.4-2.1-.5-4.3-.9-6.4-1.3-2.2-.4-4.3-.7-6.5-1-4.4-.6-8.8-1.1-13.1-1.3-4.3-.3-8.6-.3-12.8-.3-4.1.1-8.2.2-12 .5-3.8.3-7.4.7-10.7 1.1-3.3.4-6.3.9-9 1.4-2.7.5-5 .9-6.9 1.4-1.9.4-3.4.8-4.4 1-1 .3-1.6.5-1.6.5zm-4.8 36l1.5-.6c1-.4 2.4-1 4.3-1.6 1.9-.6 4.1-1.4 6.8-2.1 2.6-.7 5.6-1.5 9-2.2 1.7-.4 3.4-.7 5.2-1 1.8-.3 3.7-.6 5.6-.8 3.8-.5 7.9-.9 12.2-1.1 4.2-.1 8.6-.3 13.1 0 4.5.2 9 .6 13.5 1.2l6.7 1.1 6.6 1.4c2.2.6 4.3 1 6.4 1.7 2.1.7 4.2 1.3 6.1 2 4 1.4 7.8 3 11.3 4.7 1.7.9 3.5 1.7 5.1 2.5 1.6.9 3.1 1.8 4.6 2.6.7.4 1.4.8 2.1 1.3l2 1.3c1.3.9 2.5 1.6 3.6 2.4 2.2 1.6 4.2 3 5.7 4.3 3 2.5 4.7 4 4.7 4s-1.9-1.2-5.2-3.3c-.8-.6-1.7-1.1-2.8-1.7-1-.6-2.1-1.2-3.3-1.9-1.1-.7-2.5-1.3-3.8-2.1-1.4-.7-2.7-1.5-4.2-2.2-1.5-.7-3.1-1.5-4.7-2.2-1.6-.7-3.3-1.4-5.1-2.2l-1.3-.6-1.4-.5c-.9-.3-1.8-.7-2.8-1-1.9-.7-3.8-1.3-5.8-2-3.9-1.3-8.1-2.3-12.3-3.4-2.1-.5-4.3-.9-6.4-1.3-2.2-.4-4.3-.7-6.5-1-4.4-.6-8.8-1.1-13.1-1.3-4.3-.3-8.6-.3-12.8-.3-4.1.1-8.2.2-12 .5-3.8.3-7.4.7-10.7 1.1-3.3.4-6.3.9-9 1.4-2.7.5-5 .9-6.9 1.4-1.9.4-3.4.8-4.4 1-1 .4-1.6.5-1.6.5zm0 9.5l1.5-.6c1-.4 2.4-1 4.3-1.6 1.9-.6 4.1-1.4 6.8-2.1 2.6-.7 5.6-1.5 9-2.2 1.7-.4 3.4-.7 5.2-1 1.8-.3 3.7-.6 5.6-.8 3.8-.5 7.9-.9 12.2-1.1 4.2-.1 8.6-.3 13.1 0 4.5.2 9 .6 13.5 1.2l6.7 1.1 6.6 1.4c2.2.6 4.3 1 6.4 1.7 2.1.7 4.2 1.3 6.1 2 4 1.4 7.8 3 11.3 4.7 1.7.9 3.5 1.7 5.1 2.5 1.6.9 3.1 1.8 4.6 2.6.7.4 1.4.8 2.1 1.3l2 1.3c1.3.9 2.5 1.6 3.6 2.4 2.2 1.6 4.2 3 5.7 4.3 3 2.5 4.7 4 4.7 4s-1.9-1.2-5.2-3.3c-.8-.6-1.7-1.1-2.8-1.7-1-.6-2.1-1.2-3.3-1.9-1.1-.7-2.5-1.3-3.8-2.1-1.4-.7-2.7-1.5-4.2-2.2-1.5-.7-3.1-1.5-4.7-2.2-1.6-.7-3.3-1.4-5.1-2.2l-1.3-.6-1.4-.5c-.9-.3-1.8-.7-2.8-1-1.9-.7-3.8-1.3-5.8-2-3.9-1.3-8.1-2.3-12.3-3.4-2.1-.5-4.3-.9-6.4-1.3-2.2-.4-4.3-.7-6.5-1-4.4-.6-8.8-1.1-13.1-1.3-4.3-.3-8.6-.3-12.8-.3-4.1.1-8.2.2-12 .5-3.8.3-7.4.7-10.7 1.1-3.3.4-6.3.9-9 1.4-2.7.5-5 .9-6.9 1.4-1.9.4-3.4.8-4.4 1-1 .4-1.6.5-1.6.5zm-8.4 63.3s.6-.2 1.8-.5c1.1-.3 2.8-.7 5-1.2s4.8-1 7.8-1.5 6.5-1 10.2-1.4c3.8-.5 7.9-.8 12.2-1.1 4.3-.2 8.9-.4 13.7-.3 4.7 0 9.7.2 14.6.6 5 .4 10 .9 15 1.7l3.8.6 3.7.7c2.5.4 4.9 1 7.4 1.6 4.9 1.1 9.6 2.6 14.1 4 1.1.3 2.2.8 3.3 1.2l3.3 1.2c2.1.8 4.2 1.8 6.2 2.6 4 1.8 7.7 3.6 11 5.5 3.4 1.8 6.2 3.8 8.9 5.4 2.5 1.8 4.7 3.3 6.5 4.7 1.7 1.4 3 2.5 4 3.3.9.8 1.4 1.2 1.4 1.2s-.5-.3-1.5-1c-1-.6-2.5-1.6-4.3-2.8-1.9-1.1-4.2-2.5-6.8-4-1.3-.7-2.8-1.5-4.3-2.3-1.5-.8-3.1-1.6-4.8-2.4-1.7-.8-3.4-1.7-5.3-2.4s-3.7-1.7-5.8-2.4c-2-.7-4-1.6-6.2-2.3-2.1-.7-4.3-1.5-6.5-2.1-4.5-1.4-9.1-2.5-13.9-3.6-2.4-.5-4.8-1.1-7.2-1.5-1.2-.2-2.4-.4-3.7-.7l-3.7-.6c-4.9-.8-9.9-1.3-14.8-1.8-4.9-.4-9.7-.8-14.4-.9-4.7-.2-9.2-.2-13.5-.2-4.3.1-8.4.2-12.1.4-7.5.4-13.8.9-18.1 1.4-2.2.2-3.9.4-5.1.6-1.2.2-1.9.3-1.9.3zm8.4-22.5s.6-.1 1.7-.4c1.1-.2 2.7-.6 4.8-1 2.1-.4 4.6-.8 7.5-1.2 2.9-.4 6.2-.8 9.8-1 1.8-.2 3.7-.2 5.6-.4 1.9-.1 4-.2 6-.2 4.1-.1 8.5 0 13 .2s9.2.6 13.9 1.2c2.4.3 4.7.6 7.1 1 2.4.4 4.7.8 7.1 1.3 2.4.4 4.7 1.1 7.1 1.6l6.9 1.8c2.3.7 4.5 1.4 6.7 2.1 2.2.8 4.4 1.5 6.5 2.3 2.1.9 4.2 1.6 6.2 2.5 2 .9 3.9 1.8 5.8 2.7 1.8 1 3.6 1.9 5.4 2.8 1.7.9 3.3 1.9 4.9 2.8 1.6.9 3 1.8 4.4 2.7 1.4.9 2.7 1.7 3.9 2.6 2.4 1.7 4.4 3.2 6.1 4.5 1.6 1.3 2.9 2.4 3.7 3.1.9.7 1.3 1.1 1.3 1.1s-.5-.3-1.4-.9c-.9-.6-2.3-1.5-4.1-2.7-1.8-1.1-4-2.4-6.4-3.9-1.3-.7-2.6-1.4-4.1-2.2-.7-.4-1.4-.8-2.2-1.2-.7-.4-1.5-.8-2.3-1.2-1.6-.8-3.2-1.6-5-2.4-1.7-.8-3.6-1.6-5.4-2.4-1.9-.8-3.8-1.5-5.8-2.3-2-.7-4-1.5-6.1-2.3l-6.4-2.1-6.6-1.9c-2.3-.6-4.5-1.2-6.8-1.7s-4.6-1.1-6.9-1.5c-2.3-.5-4.6-.9-7-1.3-2.3-.4-4.6-.7-7-1.1-1.2-.2-2.3-.3-3.5-.4l-3.4-.4c-2.3-.2-4.5-.5-6.7-.6-4.4-.3-8.7-.6-12.8-.7-4.1-.1-7.9-.2-11.5-.2-3.6 0-6.8.1-9.7.2-2.9.2-5.4.3-7.5.4-2.1.2-3.7.3-4.8.4-1.4.3-2 .3-2 .3zm0-19.6s.5-.2 1.6-.5c1-.3 2.6-.8 4.5-1.3 2-.5 4.4-1.1 7.1-1.7 2.8-.6 5.9-1.2 9.4-1.7 1.7-.3 3.5-.5 5.4-.7 1.9-.2 3.8-.4 5.8-.5 4-.3 8.2-.5 12.6-.5s8.9.1 13.5.5c1.1.1 2.3.2 3.5.3l3.5.4c2.3.2 4.6.6 6.9 1l6.9 1.3c2.3.5 4.5 1 6.8 1.6 4.5 1.2 8.8 2.6 12.9 4.1l3 1.2 3 1.2c1.9.9 3.8 1.7 5.6 2.5 1.8.9 3.5 1.8 5.2 2.6 1.6.9 3.2 1.8 4.7 2.7 1.5.8 2.9 1.8 4.3 2.6 1.3.9 2.6 1.7 3.8 2.5 2.3 1.7 4.3 3.1 5.9 4.4 3.1 2.6 4.9 4.1 4.9 4.1s-2-1.2-5.3-3.5c-1.7-1.1-3.8-2.3-6.2-3.7-1.2-.7-2.5-1.4-3.9-2.1-1.4-.7-2.8-1.6-4.4-2.3-1.5-.7-3.2-1.5-4.8-2.3-1.7-.7-3.5-1.5-5.3-2.3-1.8-.8-3.7-1.4-5.6-2.2-1.9-.7-3.9-1.4-6-2.1-2-.7-4.1-1.3-6.2-1.9-1-.3-2.1-.6-3.2-.9-1.1-.3-2.2-.6-3.2-.9l-6.6-1.5c-2.2-.4-4.5-.9-6.7-1.2-2.3-.3-4.5-.8-6.8-1l-3.4-.4-3.4-.3-6.7-.5c-2.2-.1-4.4-.2-6.5-.3-4.3-.1-8.4-.1-12.4 0-3.9.1-7.7.3-11.1.6-3.4.3-6.6.6-9.4.9-2.8.4-5.2.7-7.2 1-2 .3-3.6.6-4.6.8-1.3-.1-1.9 0-1.9 0zm170.3-88.9s56.1-50.5 122-14.4l19.5 57.8s-85.5-16.6-141.5 31.1v-74.5zm0 95.9s.4-.5 1.1-1.3c.8-.8 1.9-2 3.4-3.4s3.4-3.1 5.6-4.9c2.3-1.8 4.9-3.8 7.8-5.8 3-2 6.3-4 9.9-6 3.6-2 7.5-3.8 11.6-5.6 4.1-1.7 8.5-3.4 13-4.7l3.4-1 3.4-.9c2.3-.6 4.6-1.1 7-1.6 2.3-.5 4.7-.8 7.1-1.2 2.4-.3 4.7-.6 7-.9 2.3-.2 4.7-.4 7-.5 2.3-.1 4.6-.1 6.8-.2 2.2 0 4.4 0 6.6.1l6.3.4c2 .1 4 .4 5.9.6 1.9.2 3.8.4 5.5.7 1.8.3 3.4.6 5 .8 1.6.2 3.1.6 4.5.9 2.8.6 5.3 1.1 7.3 1.7 2 .5 3.6 1 4.6 1.3 1.1.3 1.6.5 1.6.5s-.6-.1-1.7-.2c-1.1-.2-2.7-.4-4.7-.7-2-.4-4.5-.6-7.4-1-2.8-.4-6.1-.6-9.6-1-1.7-.2-3.6-.2-5.5-.3-1.9-.1-3.8-.3-5.9-.3-2 0-4.1-.1-6.2-.1-2.1.1-4.3.1-6.4.1-2.2.1-4.4.3-6.7.4-2.2.2-4.5.4-6.8.6l-6.9.9-6.9 1.2c-2.3.5-4.6.9-6.8 1.5-1.1.3-2.2.6-3.4.8l-3.3.9c-4.4 1.3-8.7 2.7-12.8 4.2-4.1 1.6-8 3.2-11.6 5-3.6 1.8-7 3.5-10 5.3-6.1 3.5-10.9 6.9-14.2 9.4-1.6 1.3-2.9 2.3-3.7 3-.5.9-.9 1.3-.9 1.3zm4.8 11.1s.4-.5 1.1-1.3c.8-.8 1.9-2 3.4-3.4s3.4-3.1 5.6-4.9c2.3-1.8 4.9-3.8 7.8-5.8 3-2 6.3-4 9.9-6 3.6-2 7.5-3.8 11.6-5.6 4.1-1.7 8.5-3.4 13-4.7l3.4-1 3.4-.9c2.3-.6 4.6-1.1 7-1.6 2.3-.5 4.7-.8 7.1-1.2 2.4-.3 4.7-.6 7-.9 2.3-.2 4.7-.4 7-.5 2.3-.1 4.6-.1 6.8-.2 2.2 0 4.4 0 6.6.1l6.3.4c2 .1 4 .4 5.9.6 1.9.2 3.8.4 5.5.7 1.8.3 3.4.6 5 .8 1.6.2 3.1.6 4.5.9 2.8.6 5.3 1.1 7.3 1.7 2 .5 3.6 1 4.6 1.3 1.1.3 1.6.5 1.6.5s-.6-.1-1.7-.2c-1.1-.2-2.7-.4-4.7-.7-2-.4-4.5-.6-7.4-1-2.8-.4-6.1-.6-9.6-1-1.7-.2-3.6-.2-5.5-.3-1.9-.1-3.8-.3-5.9-.3-2 0-4.1-.1-6.2-.1-2.1.1-4.3.1-6.4.1-2.2.1-4.4.3-6.7.4-2.2.2-4.5.4-6.8.6l-6.9.9-6.9 1.2c-2.3.5-4.6.9-6.8 1.5-1.1.3-2.2.6-3.4.8l-3.3.9c-4.4 1.3-8.7 2.7-12.8 4.2-4.1 1.6-8 3.2-11.6 5-3.6 1.8-7 3.5-10 5.3-6.1 3.5-10.9 6.9-14.2 9.4-1.6 1.3-2.9 2.3-3.7 3-.5.9-.9 1.3-.9 1.3zm0 25.9s.4-.4 1.3-1.2c.9-.7 2.2-1.9 3.9-3.2 1.7-1.3 3.9-2.9 6.4-4.5 1.3-.8 2.6-1.7 4.1-2.6 1.5-.9 3-1.8 4.6-2.7 3.3-1.8 6.9-3.6 10.8-5.4 3.9-1.7 8.1-3.5 12.5-5 2.2-.8 4.5-1.5 6.8-2.3 2.3-.7 4.6-1.4 7-2 2.4-.6 4.8-1.2 7.2-1.7 1.2-.3 2.4-.5 3.7-.8l3.7-.7c4.9-.8 9.9-1.4 14.8-1.8 2.4-.2 4.9-.3 7.3-.4 2.4-.1 4.8-.1 7.1-.1 4.7 0 9.2.2 13.4.6 1.1.1 2.1.2 3.2.2 1 .1 2 .2 3 .4 2 .3 3.9.5 5.8.7 3.7.6 7.1 1.1 10 1.8 3 .6 5.5 1.2 7.6 1.8 2.1.5 3.7 1 4.9 1.3 1.1.3 1.7.5 1.7.5l-1.8-.3c-1.1-.2-2.8-.4-5-.8-2.1-.4-4.7-.6-7.7-1-1.5-.2-3.1-.4-4.7-.5-1.7-.2-3.4-.3-5.3-.5-1.8-.2-3.8-.2-5.7-.4l-3-.2-3.1-.1c-4.2-.2-8.6-.1-13.2 0-2.3.1-4.6.2-7 .3-1.2.1-2.4.2-3.5.3-1.2.1-2.4.1-3.6.3-4.8.5-9.6 1.1-14.4 1.9l-3.6.6-3.6.7c-2.4.5-4.7 1-7.1 1.6l-3.5.9c-1.2.3-2.3.6-3.4.9-2.3.7-4.5 1.3-6.7 2-1.1.4-2.2.7-3.2 1.1l-3.2 1.1c-2.1.7-4.1 1.5-6.1 2.3-3.9 1.6-7.6 3.1-10.9 4.7-3.3 1.6-6.3 3.1-9 4.5-2.6 1.4-4.9 2.7-6.7 3.9-1.8 1.1-3.3 2-4.2 2.7-1.1.8-1.6 1.1-1.6 1.1zm0 26s.5-.4 1.5-1.1c1-.7 2.4-1.8 4.3-3 1.9-1.3 4.2-2.7 7-4.3 2.7-1.6 5.9-3.3 9.4-5 3.5-1.7 7.3-3.5 11.5-5.2 4.1-1.7 8.6-3.4 13.2-4.9 4.6-1.5 9.5-2.9 14.5-4.2 5-1.2 10.1-2.3 15.3-3.1l3.9-.6 3.9-.5 3.9-.4 3.9-.3c1.3-.1 2.6-.3 3.8-.3l3.8-.2c2.5-.1 5-.1 7.4-.1 2.4 0 4.8 0 7.2.1l3.5.1 3.4.3c4.5.3 8.7.9 12.5 1.3 1.9.3 3.8.6 5.5.9l2.6.4 2.4.5c1.5.3 3 .6 4.3.9.7.1 1.3.3 1.9.4.6.2 1.2.3 1.7.5 2.2.6 3.9 1.1 5.1 1.4 1.2.3 1.8.5 1.8.5l-1.8-.3c-1.2-.2-3-.4-5.2-.8-.6-.1-1.1-.2-1.8-.3-.6-.1-1.3-.2-1.9-.2-1.3-.2-2.8-.4-4.4-.6l-2.4-.3c-.8-.1-1.7-.2-2.6-.2-1.8-.2-3.6-.3-5.5-.5-3.9-.2-8-.5-12.4-.6-1.1 0-2.2-.1-3.4-.1h-3.4c-2.3 0-4.7 0-7.1.1-2.4.1-4.8.1-7.3.3-2.5.2-5 .3-7.5.6-1.3.1-2.5.2-3.8.4-1.3.1-2.5.3-3.8.5l-3.8.5-3.8.6c-5.1.8-10.1 1.8-15 2.9-4.9 1.2-9.7 2.4-14.3 3.8-4.6 1.4-9 2.8-13.2 4.3-4.1 1.5-8 3-11.6 4.5-3.5 1.5-6.8 2.9-9.6 4.3s-5.3 2.6-7.3 3.6c-4.1 2.1-6.3 3.4-6.3 3.4z"/></svg>