<svg xmlns="http://www.w3.org/2000/svg" viewBox="0 0 60.8 61.5" enable-background="new 0 0 60.8 61.5"><style type="text/css">.st0{fill:#FFFFFF;}</style><path class="st0" d="M28.8 58.8c0-.5.4-.9.9-.9s.9.4.9.9-.4.9-1 .9c-.5 0-.9-.4-.8-.9zm3.6 0c0-.5.3-1 .8-1s1 .3 1 .8c.1.5-.3 1-.8 1h-.1c-.4 0-.8-.3-.9-.8zm-6.5.6c-.5-.1-.8-.6-.8-1.1.1-.5.6-.8 1.1-.8.5.1.8.5.8 1-.1.5-.5.8-.9.8-.1.1-.2.1-.2.1zm10.2-1.1c-.1-.5.2-1 .7-1.1.5-.1 1 .2 1.1.7.1.5-.2 1-.7 1.1h-.2c-.4 0-.8-.3-.9-.7zm-13.9.2c-.5-.1-.8-.7-.6-1.1.1-.5.7-.8 1.1-.6.5.1.8.7.6 1.1-.1.4-.5.7-.9.7l-.2-.1zm17.4-1.1c-.2-.5 0-1 .5-1.2.5-.2 1 .1 1.2.5.2.5 0 1-.5 1.2l-.3.1c-.4-.1-.7-.3-.9-.6zm-21-.2c-.5-.2-.7-.8-.5-1.2.2-.5.8-.7 1.2-.4.5.2.7.8.5 1.2-.2.3-.5.5-.8.5-.1-.1-.3-.1-.4-.1zm24.4-1.3c-.2-.4-.1-1 .4-1.2.4-.2 1-.1 1.2.4.2.4.1 1-.4 1.2-.1.1-.3.1-.4.1-.3 0-.6-.2-.8-.5zm-27.7-.6c-.4-.3-.6-.8-.3-1.3.3-.4.8-.6 1.3-.3.4.3.6.8.3 1.3-.2.3-.5.4-.8.4-.2.1-.4 0-.5-.1zm30.9-1.3c-.3-.4-.2-1 .2-1.3.4-.3 1-.2 1.3.2.3.4.2 1-.2 1.3-.2.1-.4.2-.6.2-.3 0-.5-.1-.7-.4zm-34-.9c-.4-.3-.4-.9-.1-1.3.3-.4.9-.4 1.3-.1.4.3.4.9.1 1.3-.2.2-.4.3-.7.3-.2 0-.4-.1-.6-.2zm36.9-1.4c-.4-.4-.4-.9 0-1.3s.9-.3 1.3 0c.4.4.3.9 0 1.3-.2.2-.4.3-.7.3-.2 0-.5-.1-.6-.3zm-39.6-1.3c-.3-.4-.3-.9.1-1.3.4-.3 1-.3 1.3.1.3.4.3 1-.1 1.3-.2.2-.4.2-.6.2-.3 0-.5-.1-.7-.3zm42.1-1.3c-.4-.3-.5-.9-.1-1.3.3-.4.9-.5 1.3-.2s.5.9.2 1.3c-.2.2-.4.3-.7.3-.3.1-.5 0-.7-.1zm-44.5-1.6c-.3-.4-.2-1 .2-1.3.4-.3 1-.2 1.3.2.3.4.2 1-.2 1.3-.2.1-.3.2-.5.2-.3 0-.6-.2-.8-.4zm46.7-1.4c-.4-.2-.6-.8-.3-1.3.3-.4.8-.6 1.3-.3.4.3.6.8.3 1.3-.2.3-.5.4-.8.4-.2.1-.3 0-.5-.1zm-48.6-1.9c-.2-.5 0-1 .4-1.2.5-.2 1-.1 1.2.4.2.5 0 1-.4 1.2-.1.1-.3.1-.4.1-.3 0-.7-.2-.8-.5zm50.4-1.3c-.5-.2-.7-.7-.5-1.2.2-.5.7-.7 1.2-.5.5.2.7.7.5 1.2-.1.4-.5.6-.9.6-.1 0-.2 0-.3-.1zm-51.9-2.2c-.2-.5.1-1 .6-1.2.5-.2 1 .1 1.2.6.2.5-.1 1-.6 1.2l-.3.1c-.4-.1-.8-.3-.9-.7zm53.2-1.2c-.5-.1-.8-.6-.6-1.1.1-.5.6-.8 1.1-.6.5.1.8.6.6 1.1-.1.4-.5.7-.9.7 0-.1-.1-.1-.2-.1zm-54.2-2.5c-.1-.5.2-1 .7-1.1.5-.1 1 .2 1.1.7.1.5-.2 1-.7 1.1h-.2c-.5.1-.8-.2-.9-.7zm55-1.1c-.5-.1-.9-.5-.8-1 .1-.5.5-.9 1-.8.5.1.9.5.8 1-.1.5-.5.8-.9.8h-.1zm-55.5-2.6c0-.5.4-.9.9-1 .5 0 .9.3 1 .9 0 .5-.3.9-.9 1h-.1c-.5-.1-.9-.4-.9-.9zm55-2v-.1c0-.5.4-.9.9-.9s.9.4.9.9v.2c0 .5-.4.9-.9.9-.5-.1-.9-.5-.9-1zm-54.2-.9c-.5 0-.9-.5-.9-1s.5-.9 1-.9.9.5.9 1c0 .6-.4 1-1 .9.1.1 0 .1 0 0zm53.9-2.7c-.1-.5.3-1 .8-1 .5-.1 1 .3 1 .8.1.5-.3 1-.8 1h-.1c-.4 0-.8-.4-.9-.8zm-53.5-.9c-.5-.1-.8-.6-.7-1.1.1-.5.6-.8 1.1-.7.5.1.8.6.7 1.1-.1.4-.5.7-.9.7h-.2zm52.8-2.6c-.1-.5.2-1 .6-1.1.5-.1 1 .1 1.1.6.1.5-.1 1-.6 1.1h-.2c-.4.1-.8-.2-.9-.6zm-52-1c-.5-.2-.7-.7-.6-1.2.2-.5.7-.7 1.2-.6.5.2.7.7.6 1.2-.1.4-.5.6-.9.6-.1.1-.2 0-.3 0zm50.8-2.4c-.2-.5 0-1 .5-1.2.5-.2 1 0 1.2.5.2.5 0 1-.5 1.2-.1.1-.2.1-.4.1-.3 0-.6-.2-.8-.6zm-49.5-1c-.5-.2-.6-.8-.4-1.2.2-.5.8-.6 1.2-.4.5.2.6.8.4 1.2-.2.3-.5.5-.8.5-.1 0-.2-.1-.4-.1zm47.9-2.1c-.3-.4-.1-1 .3-1.3.4-.3 1-.1 1.3.3.3.4.1 1-.3 1.2-.1.1-.3.1-.5.1-.3.1-.6-.1-.8-.3zm-46.1-1.2c-.4-.3-.5-.9-.2-1.3s.9-.5 1.3-.2.5.9.2 1.3c-.2.3-.5.4-.8.4-.2 0-.3-.1-.5-.2zm44.1-1.8c-.3-.4-.2-1 .1-1.3.4-.3 1-.3 1.3.1.3.4.2 1-.1 1.3-.2.1-.4.2-.6.2-.2.1-.5 0-.7-.3zm-41.9-1.1c-.4-.3-.4-.9-.1-1.3.3-.4.9-.4 1.3-.1.4.3.4.9.1 1.3-.2.2-.4.3-.7.3-.2 0-.4-.1-.6-.2zm39.5-1.5c-.4-.4-.4-.9 0-1.3s.9-.4 1.3 0 .4.9 0 1.3c-.2.2-.4.3-.7.3-.2 0-.4-.1-.6-.3zm-37-1.2c-.3-.4-.3-1 .1-1.3.4-.3 1-.3 1.3.1.3.4.3 1-.1 1.3-.2.1-.4.2-.6.2-.2 0-.5-.1-.7-.3zm34.3-1.1c-.4-.3-.5-.9-.2-1.3s.9-.5 1.3-.2.5.9.2 1.3c-.2.2-.5.4-.7.4-.3 0-.4-.1-.6-.2zm-31.4-1.2c-.3-.4-.2-1 .3-1.3.4-.3 1-.2 1.3.3.3.4.2 1-.3 1.3-.2.1-.3.2-.5.2-.3 0-.6-.2-.8-.5zm28.4-.7c-.4-.2-.6-.8-.4-1.2.2-.5.8-.6 1.2-.4.5.2.6.8.4 1.2-.1.4-.4.5-.8.5-.1 0-.3 0-.4-.1zm-25.2-1.2c-.2-.5 0-1 .4-1.2.5-.2 1 0 1.2.4.2.5 0 1-.4 1.2-.1.1-.3.1-.4.1-.3.1-.7-.1-.8-.5zm22-.3c-.5-.2-.7-.7-.5-1.2.2-.5.7-.7 1.2-.5.5.2.7.7.5 1.2-.1.4-.5.6-.9.6-.1 0-.2 0-.3-.1zm-18.6-1.1c-.2-.5.1-1 .6-1.2.5-.1 1 .1 1.1.6.2.5-.1 1-.6 1.1l-.3.1c-.4 0-.7-.2-.8-.6zm15.2.1c-.5-.1-.8-.6-.7-1.1.1-.5.6-.8 1.1-.7.5.1.8.6.7 1.1-.1.4-.5.7-.9.7h-.2zm-11.7-1.1c-.1-.5.2-1 .8-1.1.5-.1 1 .2 1.1.8.1.5-.2 1-.8 1.1h-.1c-.5 0-.9-.3-1-.8zm8.1.5c-.5-.1-.9-.5-.8-1 .1-.5.5-.9 1-.8.5 0 .9.5.8 1 0 .5-.4.8-1 .8zm-3.5-.1c-.5 0-.9-.4-1-.9 0-.5.4-.9.9-1 .5 0 .9.4.9.9.1.6-.3 1-.8 1zM30.6 56.9c-14.2 0-25.6-11.5-25.6-25.6s11.4-25.6 25.6-25.6 25.6 11.5 25.6 25.6-11.5 25.6-25.6 25.6zm0-50.2c-13.6 0-24.6 11-24.6 24.6s11 24.6 24.6 24.6 24.6-11 24.6-24.6-11.1-24.6-24.6-24.6zM18.3 12.5c.5-.1 1.6-.2 2.6-.2 1.2 0 2 .1 2.6.5.6.3 1.1.9 1.1 1.7 0 .8-.5 1.5-1.4 1.9 1 .3 1.7 1 1.7 2.2 0 .8-.4 1.4-.9 1.9-.6.5-1.7.8-3.4.8-1 0-1.7-.1-2.1-.1v-8.7zm2 3.3h.7c1 0 1.6-.4 1.6-1.1 0-.7-.5-1-1.4-1-.4 0-.7 0-.8.1v2zm0 3.9h.8c.9 0 1.7-.3 1.7-1.3 0-.9-.8-1.2-1.8-1.2h-.7v2.5zM26.1 11.9h2v9.2h-2v-9.2zM35.7 19.1c0 .8 0 1.5.1 2h-1.8l-.1-.9c-.2.4-.8 1-2 1-1.3 0-2.2-.8-2.2-2.8v-3.7h2v3.4c0 .9.3 1.5 1 1.5.5 0 .9-.4 1-.7.1-.1.1-.3.1-.4v-3.8h2v4.4zM38.8 18.5c.1.8.9 1.2 1.8 1.2.7 0 1.2-.1 1.8-.3l.3 1.3c-.6.3-1.4.4-2.3.4-2.2 0-3.4-1.2-3.4-3.2 0-1.6 1-3.4 3.2-3.4 2.1 0 2.8 1.6 2.8 3.2 0 .3 0 .6-.1.8h-4.1zm2.3-1.3c0-.5-.2-1.3-1.1-1.3-.8 0-1.2.8-1.2 1.3h2.3zM15.1 25.3c.6-.1 1.9-.2 3.2-.2 1.5 0 2.4.1 3.2.6.8.4 1.3 1.1 1.3 2.1s-.6 1.9-1.8 2.3c1.2.3 2.1 1.3 2.1 2.7 0 1-.4 1.7-1.1 2.3-.8.6-2.1 1-4.2 1-1.2 0-2.1-.1-2.6-.2v-10.6zm2.4 4.1h.8c1.3 0 2-.5 2-1.3s-.6-1.2-1.7-1.2c-.5 0-.8 0-1 .1v2.4zm0 4.8h.9c1.1 0 2.1-.4 2.1-1.6 0-1.1-1-1.5-2.2-1.5h-.8v3.1zM26.7 32.8c.1 1 1.1 1.5 2.2 1.5.8 0 1.5-.1 2.2-.3l.3 1.6c-.8.3-1.8.5-2.8.5-2.7 0-4.2-1.5-4.2-4 0-2 1.2-4.2 4-4.2 2.5 0 3.5 2 3.5 3.9 0 .4 0 .8-.1 1h-5.1zm2.8-1.7c0-.6-.3-1.6-1.4-1.6-1 0-1.4.9-1.5 1.6h2.9zM37.7 35.9l-.1-.8c-.5.6-1.3 1-2.2 1-1.6 0-2.5-1.2-2.5-2.4 0-2 1.8-3 4.6-3v-.1c0-.4-.2-1-1.4-1-.8 0-1.6.3-2.2.6l-.4-1.6c.5-.3 1.6-.7 3-.7 2.6 0 3.4 1.5 3.4 3.4v2.7c0 .8 0 1.5.1 1.9h-2.3zm-.3-3.7c-1.3 0-2.3.3-2.3 1.2 0 .6.4.9 1 .9s1.1-.4 1.3-.9v-1.2000000000000002zM41.7 30.6c0-1.2 0-1.9-.1-2.6h2.1l.1 1.4h.1c.4-1.1 1.4-1.6 2.1-1.6h.5v2.3c-.2 0-.4-.1-.7-.1-.9 0-1.5.5-1.7 1.2v4.5h-2.4v-5.1zM15.7 45.1c.4.2 1 .4 1.7.4s1.1-.3 1.1-.7c0-.4-.3-.7-1.1-.9-1.1-.4-1.8-1-1.8-2 0-1.1 1-2 2.5-2 .8 0 1.3.2 1.7.3l-.3 1.2c-.3-.1-.7-.3-1.4-.3s-1 .3-1 .6c0 .4.4.6 1.2.9 1.2.4 1.7 1.1 1.7 2 0 1.1-.9 2.1-2.7 2.1-.8 0-1.5-.2-1.9-.4l.3-1.2zM22.6 40.4v1.4h1.1v1.1h-1.1v1.8c0 .6.1.9.6.9h.5v1.1c-.2.1-.6.1-1 .1-.5 0-.9-.2-1.1-.4-.3-.3-.4-.8-.4-1.4v-2h-.6v-1.1h.6v-1.1l1.4-.4zM29.4 44.2c0 1.8-1.3 2.6-2.6 2.6-1.4 0-2.5-.9-2.5-2.5s1-2.6 2.6-2.6c1.5 0 2.5 1 2.5 2.5zm-3.6 0c0 .8.3 1.5 1 1.5.6 0 1-.6 1-1.5 0-.7-.3-1.5-1-1.5-.7.1-1 .8-1 1.5zM30.3 43.4v-1.6h1.3v.9c.2-.7.8-1 1.3-1h.3v1.4h-.4c-.6 0-.9.3-1 .8v2.8h-1.5v-3.3zM35.7 40.5c0 .4-.3.8-.8.8s-.8-.3-.8-.8c0-.4.3-.8.8-.8s.8.3.8.8zm-1.6 6.2v-4.9h1.5v4.9h-1.5zM38 44.7c.1.6.7.9 1.4.9.5 0 .9-.1 1.3-.2l.2 1c-.5.2-1.1.3-1.8.3-1.7 0-2.6-1-2.6-2.5 0-1.2.8-2.6 2.5-2.6 1.6 0 2.2 1.2 2.2 2.4v.6h-3.2zm1.8-1c0-.4-.2-1-.9-1-.6 0-.9.6-.9 1h1.8zM42.1 45.4c.3.2.9.4 1.3.4.5 0 .6-.2.6-.4s-.1-.4-.7-.6c-1-.3-1.4-.9-1.4-1.5 0-.9.8-1.6 2-1.6.6 0 1.1.1 1.4.3l-.3 1c-.2-.1-.6-.3-1.1-.3-.4 0-.6.1-.6.4 0 .2.2.3.8.6.9.3 1.3.8 1.3 1.5 0 .9-.7 1.6-2.1 1.6-.6 0-1.2-.1-1.6-.3l.4-1.1z"/></svg>