<svg xmlns="http://www.w3.org/2000/svg" viewBox="0 0 38 62.9" enable-background="new 0 0 38 62.9"><style type="text/css">.st0{fill:#8CC63F;}</style><path class="st0" d="M33.6 7.7h-29.5c-1.5 0-2.7-1.2-2.7-2.7v-.9c0-1.5 1.2-2.7 2.7-2.7h29.5c1.5 0 2.7 1.2 2.7 2.7v.8c0 1.5-1.2 2.8-2.7 2.8zM33.6 18h-29.5c-1.5 0-2.7-1.2-2.7-2.7v-.8c0-1.5 1.2-2.7 2.7-2.7h29.5c1.5 0 2.7 1.2 2.7 2.7v.8c0 1.5-1.2 2.7-2.7 2.7zM33.6 28.4h-29.5c-1.5 0-2.7-1.2-2.7-2.7v-.8c0-1.5 1.2-2.7 2.7-2.7h29.5c1.5 0 2.7 1.2 2.7 2.7v.8c0 1.5-1.2 2.7-2.7 2.7zM32.9 52.7l-8.4-5.5 8.4-5.5c1.3-.8 1.6-2.5.8-3.8l-.4-.6c-.8-1.3-2.5-1.6-3.8-.8l-10.6 7-10.6-7c-1.3-.8-3-.5-3.8.8l-.5.7c-.8 1.3-.5 3 .8 3.8l8.4 5.5-8.4 5.5c-1.3.8-1.6 2.5-.8 3.8l.4.6c.8 1.3 2.5 1.6 3.8.8l10.6-7 10.6 7c1.3.8 3 .5 3.8-.8l.4-.6c.9-1.4.6-3.1-.7-3.9z"/></svg>