<?xml version="1.0" encoding="utf-8"?>
<!-- Generator: Adobe Illustrator 18.1.1, SVG Export Plug-In . SVG Version: 6.00 Build 0)  -->
<svg version="1.1" id="Layer_1" xmlns="http://www.w3.org/2000/svg" xmlns:xlink="http://www.w3.org/1999/xlink" x="0px" y="0px"
	 width="50px" height="84.5px" viewBox="0 0 50 84.5" style="enable-background:new 0 0 50 84.5;" xml:space="preserve">
<style type="text/css">
	.st0{fill:#FFFFFF;}
	.st1{fill:#8CC63F;}
</style>
<rect x="0" y="43" class="st0" width="50" height="41.5"/>
<path class="st1" d="M39.9,13.8H10.4c-1.5,0-2.7-1.2-2.7-2.7v-0.8c0-1.5,1.2-2.7,2.7-2.7h29.5c1.5,0,2.7,1.2,2.7,2.7v0.8
	C42.7,12.6,41.4,13.8,39.9,13.8z"/>
<path class="st1" d="M39.9,24.2H10.4c-1.5,0-2.7-1.2-2.7-2.7v-0.8c0-1.5,1.2-2.7,2.7-2.7h29.5c1.5,0,2.7,1.2,2.7,2.7v0.8
	C42.7,22.9,41.4,24.2,39.9,24.2z"/>
<path class="st1" d="M39.9,34.6H10.4c-1.5,0-2.7-1.2-2.7-2.7v-0.8c0-1.5,1.2-2.7,2.7-2.7h29.5c1.5,0,2.7,1.2,2.7,2.7v0.8
	C42.7,33.3,41.4,34.6,39.9,34.6z"/>
<path class="st1" d="M35.8,74.5L11.1,58.3c-1.3-0.8-1.6-2.5-0.8-3.8l0.4-0.6c0.8-1.3,2.5-1.6,3.8-0.8l24.7,16.1
	c1.3,0.8,1.6,2.5,0.8,3.8l-0.4,0.6C38.8,75,37.1,75.3,35.8,74.5z"/>
<path class="st1" d="M14.5,74.5l24.7-16.1c1.3-0.8,1.6-2.5,0.8-3.8l-0.4-0.6c-0.8-1.3-2.5-1.6-3.8-0.8L11.1,69.3
	c-1.3,0.8-1.6,2.5-0.8,3.8l0.4,0.6C11.6,75,13.3,75.3,14.5,74.5z"/>
<g>
</g>
<g>
</g>
<g>
</g>
<g>
</g>
<g>
</g>
<g>
</g>
<g>
</g>
<g>
</g>
<g>
</g>
<g>
</g>
<g>
</g>
<g>
</g>
<g>
</g>
<g>
</g>
<g>
</g>
</svg>
