<?xml version="1.0" encoding="utf-8"?>
<!-- Generator: Adobe Illustrator 18.1.1, SVG Export Plug-In . SVG Version: 6.00 Build 0)  -->
<svg version="1.1" id="Layer_1" xmlns="http://www.w3.org/2000/svg" xmlns:xlink="http://www.w3.org/1999/xlink" x="0px" y="0px"
	 viewBox="0 0 38 56" style="enable-background:new 0 0 38 56;" xml:space="preserve">
<path d="M33.6,7.7H4.1c-1.5,0-2.7-1.2-2.7-2.7V4.1c0-1.5,1.2-2.7,2.7-2.7h29.5c1.5,0,2.7,1.2,2.7,2.7v0.8
	C36.3,6.4,35.1,7.7,33.6,7.7z"/>
<path d="M33.6,18H4.1c-1.5,0-2.7-1.2-2.7-2.7v-0.8c0-1.5,1.2-2.7,2.7-2.7h29.5c1.5,0,2.7,1.2,2.7,2.7v0.8C36.3,16.8,35.1,18,33.6,18
	z"/>
<path d="M33.6,28.4H4.1c-1.5,0-2.7-1.2-2.7-2.7v-0.8c0-1.5,1.2-2.7,2.7-2.7h29.5c1.5,0,2.7,1.2,2.7,2.7v0.8
	C36.3,27.2,35.1,28.4,33.6,28.4z"/>
<path d="M29.5,53.9L4.8,37.7c-1.3-0.8-1.6-2.5-0.8-3.8l0.4-0.6c0.8-1.3,2.5-1.6,3.8-0.8l24.7,16.1c1.3,0.8,1.6,2.5,0.8,3.8l-0.4,0.6
	C32.5,54.3,30.7,54.7,29.5,53.9z"/>
<path d="M8.2,53.9l24.7-16.1c1.3-0.8,1.6-2.5,0.8-3.8l-0.4-0.6c-0.8-1.3-2.5-1.6-3.8-0.8L4.8,48.6c-1.3,0.8-1.6,2.5-0.8,3.8l0.4,0.6
	C5.2,54.3,6.9,54.7,8.2,53.9z"/>
<g>
</g>
<g>
</g>
<g>
</g>
<g>
</g>
<g>
</g>
<g>
</g>
<g>
</g>
<g>
</g>
<g>
</g>
<g>
</g>
<g>
</g>
<g>
</g>
<g>
</g>
<g>
</g>
<g>
</g>
</svg>
