<svg xmlns="http://www.w3.org/2000/svg" width="50" height="84.5" viewBox="0 0 50 84.5"><style type="text/css">.st0{fill:#FFFFFF;} .st1{fill:#8CC63F;}</style><path class="st0" d="M0 43h50v41.5h-50z"/><path class="st1" d="M39.9 13.8h-29.5c-1.5 0-2.7-1.2-2.7-2.7v-.8c0-1.5 1.2-2.7 2.7-2.7h29.5c1.5 0 2.7 1.2 2.7 2.7v.8c.1 1.5-1.2 2.7-2.7 2.7zM39.9 24.2h-29.5c-1.5 0-2.7-1.2-2.7-2.7v-.8c0-1.5 1.2-2.7 2.7-2.7h29.5c1.5 0 2.7 1.2 2.7 2.7v.8c.1 1.4-1.2 2.7-2.7 2.7zM39.9 34.6h-29.5c-1.5 0-2.7-1.2-2.7-2.7v-.8c0-1.5 1.2-2.7 2.7-2.7h29.5c1.5 0 2.7 1.2 2.7 2.7v.8c.1 1.4-1.2 2.7-2.7 2.7zM35.8 74.5l-24.7-16.2c-1.3-.8-1.6-2.5-.8-3.8l.4-.6c.8-1.3 2.5-1.6 3.8-.8l24.7 16.1c1.3.8 1.6 2.5.8 3.8l-.4.6c-.8 1.4-2.5 1.7-3.8.9zM14.5 74.5l24.7-16.1c1.3-.8 1.6-2.5.8-3.8l-.4-.6c-.8-1.3-2.5-1.6-3.8-.8l-24.7 16.1c-1.3.8-1.6 2.5-.8 3.8l.4.6c.9 1.3 2.6 1.6 3.8.8z"/></svg>