<svg xmlns="http://www.w3.org/2000/svg" width="50" height="84.5" viewBox="-9 -7.5 50 84.5" enable-background="new -9 -7.5 50 84.5"><path fill="#fff" d="M-9 36h50v41h-50v-41z"/><path fill="#8CC63F" d="M30.9 6.3h-29.5c-1.5 0-2.7-1.2-2.7-2.7v-.8c0-1.5 1.2-2.7 2.7-2.7h29.5c1.5 0 2.7 1.2 2.7 2.7v.8c.1 1.5-1.2 2.7-2.7 2.7zm0 10.4h-29.5c-1.5 0-2.7-1.2-2.7-2.7v-.8c0-1.5 1.2-2.7 2.7-2.7h29.5c1.5 0 2.7 1.2 2.7 2.7v.8c.1 1.4-1.2 2.7-2.7 2.7zm0 10.4h-29.5c-1.5 0-2.7-1.2-2.7-2.7v-.8c0-1.5 1.2-2.7 2.7-2.7h29.5c1.5 0 2.7 1.2 2.7 2.7v.8c.1 1.4-1.2 2.7-2.7 2.7zm-4.1 39.9l-24.7-16.2c-1.3-.8-1.6-2.5-.8-3.8l.4-.6c.8-1.3 2.5-1.6 3.8-.8l24.7 16.1c1.3.8 1.6 2.5.8 3.8l-.4.6c-.8 1.4-2.5 1.7-3.8.9z"/><g><path fill="#8CC63F" d="M31 47.1c.8 1.3.5 3-.8 3.8l-24.7 16.1c-1.2.8-2.9.5-3.8-.8l-.4-.6c-.8-1.3-.5-3 .8-3.8l24.7-16.1c1.3-.8 3-.5 3.8.8l.4.6z"/></g></svg>